<svg width="250" height="250" viewBox="0 0 250 250" fill="none" xmlns="http://www.w3.org/2000/svg">
<rect width="250" height="250" rx="63" fill="url(#paint0_linear_12_2976)"/>
<g clip-path="url(#clip0_12_2976)">
<path opacity="0.5" fill-rule="evenodd" clip-rule="evenodd" d="M125.03 117.05C125.03 117.05 91.6301 56.86 125.99 23C125.99 23 160.92 53.94 125.03 117.05Z" fill="url(#paint1_linear_12_2976)"/>
<path opacity="0.5" fill-rule="evenodd" clip-rule="evenodd" d="M125.51 117.38C125.51 117.38 123.33 56.42 171.13 37.47C171.13 37.47 188.64 73.92 125.51 117.38Z" fill="url(#paint2_linear_12_2976)"/>
<path opacity="0.5" fill-rule="evenodd" clip-rule="evenodd" d="M125.69 117.55C125.69 117.55 149.45 67.78 198.44 69.3C198.44 69.3 198.14 104.75 125.69 117.55Z" fill="url(#paint3_linear_12_2976)"/>
<path opacity="0.5" fill-rule="evenodd" clip-rule="evenodd" d="M126.44 117.55C126.44 117.55 102.68 67.79 53.6901 69.31C53.6901 69.31 53.9901 104.76 126.44 117.56V117.55Z" fill="url(#paint4_linear_12_2976)"/>
<path opacity="0.5" fill-rule="evenodd" clip-rule="evenodd" d="M125.71 117.27C125.71 117.27 63.8101 77.63 77.0501 38.36C77.0501 38.36 124.93 53.06 125.71 117.26V117.27Z" fill="url(#paint5_linear_12_2976)"/>
<path fill-rule="evenodd" clip-rule="evenodd" d="M178.04 168.1C178.04 168.1 158.11 176.9 124.81 176.9C91.51 176.9 75.09 171.54 75.09 171.54C75.09 171.54 61.26 186.37 48.39 191.97V197.57C48.39 197.57 73.46 204.65 124.82 204.65C176.18 204.65 199.61 198.03 199.61 198.03V191.97C199.61 191.97 185.19 181.76 178.05 168.09L178.04 168.1Z" fill="url(#paint6_linear_12_2976)"/>
<g style="mix-blend-mode:multiply" opacity="0.3">
<path fill-rule="evenodd" clip-rule="evenodd" d="M48.38 191.98C48.38 191.98 72.89 200.43 125.24 200.43C177.59 200.43 199.6 191.98 199.6 191.98V198.04C199.6 198.04 181.41 204.66 124.81 204.66C68.21 204.66 48.38 197.58 48.38 197.58V191.98Z" fill="#A772B3"/>
</g>
<g style="mix-blend-mode:multiply" opacity="0.72">
<path fill-rule="evenodd" clip-rule="evenodd" d="M87.4601 174.46C87.4601 174.46 93.0801 199.51 123.36 199.51C156.56 199.51 159.65 173.46 159.65 173.46C159.65 173.46 138.06 176.89 121.84 176.89C105.62 176.89 87.4601 174.46 87.4601 174.46Z" fill="#A772B3"/>
</g>
<path fill-rule="evenodd" clip-rule="evenodd" d="M212.55 142.19H211.8L212.3 140.15C212.3 137.53 211.09 136.53 211.09 136.53L209.88 136.7C209.71 135.65 208.22 134.24 208.22 134.24C206.38 134.95 205.3 136.2 205.3 136.2C205.72 133.94 205.51 130.4 204.92 130.26C204.34 130.12 203.34 130.28 201.55 130.4C199.76 130.53 197.76 130.03 197.46 130.4C197.25 130.68 197.55 131.81 198.05 132.71C196.93 131.4 194.62 131.26 194.5 131.76C194.37 132.26 194.96 134.93 194.84 136.7C194.72 138.46 192.4 140.82 192.4 142.7C192.4 144.58 195.22 149.13 195.22 149.13C195.22 149.13 190.1 152.93 186.07 153.93C185.06 154.19 184.12 154.26 183.34 154.06C181.33 153.54 179.42 150.7 178.04 148.09C176.76 145.64 175.94 143.39 175.94 143.39L172.23 146.64C172.23 146.64 172.95 151.34 175.04 155.33C176.58 158.27 178.87 160.82 182.17 160.82C183.8 160.82 185.41 160.58 186.95 160.17C194.49 158.2 200.51 152.42 200.51 152.42C210.92 150.28 213.01 146.24 213.01 146.24C213.67 143.7 212.55 142.19 212.55 142.19ZM198.6 140.15C198.6 140.15 197.55 139.24 197.55 138.94C197.55 138.64 198.3 137.82 198.42 137.44C198.53 137.11 199.04 134.71 198.38 133.24C198.48 133.36 198.57 133.48 198.67 133.57C199.51 134.38 201.84 134.75 201.84 134.75C201.46 138.49 198.6 140.15 198.6 140.15Z" fill="url(#paint7_linear_12_2976)"/>
<path fill-rule="evenodd" clip-rule="evenodd" d="M212.55 142.19H211.8L212.3 140.15C212.3 137.53 211.09 136.53 211.09 136.53L209.88 136.7C209.71 135.65 208.22 134.24 208.22 134.24C206.38 134.95 205.3 136.2 205.3 136.2C205.72 133.94 205.51 130.4 204.92 130.26C204.34 130.12 203.11 129.69 201.32 129.81C199.53 129.94 197.76 130.03 197.46 130.4C197.25 130.68 197.55 131.81 198.05 132.71C196.93 131.4 194.62 131.26 194.5 131.76C194.37 132.26 194.96 134.93 194.84 136.7C194.72 138.46 192.4 140.82 192.4 142.7C192.4 144.58 195.22 149.13 195.22 149.13C195.22 149.13 190.1 152.93 186.07 153.93C185.91 155.19 185.87 157.25 186.67 159.65C186.73 159.83 186.82 160 186.95 160.17C194.49 158.2 199.7 153.15 199.7 153.15C210.11 151.01 213.01 146.24 213.01 146.24C213.67 143.7 212.55 142.19 212.55 142.19ZM198.6 140.15C198.6 140.15 197.55 139.24 197.55 138.94C197.55 138.64 198.3 137.82 198.42 137.44C198.53 137.11 199.04 134.71 198.38 133.24C198.48 133.36 198.57 133.48 198.67 133.57C199.51 134.38 201.84 134.75 201.84 134.75C201.46 138.49 198.6 140.15 198.6 140.15Z" fill="url(#paint8_linear_12_2976)"/>
<path fill-rule="evenodd" clip-rule="evenodd" d="M197.55 138.94C197.55 138.94 200.71 143.51 201.13 145.19C201.13 145.19 203.92 146.7 206.75 146.86C209.58 147.03 212.04 145.51 212.04 145.51C212.04 145.51 209.58 145.87 208.08 145.51C208.08 145.51 207.37 144.92 207.58 143.47L211.79 142.19L212.04 141.18C212.04 141.18 208.79 143.14 206.29 143.4C206.29 143.4 204.62 143.2 204.33 141.91L208.24 138.36L204.1 141.43C204.1 141.43 201.96 141.61 201.84 140.16L205.3 136.21C205.3 136.21 202.34 136.36 201.84 134.76C201.84 134.76 201.67 137.45 198.97 139.75L197.56 138.95L197.55 138.94Z" fill="#F47F81"/>
<path fill-rule="evenodd" clip-rule="evenodd" d="M195.22 149.13C195.22 149.13 197.88 152.64 199.69 153.15C199.69 153.15 194.6 153.88 192.72 150.81L195.22 149.13Z" fill="#F47F81"/>
<g style="mix-blend-mode:multiply">
<path fill-rule="evenodd" clip-rule="evenodd" d="M175.06 155.35L175.04 155.33C172.95 151.34 172.23 146.64 172.23 146.64L175.94 143.39C175.94 143.39 176.76 145.64 178.04 148.09C177.84 148.3 174.78 151.63 175.06 155.35Z" fill="#5E364C"/>
</g>
<path fill-rule="evenodd" clip-rule="evenodd" d="M37.67 142.19H38.42L37.92 140.15C37.92 137.53 39.13 136.53 39.13 136.53L40.34 136.7C40.51 135.65 42 134.24 42 134.24C43.84 134.95 44.92 136.2 44.92 136.2C44.5 133.94 44.71 130.4 45.3 130.26C45.88 130.12 46.88 130.28 48.67 130.4C50.46 130.53 52.46 130.03 52.76 130.4C52.97 130.68 52.67 131.81 52.17 132.71C53.29 131.4 55.6 131.26 55.72 131.76C55.85 132.26 55.26 134.93 55.38 136.7C55.5 138.46 57.82 140.82 57.82 142.7C57.82 144.58 55 149.13 55 149.13C55 149.13 60.12 152.93 64.15 153.93C65.16 154.19 66.1 154.26 66.88 154.06C68.89 153.54 70.8 150.7 72.18 148.09C73.46 145.64 74.28 143.39 74.28 143.39L77.9901 146.64C77.9901 146.64 77.27 151.34 75.18 155.33C73.64 158.27 71.35 160.82 68.05 160.82C66.42 160.82 64.8101 160.58 63.2701 160.17C55.7301 158.2 49.71 152.42 49.71 152.42C39.3 150.28 37.21 146.24 37.21 146.24C36.55 143.7 37.67 142.19 37.67 142.19ZM51.62 140.15C51.62 140.15 52.67 139.24 52.67 138.94C52.67 138.64 51.92 137.82 51.8 137.44C51.69 137.11 51.18 134.71 51.84 133.24C51.74 133.36 51.65 133.48 51.55 133.57C50.71 134.38 48.38 134.75 48.38 134.75C48.76 138.49 51.62 140.15 51.62 140.15Z" fill="url(#paint9_linear_12_2976)"/>
<path fill-rule="evenodd" clip-rule="evenodd" d="M37.67 142.19H38.42L37.92 140.15C37.92 137.53 39.13 136.53 39.13 136.53L40.34 136.7C40.51 135.65 42 134.24 42 134.24C43.84 134.95 44.92 136.2 44.92 136.2C44.5 133.94 44.71 130.4 45.3 130.26C45.88 130.12 46.99 129.96 48.78 129.94C51.26 129.92 52.46 130.03 52.76 130.4C52.97 130.68 52.67 131.81 52.17 132.71C53.29 131.4 55.6 131.26 55.72 131.76C55.85 132.26 55.26 134.93 55.38 136.7C55.5 138.46 57.82 140.82 57.82 142.7C57.82 144.58 55 149.13 55 149.13C55 149.13 60.12 152.93 64.15 153.93C64.31 155.19 64.35 157.25 63.55 159.65C63.49 159.83 63.4001 160 63.2701 160.17C55.7301 158.2 50.52 153.15 50.52 153.15C40.11 151.01 37.21 146.24 37.21 146.24C36.55 143.7 37.67 142.19 37.67 142.19ZM51.62 140.15C51.62 140.15 52.67 139.24 52.67 138.94C52.67 138.64 51.92 137.82 51.8 137.44C51.69 137.11 51.18 134.71 51.84 133.24C51.74 133.36 51.65 133.48 51.55 133.57C50.71 134.38 48.38 134.75 48.38 134.75C48.76 138.49 51.62 140.15 51.62 140.15Z" fill="url(#paint10_linear_12_2976)"/>
<path fill-rule="evenodd" clip-rule="evenodd" d="M52.6701 138.94C52.6701 138.94 49.5101 143.51 49.0901 145.19C49.0901 145.19 46.3001 146.7 43.4701 146.86C40.6401 147.03 38.1801 145.51 38.1801 145.51C38.1801 145.51 40.6401 145.87 42.1401 145.51C42.1401 145.51 42.8501 144.92 42.6401 143.47L38.4301 142.19L38.1801 141.18C38.1801 141.18 41.4301 143.14 43.9301 143.4C43.9301 143.4 45.6001 143.2 45.8901 141.91L41.9801 138.36L46.1201 141.43C46.1201 141.43 48.2601 141.61 48.3801 140.16L44.9201 136.21C44.9201 136.21 47.8801 136.36 48.3801 134.76C48.3801 134.76 48.5501 137.45 51.2501 139.75L52.6601 138.95L52.6701 138.94Z" fill="#F47F81"/>
<path fill-rule="evenodd" clip-rule="evenodd" d="M55 149.13C55 149.13 52.34 152.64 50.53 153.15C50.53 153.15 55.62 153.88 57.5 150.81L55 149.13Z" fill="#F47F81"/>
<g style="mix-blend-mode:multiply">
<path fill-rule="evenodd" clip-rule="evenodd" d="M75.1601 155.35L75.1801 155.33C77.2701 151.34 77.9901 146.64 77.9901 146.64L74.2801 143.39C74.2801 143.39 73.4601 145.64 72.1801 148.09C72.3801 148.3 75.4401 151.63 75.1601 155.35Z" fill="#5E364C"/>
</g>
<path fill-rule="evenodd" clip-rule="evenodd" d="M124.98 181.24L124.44 180.49C124.44 180.49 112.98 186.01 109.54 194.94L111.27 195.39C111.27 195.39 117.27 184.78 124.99 181.23L124.98 181.24Z" fill="url(#paint11_linear_12_2976)"/>
<path fill-rule="evenodd" clip-rule="evenodd" d="M98.4301 173.06C98.4301 173.06 106.83 180.51 125.81 180.51C144.79 180.51 155.31 171.44 155.31 171.44L98.4301 173.06Z" fill="url(#paint12_linear_12_2976)"/>
<path fill-rule="evenodd" clip-rule="evenodd" d="M179.18 129.8C176.09 147.65 168.43 166.26 158 170.47C140.47 177.54 104.12 177.54 93.6901 171.02C83.3101 164.53 74.4601 148.5 70.7601 132.15C68.0101 120.02 68.1001 107.72 72.4901 99.02C77.5601 88.95 91.6801 79.44 124.41 79.44C152.9 79.44 176.24 86.69 179.76 103.13C181.22 109.98 180.93 119.76 179.18 129.8Z" fill="url(#paint13_linear_12_2976)"/>
<path style="mix-blend-mode:multiply" opacity="0.3" fill-rule="evenodd" clip-rule="evenodd" d="M94.6601 93.55C94.6601 93.55 89.1001 98.25 88.8101 106C88.8101 106 93.8301 113.99 103.72 116.38C103.72 116.38 120.78 114.19 125.94 104.18C125.94 104.18 117.51 119.68 103.8 122.95C103.8 122.95 89.1301 118.49 85.3101 105.81C85.3101 105.81 89.0001 97.91 94.6601 93.54V93.55Z" fill="url(#paint14_linear_12_2976)"/>
<path style="mix-blend-mode:multiply" opacity="0.3" fill-rule="evenodd" clip-rule="evenodd" d="M100.37 100.84V105.82C100.37 105.82 103.43 108.06 107.15 108.25C110.86 108.45 113.37 104.63 113.37 104.63C113.37 104.63 113.47 111.15 104.97 111.71C104.97 111.71 99.9 109.28 97.63 105.99C97.63 105.99 98.87 102.82 100.38 100.83L100.37 100.84Z" fill="url(#paint15_linear_12_2976)"/>
<path style="mix-blend-mode:multiply" opacity="0.3" fill-rule="evenodd" clip-rule="evenodd" d="M77.99 115.72C77.99 115.72 85.95 131.89 88.66 133.81C91.37 135.73 102.93 132.26 102.93 132.26C102.93 132.26 89.33 141.88 87.96 141.23C86.59 140.58 78.63 119.39 78 115.72H77.99Z" fill="url(#paint16_linear_12_2976)"/>
<path style="mix-blend-mode:multiply" opacity="0.3" fill-rule="evenodd" clip-rule="evenodd" d="M72.5 100.84C72.5 100.84 80.51 98.43 85.79 93.55C91.07 88.67 94.54 83.21 94.54 83.21C94.54 83.21 89.55 102.14 70.77 103.58L72.5 100.83V100.84Z" fill="url(#paint17_linear_12_2976)"/>
<path style="mix-blend-mode:multiply" opacity="0.3" fill-rule="evenodd" clip-rule="evenodd" d="M129.5 107.33C129.5 107.33 142.71 116.96 149.63 117.58C156.56 118.2 167.11 105.32 167.11 105.32C167.11 105.32 164.5 119.25 149.53 121.82C149.53 121.82 138.8 121.25 129.5 107.33Z" fill="url(#paint18_linear_12_2976)"/>
<path style="mix-blend-mode:multiply" opacity="0.3" fill-rule="evenodd" clip-rule="evenodd" d="M152.77 100.66L151.95 104.64C151.95 104.64 148.84 108.32 139.67 104.64L140.15 107.33C140.15 107.33 146.48 111.25 148.31 111.48C150.14 111.71 155.61 105.32 155.61 105.32L152.76 100.66H152.77Z" fill="url(#paint19_linear_12_2976)"/>
<path style="mix-blend-mode:multiply" opacity="0.3" fill-rule="evenodd" clip-rule="evenodd" d="M103.75 131.94C103.75 131.94 108.74 129.83 112.33 130.06C115.92 130.3 125.94 128.87 125.94 128.87L135.64 130.4C135.64 130.4 145.44 130.69 150.71 131.63C155.97 132.57 161.62 134.07 163.04 133.8C164.46 133.53 173.43 117.57 173.43 117.57C173.43 117.57 166.3 140.17 162.87 141.26C162.87 141.26 150.81 132.63 145.81 131.64C140.81 130.65 126.48 133.81 126.48 133.81L120.98 133.42C120.98 133.42 111.68 131.03 103.76 131.95L103.75 131.94Z" fill="url(#paint20_linear_12_2976)"/>
<path style="mix-blend-mode:multiply" opacity="0.3" fill-rule="evenodd" clip-rule="evenodd" d="M110.31 84.53C110.31 84.53 116 89.8 120.98 89.8C125.96 89.8 126.48 85.5 126.48 85.5L127.94 84.94C127.94 84.94 127.55 90.12 131.7 89.8C135.84 89.48 143.83 83.37 143.83 83.37C143.83 83.37 135.32 93.95 126.78 94.34C118.23 94.74 110.31 84.53 110.31 84.53Z" fill="url(#paint21_linear_12_2976)"/>
<path fill-rule="evenodd" clip-rule="evenodd" d="M120.98 79.42L125.96 84.54L125.93 117.46L126.11 145.44L126.78 122.24L127.94 84.94L132.58 79.53L120.98 79.42Z" fill="#F47F81"/>
<path fill-rule="evenodd" clip-rule="evenodd" d="M125.94 104.19C125.94 104.19 117.35 118.66 103.6 122.01C103.6 122.01 88.5301 116.39 86.0201 105.51C86.0201 105.51 90.0301 91.94 104.01 89.67C104.01 89.67 112.62 94.81 112.2 107.34C112.2 107.34 109.57 110.3 104.31 110.66C104.31 110.66 99.5301 108.63 98.3301 104.68L100.36 100.85L92.8301 108.14L97.3701 107.34C97.3701 107.34 102.51 111.97 105.02 113.17C105.02 113.17 113.63 109.7 114.94 106.24C114.94 106.24 110.28 92.01 103.82 87.95C103.82 87.95 92.2201 90.22 83.9701 105.77C83.9701 105.77 87.2001 118.24 103.94 124.1C103.94 124.1 114.32 119.32 120.12 113.18C120.12 113.18 123.91 110.87 125.92 111.03V104.21L125.94 104.19Z" fill="#F47F81"/>
<path fill-rule="evenodd" clip-rule="evenodd" d="M126.66 130.31L121.97 132.82C121.97 132.82 108.53 131.22 104.97 131.64C101.41 132.06 90.73 139.37 88.5 140.18C86.27 140.99 78.66 114.4 76.86 114.04C75.06 113.68 70.68 123.38 71.2 131.64C71.72 139.91 79.45 143.81 80.17 143.46C80.89 143.1 80.4101 135.13 79.4501 131.64C78.4901 128.16 75.3301 126.24 75.3301 126.24C75.3301 126.24 74.1201 131.1 75.3301 133.89C75.3301 133.89 75.2401 130.02 76.0601 128.75C76.0601 128.75 78.13 129.98 78.93 133.81C79.73 137.64 79.01 141.78 79.01 141.78C79.01 141.78 72.9401 138.57 72.0801 132.29C71.2101 126.01 73.89 118.03 75.34 117.37C76.79 116.71 85.32 140.94 88.66 143.47C88.66 143.47 97.6101 134.04 104.97 132.53C112.33 131.02 124.81 134.36 126.02 136.04L126.66 130.3V130.31Z" fill="#F47F81"/>
<path fill-rule="evenodd" clip-rule="evenodd" d="M72.5 99.01V103.11C72.5 103.11 78.85 101.83 85.23 96.57C91.61 91.31 92.01 85.01 92.01 85.01H89.11L96.81 82.46C96.81 82.46 89.71 101.14 70.37 104.64L72.5 99.01Z" fill="#F47F81"/>
<path fill-rule="evenodd" clip-rule="evenodd" d="M106.33 80.59C106.33 80.59 113.98 92.35 125.95 95.82L126.66 91.87L123.57 93.55C123.57 93.55 111.55 88.62 107.43 80.44L106.34 80.59H106.33Z" fill="#F47F81"/>
<path fill-rule="evenodd" clip-rule="evenodd" d="M78.8401 153.69C78.8401 153.69 81.5501 145.28 83.5901 143.68C85.6301 142.09 95.1901 159.14 96.8101 166.8C98.4301 174.45 91.9501 169.83 91.9501 169.83L89.9501 168.22C89.9501 168.22 93.1701 170.48 95.1201 169.84C97.0701 169.2 88.0101 145.75 84.7201 145.45C81.4301 145.15 79.4101 154.72 79.4101 154.72L78.8401 153.7V153.69Z" fill="#F47F81"/>
<path fill-rule="evenodd" clip-rule="evenodd" d="M85.71 163.88C85.71 163.88 88.12 164.15 88.47 163.25C88.83 162.35 86.26 157.39 86.26 157.39L84.41 157.03L86.98 152.6L86.92 156.97C86.92 156.97 89.37 161.87 89.19 163.49C89.01 165.1 86.8 165.12 86.8 165.12L85.71 163.88Z" fill="#F47F81"/>
<path fill-rule="evenodd" clip-rule="evenodd" d="M127.2 104.01C127.2 104.01 135.79 118.48 149.54 121.83C149.54 121.83 164.61 116.21 167.12 105.33C167.12 105.33 163.11 91.76 149.13 89.49C149.13 89.49 140.52 94.63 140.94 107.16C140.94 107.16 143.57 110.12 148.83 110.48C148.83 110.48 153.61 108.45 154.81 104.5L152.78 100.67L160.31 107.96L155.77 107.16C155.77 107.16 150.63 111.79 148.12 112.99C148.12 112.99 139.51 109.52 138.2 106.06C138.2 106.06 142.86 91.83 149.32 87.77C149.32 87.77 160.92 90.04 169.17 105.59C169.17 105.59 165.94 118.06 149.2 123.92C149.2 123.92 138.82 119.14 133.02 113C133.02 113 129.23 110.69 127.22 110.85V104.03L127.2 104.01Z" fill="#F47F81"/>
<path fill-rule="evenodd" clip-rule="evenodd" d="M125.94 130.31L130.43 132.82C130.43 132.82 143.3 131.22 146.71 131.64C150.12 132.06 160.35 139.37 162.48 140.18C164.62 140.99 173.14 113.21 174.86 112.85C176.58 112.49 179.54 123.37 179.05 131.64C178.56 139.91 171.15 143.81 170.46 143.46C169.77 143.1 170.23 135.13 171.15 131.64C172.07 128.16 175.09 126.24 175.09 126.24C175.09 126.24 176.25 131.1 175.09 133.89C175.09 133.89 175.18 130.02 174.39 128.75C174.39 128.75 172.41 129.98 171.64 133.81C170.87 137.64 171.56 141.78 171.56 141.78C171.56 141.78 177.37 138.57 178.2 132.29C179.03 126.01 177.08 116.8 175.69 116.15C174.3 115.49 165.53 140.94 162.32 143.47C162.32 143.47 153.75 134.04 146.7 132.53C139.65 131.02 127.39 134.39 126.23 136.07L125.93 130.3L125.94 130.31Z" fill="#F47F81"/>
<path fill-rule="evenodd" clip-rule="evenodd" d="M177.89 98.02V102.12C177.89 102.12 174.29 101.66 167.91 96.39C161.53 91.13 160.52 86.01 160.52 86.01L162.25 85.43L156.34 83.36C156.34 83.36 160.69 100.15 180.02 103.64L177.89 98.01V98.02Z" fill="#F47F81"/>
<path fill-rule="evenodd" clip-rule="evenodd" d="M146.55 81.14C146.55 81.14 139.15 92.17 127.18 95.64L126.47 91.69L129.56 93.37C129.56 93.37 141.21 89.12 145.34 80.94L146.55 81.14Z" fill="#F47F81"/>
<path fill-rule="evenodd" clip-rule="evenodd" d="M172.23 153.51C172.23 153.51 169.82 145.1 168.02 143.5C166.21 141.91 157.74 158.96 156.3 166.62C154.86 174.27 160.61 169.65 160.61 169.65L162.38 168.04C162.38 168.04 159.52 170.3 157.8 169.66C156.08 169.02 164.11 145.57 167.02 145.27C169.93 144.97 171.73 154.54 171.73 154.54L172.23 153.52V153.51Z" fill="#F47F81"/>
<path fill-rule="evenodd" clip-rule="evenodd" d="M166.14 163.7C166.14 163.7 164.01 163.97 163.69 163.07C163.37 162.17 165.65 157.21 165.65 157.21L167.29 156.85L165.01 152.42L165.06 156.79C165.06 156.79 162.89 161.69 163.05 163.31C163.21 164.92 165.17 164.94 165.17 164.94L166.14 163.7Z" fill="#F47F81"/>
<path style="mix-blend-mode:multiply" opacity="0.5" fill-rule="evenodd" clip-rule="evenodd" d="M173.75 136.18C171.66 136.69 171.29 133.72 171.29 133.72L170.18 135.23C168.38 141.96 160.54 155.44 160.54 155.44C160.54 155.44 154.22 145 147.57 144.04C140.93 143.08 133.45 148.11 132.66 152.06C132.66 152.06 143.75 151.62 154.66 156C154.66 156 154.76 156.04 154.92 156.1C152.53 157.38 148.17 158.16 148.17 158.16C148.17 158.16 146.01 154.38 142.41 154.06C138.81 153.73 132.65 159.93 125.22 159.97C117.79 160.01 114.01 157.36 109.54 156.57C105.08 155.78 101.98 159.16 101.98 159.16C100.16 158.81 98.77 157.81 97.89 156.99C108.79 152.61 119.62 152.36 119.62 152.36C118.82 148.41 111.62 144.07 104.97 145.03C98.33 145.99 92.01 145.42 92 145.43C90.4 145.31 88.58 144.82 86.81 143.57C82.01 140.19 80.51 136.4 80.51 136.4C80.51 136.4 80.44 138.6 79.33 138.55C78.22 138.51 73.04 133.58 73.04 133.58C71.89 133.73 71.17 131.96 71.17 131.96L70.78 132.14C74.48 148.5 83.33 164.53 93.71 171.01C104.14 177.52 140.48 177.52 158.02 170.46C168.45 166.25 176.11 147.64 179.2 129.8C177.49 133.84 173.77 136.17 173.77 136.17L173.75 136.18Z" fill="url(#paint22_linear_12_2976)"/>
<path fill-rule="evenodd" clip-rule="evenodd" d="M120.51 112.94L126.48 104.64C126.48 104.64 131.18 109.67 132.58 112.43C132.58 112.43 128.14 109.95 126.48 110.03C124.83 110.11 120.51 112.94 120.51 112.94Z" fill="#CE5870"/>
<path fill-rule="evenodd" clip-rule="evenodd" d="M120.98 133.41L126.48 134.96L129.5 133.41C129.5 133.41 127.74 132.23 126.04 132.22C124.34 132.22 120.97 133.41 120.97 133.41H120.98Z" fill="#CE5870"/>
<path fill-rule="evenodd" clip-rule="evenodd" d="M97.0701 118.68C97.0701 118.68 102.73 122.3 104.29 121.82C105.85 121.34 111.88 118.46 111.88 118.46C111.88 118.46 105.5 124.08 103.96 124.08C102.57 124.08 97.0701 118.69 97.0701 118.69V118.68Z" fill="#CE5870"/>
<path fill-rule="evenodd" clip-rule="evenodd" d="M98.3401 104.66L98.9101 107.51L97.3801 107.33L92.8401 108.13L100.37 100.84L98.3401 104.66Z" fill="#CE5870"/>
<path fill-rule="evenodd" clip-rule="evenodd" d="M166.1 102.8L167.12 105.32C167.12 105.32 166.26 108.88 164.38 111.14C164.38 111.14 168.76 107.29 169.16 105.56L166.11 102.8H166.1Z" fill="#CE5870"/>
<path fill-rule="evenodd" clip-rule="evenodd" d="M152.77 100.66L154.8 104.49L153.78 108.14L155.75 107.16L160.29 107.96C160.29 107.96 154.69 102.58 152.76 100.67L152.77 100.66Z" fill="#CE5870"/>
<path fill-rule="evenodd" clip-rule="evenodd" d="M156.07 136.37C156.07 136.37 162.57 140.53 163.04 139.92C163.51 139.31 165.66 134.96 165.66 134.96C165.66 134.96 164.91 140.3 162.33 143.47C162.33 143.47 157.84 137.45 156.07 136.36V136.37Z" fill="#CE5870"/>
<path fill-rule="evenodd" clip-rule="evenodd" d="M85.3401 134.97C85.3401 134.97 87.6901 140.55 88.4901 140.18C89.2901 139.81 93.7601 137.23 93.7601 137.23C93.7601 137.23 89.2801 144.13 88.6501 143.49C88.0301 142.85 85.5301 138.13 85.3401 134.98V134.97Z" fill="#CE5870"/>
<path fill-rule="evenodd" clip-rule="evenodd" d="M165.01 152.43L165.07 156.79L164.37 158.86L165.65 157.21L167.29 156.85L165.01 152.43Z" fill="#CE5870"/>
<path fill-rule="evenodd" clip-rule="evenodd" d="M84.41 157.03L86.98 152.61L86.92 156.97L87.46 158.11L86.26 157.39L84.41 157.03Z" fill="#CE5870"/>
<path fill-rule="evenodd" clip-rule="evenodd" d="M89.9401 168.21C89.9401 168.21 93.9901 170.94 95.1101 169.83C96.2301 168.71 94.0301 163.21 94.0301 163.21C94.0301 163.21 97.3001 168.68 96.6201 170.42C95.9401 172.16 92.6301 170.42 92.6301 170.42L89.9301 168.21H89.9401Z" fill="#CE5870"/>
<path fill-rule="evenodd" clip-rule="evenodd" d="M171.29 137.72C171.29 137.72 171.15 141.76 171.57 141.79C171.99 141.82 174.39 139.59 174.39 139.59C174.39 139.59 171.83 143.82 170.46 143.47C170.46 143.47 170.34 140.3 171.29 137.73V137.72Z" fill="#CE5870"/>
<path fill-rule="evenodd" clip-rule="evenodd" d="M122.63 94.19L127.07 92.89L131.31 94.08L127.19 95.64L126.78 96.77L125.95 95.82L122.63 94.19Z" fill="#CE5870"/>
<path fill-rule="evenodd" clip-rule="evenodd" d="M144.04 120.27C144.04 120.27 148.38 121.76 149.93 121.82C151.48 121.88 157.04 118.46 157.04 118.46C157.04 118.46 151.05 124.18 149.17 123.9C147.29 123.62 144.03 120.28 144.03 120.28L144.04 120.27Z" fill="#CE5870"/>
<path fill-rule="evenodd" clip-rule="evenodd" d="M145.75 99.66C145.75 99.66 150.55 97.79 149.35 93.88C149.35 93.88 146.06 95.24 145.75 99.66Z" fill="white"/>
<path fill-rule="evenodd" clip-rule="evenodd" d="M106.33 96.77C106.33 96.77 105.55 102.66 109.46 103.65C109.46 103.65 111.46 99.64 106.33 96.77Z" fill="white"/>
<path fill-rule="evenodd" clip-rule="evenodd" d="M111.88 81.97C111.88 81.97 118.64 84.16 122.63 81.97C122.63 81.97 117.47 78.54 111.88 81.97Z" fill="white"/>
<path fill-rule="evenodd" clip-rule="evenodd" d="M131.31 82.94C131.31 82.94 137.36 84.42 142.3 81.69C142.3 81.69 135.3 79.27 131.31 82.94Z" fill="white"/>
<path fill-rule="evenodd" clip-rule="evenodd" d="M165.26 88.86C165.26 88.86 165.83 92.31 168.18 92.89C170.53 93.47 171.4 92.43 171.4 92.43C171.4 92.43 170.04 88.72 165.26 88.86Z" fill="white"/>
<path fill-rule="evenodd" clip-rule="evenodd" d="M81.8 90.45C81.8 90.45 85.0801 91.67 86.7401 89.92C88.4101 88.17 87.94 86.9 87.94 86.9C87.94 86.9 84.05 86.24 81.8 90.46V90.45Z" fill="white"/>
<g style="mix-blend-mode:soft-light">
<path fill-rule="evenodd" clip-rule="evenodd" d="M159.4 131.36C159.4 131.36 162.59 132.54 164.21 130.84C165.83 129.14 165.38 127.9 165.38 127.9C165.38 127.9 161.6 127.25 159.41 131.36H159.4Z" fill="white"/>
</g>
<g style="mix-blend-mode:soft-light">
<path fill-rule="evenodd" clip-rule="evenodd" d="M140.51 136.15C140.51 136.15 142.17 137.2 143.29 136.44C144.41 135.67 144.31 134.92 144.31 134.92C144.31 134.92 142.25 134.1 140.51 136.16V136.15Z" fill="white"/>
</g>
<g style="mix-blend-mode:soft-light">
<path fill-rule="evenodd" clip-rule="evenodd" d="M130.68 164.61C130.68 164.61 132.34 165.66 133.46 164.9C134.58 164.13 134.48 163.38 134.48 163.38C134.48 163.38 132.42 162.56 130.68 164.62V164.61Z" fill="white"/>
</g>
<g style="mix-blend-mode:soft-light">
<path fill-rule="evenodd" clip-rule="evenodd" d="M106.44 133.64C106.44 133.64 107.65 136.6 109.85 136.64C112.06 136.68 112.63 135.58 112.63 135.58C112.63 135.58 110.67 132.55 106.44 133.64Z" fill="white"/>
</g>
<g style="mix-blend-mode:soft-light" opacity="0.7">
<path fill-rule="evenodd" clip-rule="evenodd" d="M150.55 93.06V94.35C150.55 94.35 156.22 94.82 158.11 96.77C160 98.72 161.18 103.93 162.42 105.15C162.42 105.15 162.91 102.25 161.47 99.66C160.03 97.07 159.6 97.63 158.1 96.43C156.61 95.23 153.58 92.87 150.54 93.06H150.55Z" fill="white"/>
</g>
<g style="mix-blend-mode:soft-light" opacity="0.7">
<path fill-rule="evenodd" clip-rule="evenodd" d="M159.52 108.84C158.09 109.05 154.94 110.49 155.18 112.94C155.18 112.94 158.17 112.05 158.89 110.89C159.61 109.73 159.53 108.84 159.53 108.84H159.52Z" fill="white"/>
</g>
<g style="mix-blend-mode:soft-light" opacity="0.7">
<path fill-rule="evenodd" clip-rule="evenodd" d="M131.31 101.68C131.31 101.68 131.16 97.85 133.19 95.64C135.22 93.43 139.95 91.52 141.08 90.5C142.21 89.48 142.81 86.79 144.25 86.14C145.68 85.48 146.55 86.14 146.55 86.14C146.55 86.14 144.78 88.01 143.83 88.87C142.88 89.73 141.88 90.17 141.05 90.86C140.22 91.55 138.61 94.51 136.81 96.98C135.01 99.45 131.31 101.69 131.31 101.69V101.68Z" fill="white"/>
</g>
<g style="mix-blend-mode:soft-light" opacity="0.7">
<path fill-rule="evenodd" clip-rule="evenodd" d="M106.74 128.75C106.74 128.75 108.56 126.8 111.88 126.96C115.2 127.12 118.23 120.04 122.63 119.15C122.63 119.15 120.98 125.33 118.15 126.52C115.32 127.72 113.44 126.9 111.88 127.12C110.32 127.34 110.38 128.42 109.3 128.75C108.22 129.09 106.74 128.75 106.74 128.75Z" fill="white"/>
</g>
<g style="mix-blend-mode:soft-light" opacity="0.7">
<path fill-rule="evenodd" clip-rule="evenodd" d="M112.63 93.76C112.63 93.76 115.08 101.05 120.51 101.68C120.51 101.68 118.51 95.55 112.63 93.76Z" fill="white"/>
</g>
<g style="mix-blend-mode:soft-light" opacity="0.7">
<path fill-rule="evenodd" clip-rule="evenodd" d="M80.92 114.02C80.92 114.02 83.37 115.31 84.9 119.7C86.42 124.08 85.48 126.85 90.46 129.41C95.44 131.97 100.94 129.98 100.94 129.98C100.94 129.98 97.51 129.03 95.76 129.41C94.01 129.78 93.92 130.26 93.02 130.02C92.13 129.78 93.01 126.31 90.93 124.64C88.86 122.97 86.88 122.9 85.83 121.13C84.78 119.36 84.7 116.91 83.59 115.47C82.48 114.04 80.93 114.02 80.93 114.02H80.92Z" fill="white"/>
</g>
<g style="mix-blend-mode:soft-light" opacity="0.7">
<path fill-rule="evenodd" clip-rule="evenodd" d="M145 144C147.17 143.71 151.25 144.78 151.67 146.45C151.67 146.45 149.84 147.05 147.64 146.15C145.45 145.25 145 144 145 144Z" fill="white"/>
</g>
<g style="mix-blend-mode:soft-light" opacity="0.7">
<path fill-rule="evenodd" clip-rule="evenodd" d="M90.9301 103.23C90.9301 103.23 92.4201 98.27 96.0101 96.77C99.6001 95.28 101.09 94.44 102.29 92.88C103.49 91.33 105.63 95.27 105.63 95.27C105.63 95.27 104.83 94.4 102.85 94.34C100.87 94.29 97.6201 96.27 97.0201 97.39C96.4201 98.51 94.3601 102.9 90.9301 103.22V103.23Z" fill="white"/>
</g>
<g style="mix-blend-mode:soft-light" opacity="0.7">
<path fill-rule="evenodd" clip-rule="evenodd" d="M97.6201 86.86C97.6201 86.86 100.81 83.94 102.8 83.66C104.79 83.38 108.27 85.5 109.84 88.13C109.84 88.13 108.1 87.49 105.49 86.33C102.88 85.17 102.44 84.82 101.68 84.86C100.92 84.9 97.6101 86.86 97.6101 86.86H97.6201Z" fill="white"/>
</g>
<g style="mix-blend-mode:soft-light" opacity="0.7">
<path fill-rule="evenodd" clip-rule="evenodd" d="M80.92 154.94C80.92 154.94 80.46 150.51 82.2 149.59C82.2 149.59 83.59 153.27 80.92 154.94Z" fill="white"/>
</g>
<path fill-rule="evenodd" clip-rule="evenodd" d="M134.09 151.04C134.09 151.04 136.44 148.63 139.23 148.15C142.02 147.67 152.06 150 155.91 154.07C155.91 154.07 147.12 150.28 141.02 150.29C136.36 150.29 134.09 151.04 134.09 151.04Z" fill="#37193E"/>
<path fill-rule="evenodd" clip-rule="evenodd" d="M117.55 151.04C117.55 151.04 115.2 148.63 112.41 148.15C109.62 147.67 98.9601 150 95.1101 154.07C95.1101 154.07 104.52 150.28 110.62 150.29C115.28 150.29 117.55 151.04 117.55 151.04Z" fill="#37193E"/>
<path fill-rule="evenodd" clip-rule="evenodd" d="M109.53 157.39C109.53 157.39 113.89 161.7 125.24 161.7C136.59 161.7 142.41 155.64 142.41 155.64C142.41 155.64 138.25 163.65 125.95 163.65C113.65 163.65 109.54 157.39 109.54 157.39H109.53Z" fill="url(#paint23_linear_12_2976)"/>
<path fill-rule="evenodd" clip-rule="evenodd" d="M156.59 178.57C156.54 181.22 153.19 184.48 147.51 187.27C143.8 189.1 139.11 190.72 133.69 191.84C133.33 191.92 132.95 192 132.58 192.07C126.71 193.19 123.07 194.27 120.67 195.12C117.56 196.23 116.54 196.96 115.51 196.94C113.67 196.9 111.26 195.4 111.26 195.4C111.26 195.4 111.74 194.33 112.72 192.75C114.09 190.5 116.47 187.21 119.88 184.44C121.38 183.22 123.08 182.11 124.98 181.24C124.98 181.24 128.01 181.7 130.17 185.65C130.17 185.65 140.09 184.67 145 182.18C145.68 181.84 146.26 181.46 146.71 181.06C148.5 179.45 148.03 178.51 147.06 177.97C146.05 177.4 144.49 177.27 144.49 177.27C144.49 177.27 143.65 171.67 150.62 172.79C150.62 172.79 153.35 173.37 155.12 175.12C155.98 175.96 156.62 177.09 156.59 178.57Z" fill="url(#paint24_linear_12_2976)"/>
<path fill-rule="evenodd" clip-rule="evenodd" d="M147.51 187.27C143.55 189.22 138.47 190.94 132.58 192.07C119.1 194.65 117.34 196.98 115.51 196.94C113.67 196.9 111.26 195.4 111.26 195.4C111.26 195.4 115.73 185.49 124.98 181.24C124.98 181.24 128.01 181.7 130.17 185.65C130.17 185.65 140.09 184.67 145 182.18C145 182.18 147.55 182.73 147.51 187.27Z" fill="url(#paint25_linear_12_2976)"/>
<path fill-rule="evenodd" clip-rule="evenodd" d="M134.09 196.44C133.59 197.29 128.78 197.19 120.67 195.12C118.55 194.58 116.2 193.9 113.65 193.07C113.34 192.97 113.03 192.86 112.72 192.75C108.49 191.31 104.75 189.55 101.67 187.77L101.53 187.69C100.4 187.03 99.36 186.38 98.43 185.74C94.85 183.3 92.71 181.08 92.46 179.94C92.12 178.36 95.05 175.71 96.93 174.2C97.79 173.51 98.43 173.06 98.43 173.06C98.43 173.06 103.15 169.44 105.99 174.72C105.99 174.72 103.89 175.56 102.28 176.64C101.26 177.31 100.44 178.09 100.46 178.82C100.49 179.43 101.02 180.28 101.99 181.18C103.99 183.06 107.81 185.21 112.65 186.13C112.65 186.13 115.46 183.76 118.09 183.38C118.09 183.38 118.86 183.84 119.88 184.44C120.8 184.98 121.92 185.63 122.84 186.13C124.78 187.2 128.72 187.82 131.4 189.01C132.48 189.49 133.23 190.6 133.69 191.84C134.39 193.69 134.47 195.81 134.09 196.44Z" fill="url(#paint26_linear_12_2976)"/>
<path fill-rule="evenodd" clip-rule="evenodd" d="M118.09 183.38L119.25 182.82C119.25 182.82 122.52 185.65 125.28 186.76C128.04 187.87 131.44 187.42 133.93 189.32C136.42 191.23 135.25 196.41 135.25 196.41C135.25 196.41 134.84 196.95 132.57 196.91C130.3 196.87 118.09 183.38 118.09 183.38Z" fill="url(#paint27_linear_12_2976)"/>
<path fill-rule="evenodd" clip-rule="evenodd" d="M134.09 196.44C133.46 197.51 125.96 197.07 113.65 193.07C109.04 191.57 104.97 189.68 101.67 187.77L101.53 187.69L98.4301 185.74C99.3501 181 101.77 181.16 101.99 181.18C103.99 183.06 107.81 185.21 112.65 186.13C112.65 186.13 115.46 183.76 118.09 183.38C118.09 183.38 120.9 185.07 122.84 186.13C124.78 187.2 128.72 187.82 131.4 189.01C134.09 190.2 134.72 195.38 134.09 196.44Z" fill="url(#paint28_linear_12_2976)"/>
<g style="mix-blend-mode:multiply">
<path fill-rule="evenodd" clip-rule="evenodd" d="M105.99 174.72C105.99 174.72 103.89 175.56 102.28 176.64C100.6 175.03 98.6501 174.39 96.9301 174.2C97.7901 173.51 98.4301 173.06 98.4301 173.06C98.4301 173.06 103.15 169.44 105.99 174.72Z" fill="#5E364C"/>
</g>
<g style="mix-blend-mode:multiply">
<path fill-rule="evenodd" clip-rule="evenodd" d="M155.12 175.12C151.68 175.67 148.51 177.19 147.06 177.97C146.05 177.4 144.49 177.27 144.49 177.27C144.49 177.27 143.65 171.67 150.62 172.79C150.62 172.79 153.35 173.37 155.12 175.12Z" fill="#5E364C"/>
</g>
</g>
<defs>
<linearGradient id="paint0_linear_12_2976" x1="51.5464" y1="230.67" x2="207.474" y2="-2.20987e-06" gradientUnits="userSpaceOnUse">
<stop stop-color="#28A352"/>
<stop offset="1" stop-color="#B2DB34"/>
</linearGradient>
<linearGradient id="paint1_linear_12_2976" x1="131.67" y1="116.32" x2="121.37" y2="23.51" gradientUnits="userSpaceOnUse">
<stop offset="0.02" stop-color="#C2DBF0"/>
<stop offset="1" stop-color="#FFE6D6"/>
</linearGradient>
<linearGradient id="paint2_linear_12_2976" x1="137.162" y1="120.791" x2="162.336" y2="34.8867" gradientUnits="userSpaceOnUse">
<stop offset="0.02" stop-color="#C2DBF0"/>
<stop offset="1" stop-color="#FFE6D6"/>
</linearGradient>
<linearGradient id="paint3_linear_12_2976" x1="135.456" y1="126.979" x2="192.982" y2="64.359" gradientUnits="userSpaceOnUse">
<stop offset="0.02" stop-color="#C2DBF0"/>
<stop offset="1" stop-color="#FFE6D6"/>
</linearGradient>
<linearGradient id="paint4_linear_12_2976" x1="116.847" y1="127.122" x2="59.3215" y2="64.5021" gradientUnits="userSpaceOnUse">
<stop offset="0.02" stop-color="#C2DBF0"/>
<stop offset="1" stop-color="#FFE6D6"/>
</linearGradient>
<linearGradient id="paint5_linear_12_2976" x1="125.875" y1="117.166" x2="77.3132" y2="38.1972" gradientUnits="userSpaceOnUse">
<stop offset="0.02" stop-color="#C2DBF0"/>
<stop offset="1" stop-color="#FFE6D6"/>
</linearGradient>
<linearGradient id="paint6_linear_12_2976" x1="125.42" y1="207.65" x2="120.84" y2="166.47" gradientUnits="userSpaceOnUse">
<stop offset="0.02" stop-color="#C2DBF0"/>
<stop offset="1" stop-color="#FFE6D6"/>
</linearGradient>
<linearGradient id="paint7_linear_12_2976" x1="172.23" y1="145.52" x2="213.22" y2="145.52" gradientUnits="userSpaceOnUse">
<stop stop-color="#684A72"/>
<stop offset="0.99" stop-color="#46255E"/>
</linearGradient>
<linearGradient id="paint8_linear_12_2976" x1="199.6" y1="160.17" x2="199.6" y2="129.79" gradientUnits="userSpaceOnUse">
<stop offset="0.02" stop-color="#FFA993"/>
<stop offset="1" stop-color="#FFCFA9"/>
</linearGradient>
<linearGradient id="paint9_linear_12_2976" x1="77.9901" y1="23" x2="37" y2="23" gradientUnits="userSpaceOnUse">
<stop stop-color="#684A72"/>
<stop offset="0.99" stop-color="#46255E"/>
</linearGradient>
<linearGradient id="paint10_linear_12_2976" x1="50.62" y1="160.17" x2="50.62" y2="129.95" gradientUnits="userSpaceOnUse">
<stop offset="0.02" stop-color="#FFA993"/>
<stop offset="1" stop-color="#FFCFA9"/>
</linearGradient>
<linearGradient id="paint11_linear_12_2976" x1="109.53" y1="187.95" x2="124.98" y2="187.95" gradientUnits="userSpaceOnUse">
<stop stop-color="#9B1A43"/>
<stop offset="1" stop-color="#731653"/>
</linearGradient>
<linearGradient id="paint12_linear_12_2976" x1="98.4301" y1="175.98" x2="155.3" y2="175.98" gradientUnits="userSpaceOnUse">
<stop offset="0.02" stop-color="#FF4748"/>
<stop offset="1" stop-color="#B54263"/>
</linearGradient>
<linearGradient id="paint13_linear_12_2976" x1="131.55" y1="175.69" x2="120.81" y2="78.94" gradientUnits="userSpaceOnUse">
<stop offset="0.02" stop-color="#FF8E89"/>
<stop offset="1" stop-color="#FFB388"/>
</linearGradient>
<linearGradient id="paint14_linear_12_2976" x1="105.63" y1="122.96" x2="105.63" y2="93.55" gradientUnits="userSpaceOnUse">
<stop offset="0.02" stop-color="#E08893"/>
<stop offset="0.33" stop-color="#ECB9BF"/>
<stop offset="0.62" stop-color="#F6DFE2"/>
<stop offset="0.85" stop-color="#FCF6F7"/>
<stop offset="1" stop-color="white"/>
</linearGradient>
<linearGradient id="paint15_linear_12_2976" x1="105.49" y1="111.72" x2="105.49" y2="100.84" gradientUnits="userSpaceOnUse">
<stop offset="0.02" stop-color="#E08893"/>
<stop offset="1" stop-color="#FFD1C7"/>
</linearGradient>
<linearGradient id="paint16_linear_12_2976" x1="90.46" y1="141.26" x2="90.46" y2="115.72" gradientUnits="userSpaceOnUse">
<stop offset="0.02" stop-color="#E08893"/>
<stop offset="1" stop-color="white"/>
</linearGradient>
<linearGradient id="paint17_linear_12_2976" x1="82.65" y1="103.58" x2="82.65" y2="83.21" gradientUnits="userSpaceOnUse">
<stop offset="0.02" stop-color="#E08893"/>
<stop offset="1" stop-color="#FFD1C7"/>
</linearGradient>
<linearGradient id="paint18_linear_12_2976" x1="148.31" y1="121.82" x2="148.31" y2="105.32" gradientUnits="userSpaceOnUse">
<stop offset="0.02" stop-color="#E08893"/>
<stop offset="0.33" stop-color="#ECB9BF"/>
<stop offset="0.62" stop-color="#F6DFE2"/>
<stop offset="0.85" stop-color="#FCF6F7"/>
<stop offset="1" stop-color="white"/>
</linearGradient>
<linearGradient id="paint19_linear_12_2976" x1="147.64" y1="111.49" x2="147.64" y2="100.66" gradientUnits="userSpaceOnUse">
<stop offset="0.02" stop-color="#E08893"/>
<stop offset="0.33" stop-color="#ECB9BF"/>
<stop offset="0.62" stop-color="#F6DFE2"/>
<stop offset="0.85" stop-color="#FCF6F7"/>
<stop offset="1" stop-color="white"/>
</linearGradient>
<linearGradient id="paint20_linear_12_2976" x1="138.59" y1="141.26" x2="138.59" y2="117.57" gradientUnits="userSpaceOnUse">
<stop offset="0.02" stop-color="#E08893"/>
<stop offset="1" stop-color="white"/>
</linearGradient>
<linearGradient id="paint21_linear_12_2976" x1="127.07" y1="94.35" x2="127.07" y2="83.37" gradientUnits="userSpaceOnUse">
<stop offset="0.02" stop-color="#E08893"/>
<stop offset="0.33" stop-color="#ECB9BF"/>
<stop offset="0.62" stop-color="#F6DFE2"/>
<stop offset="0.85" stop-color="#FCF6F7"/>
<stop offset="1" stop-color="white"/>
</linearGradient>
<linearGradient id="paint22_linear_12_2976" x1="124.98" y1="175.84" x2="124.98" y2="129.81" gradientUnits="userSpaceOnUse">
<stop offset="0.02" stop-color="#E08893"/>
<stop offset="1" stop-color="#FFD1C7"/>
</linearGradient>
<linearGradient id="paint23_linear_12_2976" x1="125.97" y1="163.66" x2="125.97" y2="155.65" gradientUnits="userSpaceOnUse">
<stop stop-color="#9B1A43"/>
<stop offset="1" stop-color="#731653"/>
</linearGradient>
<linearGradient id="paint24_linear_12_2976" x1="133.92" y1="196.95" x2="133.92" y2="172.65" gradientUnits="userSpaceOnUse">
<stop stop-color="#684A72"/>
<stop offset="0.99" stop-color="#46255E"/>
</linearGradient>
<linearGradient id="paint25_linear_12_2976" x1="114.23" y1="199.6" x2="143.42" y2="178.95" gradientUnits="userSpaceOnUse">
<stop offset="0.02" stop-color="#FF8979"/>
<stop offset="1" stop-color="#FFAE9A"/>
</linearGradient>
<linearGradient id="paint26_linear_12_2976" x1="113.37" y1="196.95" x2="113.37" y2="171.85" gradientUnits="userSpaceOnUse">
<stop stop-color="#684A72"/>
<stop offset="0.99" stop-color="#46255E"/>
</linearGradient>
<linearGradient id="paint27_linear_12_2976" x1="118.09" y1="189.87" x2="135.52" y2="189.87" gradientUnits="userSpaceOnUse">
<stop stop-color="#9B1A43"/>
<stop offset="1" stop-color="#731653"/>
</linearGradient>
<linearGradient id="paint28_linear_12_2976" x1="116.37" y1="196.94" x2="116.37" y2="181.18" gradientUnits="userSpaceOnUse">
<stop offset="0.02" stop-color="#FFA993"/>
<stop offset="1" stop-color="#FFCFA9"/>
</linearGradient>
<clipPath id="clip0_12_2976">
<rect width="176.22" height="181.66" fill="white" transform="translate(37 23)"/>
</clipPath>
</defs>
</svg>
