<svg width="250" height="250" viewBox="0 0 250 250" fill="none" xmlns="http://www.w3.org/2000/svg">
<rect width="250" height="250" rx="63" fill="url(#paint0_linear_13_2977)"/>
<g clip-path="url(#clip0_13_2977)">
<path fill-rule="evenodd" clip-rule="evenodd" d="M128.29 145.39C124.44 150.03 121.57 155.65 119.44 161.31C119.17 162.03 118.91 162.75 118.67 163.47C114.16 176.59 113.47 189.17 113.47 189.17C104.94 190.6 91.3201 189.17 91.3201 189.17C91.5801 186.14 94.3001 182.4 94.3001 182.4C102.07 181.2 105.89 177.97 105.89 177.97C108.33 170.61 111.12 164.33 113.64 159.37C114.23 158.21 114.81 157.12 115.36 156.11C118.72 149.98 121.26 146.58 121.26 146.58L128.29 145.38V145.39Z" fill="url(#paint1_linear_13_2977)"/>
<path fill-rule="evenodd" clip-rule="evenodd" d="M118.67 163.47C114.16 176.59 113.47 189.17 113.47 189.17C104.94 190.6 91.3201 189.17 91.3201 189.17C91.5801 186.14 94.3001 182.4 94.3001 182.4C102.07 181.2 105.89 177.97 105.89 177.97C108.33 170.61 111.12 164.33 113.64 159.37C113.64 159.37 117.73 160.82 118.67 163.46V163.47Z" fill="url(#paint2_linear_13_2977)"/>
<g style="mix-blend-mode:multiply">
<path fill-rule="evenodd" clip-rule="evenodd" d="M128.29 145.39C124.44 150.03 121.57 155.65 119.44 161.31L115.36 156.12C118.72 149.99 121.26 146.59 121.26 146.59L128.29 145.39Z" fill="#5E364C"/>
</g>
<path fill-rule="evenodd" clip-rule="evenodd" d="M91.3101 189.17V191.25C91.3101 191.25 107.04 192.31 113.46 191.25V189.17C113.46 189.17 98.6101 188.86 91.3101 189.17Z" fill="url(#paint3_linear_13_2977)"/>
<path fill-rule="evenodd" clip-rule="evenodd" d="M98.72 134.9C94.67 136.32 91.14 138.13 88.06 140.14C84.86 142.23 82.15 144.52 79.88 146.83C72.24 154.59 69.42 162.53 69.26 163.02V163.04L62.16 161.2C62.47 160.45 62.81 159.72 63.19 158.99C65.96 153.51 70.26 148.4 74.76 144.01C78.94 139.95 83.31 136.52 86.78 134C90.82 131.08 93.66 129.4 93.66 129.4L98.73 134.9H98.72Z" fill="url(#paint4_linear_13_2977)"/>
<g style="mix-blend-mode:multiply">
<path fill-rule="evenodd" clip-rule="evenodd" d="M98.72 134.9C94.67 136.32 91.14 138.13 88.06 140.14L86.77 134.01C90.81 131.09 93.65 129.41 93.65 129.41L98.72 134.91V134.9Z" fill="#5E364C"/>
</g>
<path fill-rule="evenodd" clip-rule="evenodd" d="M79.8801 146.83C72.2401 154.59 69.4201 162.53 69.2601 163.02V163.04L63.1901 158.99C65.9601 153.51 70.2601 148.4 74.7601 144.01H74.7801C74.7801 144.01 78.0701 144.54 79.8801 146.82V146.83Z" fill="url(#paint5_linear_13_2977)"/>
<path fill-rule="evenodd" clip-rule="evenodd" d="M198.98 99.71C198.41 113.4 195.39 126.96 191.29 132.84C191.29 132.84 181.34 145.98 159.1 148.41L148.64 145.98C148.64 145.98 129.47 156.77 102.78 156.43C102.78 156.43 85.15 146.18 77.44 122.34C77.43 122.31 77.42 122.29 77.42 122.29C74.72 113.93 73.24 103.9 74.17 92.06C74.17 92.06 93.25 66.33 115.55 60.36C137.86 54.4 182.22 52.87 192.69 66.66C197.81 73.4 199.51 86.61 198.97 99.7L198.98 99.71Z" fill="url(#paint6_linear_13_2977)"/>
<path style="mix-blend-mode:multiply" opacity="0.3" fill-rule="evenodd" clip-rule="evenodd" d="M97.4 100.36C97.4 100.36 109.57 105.67 114.73 106.22C119.9 106.76 127.33 102.33 130.57 99.01C133.81 95.69 133.81 86.94 133.81 86.94C133.81 86.94 135.93 92.84 135.98 95.19C136.03 97.55 122.9 110.64 118.36 111.37C113.82 112.1 101.29 104.02 101.29 104.02L97.4 100.36Z" fill="url(#paint7_linear_13_2977)"/>
<path style="mix-blend-mode:multiply" opacity="0.3" fill-rule="evenodd" clip-rule="evenodd" d="M77.98 113.12C77.98 113.12 83.02 118.22 86.83 118.99C90.64 119.76 92.74 110.87 92.74 110.87C92.74 110.87 91.78 123.62 87.93 124.99C84.08 126.37 78.71 115.03 77.97 113.12H77.98Z" fill="url(#paint8_linear_13_2977)"/>
<path style="mix-blend-mode:multiply" opacity="0.3" fill-rule="evenodd" clip-rule="evenodd" d="M138.21 68.46C138.21 68.46 147.62 76.98 160.39 77.46C173.16 77.94 185.42 74.51 185.42 74.51C185.42 74.51 169.32 83.24 155.99 82.17C142.66 81.1 138.21 68.46 138.21 68.46Z" fill="url(#paint9_linear_13_2977)"/>
<path style="mix-blend-mode:multiply" opacity="0.3" fill-rule="evenodd" clip-rule="evenodd" d="M113.02 92.05C113.02 92.05 114.76 93.35 120.25 93.56C125.74 93.77 126.66 90.47 126.66 90.47C126.66 90.47 128.23 92.34 128.24 93.56C128.25 94.78 123.18 99.39 120.41 98.93C117.64 98.47 113.02 92.05 113.02 92.05Z" fill="url(#paint10_linear_13_2977)"/>
<path style="mix-blend-mode:multiply" opacity="0.3" fill-rule="evenodd" clip-rule="evenodd" d="M83.7499 104.66C83.7499 104.66 85.2599 105.99 86.8299 105.87C88.3999 105.75 88.9299 103.72 88.9299 103.72C88.9299 103.72 89.7799 106.29 89.4699 107.75C89.1599 109.21 86.3499 111.23 85.2499 110.65C84.1599 110.06 82.6899 106.22 82.6899 106.22L83.7499 104.66Z" fill="url(#paint11_linear_13_2977)"/>
<path fill-rule="evenodd" clip-rule="evenodd" d="M102.29 66.19C102.29 66.19 92.06 77.01 90.27 84.93C88.48 92.85 101.64 129.11 112.49 140.1C112.49 140.1 93.2 106.1 93.08 84.08C93.08 84.08 96.37 70.17 107.11 63.56L102.29 66.18V66.19Z" fill="#F47F81"/>
<path fill-rule="evenodd" clip-rule="evenodd" d="M124.19 58.48C124.19 58.48 113.13 69.73 106.36 74.2C99.5899 78.67 92.9499 81.84 92.9499 81.84L91.9299 88.13C91.9299 88.13 103.64 76.54 109.26 73.31C114.88 70.08 129.6 57.62 129.6 57.62L124.19 58.48Z" fill="#F47F81"/>
<path fill-rule="evenodd" clip-rule="evenodd" d="M83.64 81.25C83.64 81.25 84.17 84.72 84.98 85.48C85.79 86.25 91.92 82.84 91.92 82.84L90.98 88.12C90.98 88.12 85.32 86.84 84.13 85.69C82.94 84.54 81.74 83.21 81.74 83.21L83.64 81.24V81.25Z" fill="#F47F81"/>
<path fill-rule="evenodd" clip-rule="evenodd" d="M95.88 103.96C95.88 103.96 105.5 107.28 118.1 111.91C118.1 111.91 131.55 107.74 137.68 94.44C137.68 94.44 135.54 79.24 126.19 72.86C126.19 72.86 114.87 76.12 109.25 84.07C109.25 84.07 110.83 95.99 119.47 101.17C119.47 101.17 125.77 99.26 128.84 93.81C128.84 93.81 126.63 86.57 124.33 83.25L124.93 81.23L117.52 86.91L123.65 84.67C123.65 84.67 127.23 88.8 126.97 93.26C126.97 93.26 123.99 98.58 119.48 99.09C119.48 99.09 110.75 91.94 110.77 84.1C110.77 84.1 115.48 75.93 126.03 75.07C126.03 75.07 134.46 82.73 134.8 95.33C134.8 95.33 131.99 105.89 117.17 110.49C117.17 110.49 107.8 107.42 103.29 103.85C98.78 100.28 93.5 93.26 93.5 93.26L95.88 103.94V103.96Z" fill="#F47F81"/>
<path fill-rule="evenodd" clip-rule="evenodd" d="M94.61 102.73C94.61 102.73 93.67 105.31 93.5 111.92C93.33 118.53 89.11 126.38 87.33 126.57C85.55 126.76 79.67 118.41 77.88 113.8C76.09 109.2 77.5 99.79 77.88 97.91C78.26 96.04 83.3 91.99 85.25 92.06C87.2 92.12 90.19 105.07 90.1 107.79C90.01 110.51 86.11 111.71 85.25 111.28C84.39 110.85 81.75 106.21 81.75 106.21H80.14L85.26 101.56L83.29 106.21C83.29 106.21 84.03 109.74 85.26 110.3C86.49 110.85 88.31 109.29 89.13 107.58C89.95 105.87 86.53 94.51 84.62 93.57C82.71 92.63 79.13 96.55 78.62 99.66C78.11 102.77 77.64 109.49 78.79 113.24C79.94 116.99 83.88 123.63 86.96 124.22C91.39 125.07 92.41 114.03 92.41 109.31C92.41 104.59 90.33 89.52 90.33 89.52L94.62 102.72L94.61 102.73Z" fill="#F47F81"/>
<path fill-rule="evenodd" clip-rule="evenodd" d="M80.3199 129.76C80.3199 129.76 86.0899 137.72 87.4499 138C88.8099 138.28 86.8299 129.76 97.1899 126.57H104.48C104.48 126.57 107.41 119.84 110.76 118.39C110.76 118.39 122.7 111.37 139.48 111.91C139.48 111.91 148.08 94.12 152 92.06C155.92 90 171.24 87.65 175.84 92.06C175.84 92.06 179.42 108.3 175.84 121.84C175.84 121.84 168.05 129.76 157.83 128.35C157.83 128.35 151.65 118.77 156.17 104.34C156.17 104.34 161.72 98.91 169.37 99.44C169.37 99.44 171.58 110.98 169.37 119.11C169.37 119.11 170.82 104.98 166.82 101.83C166.82 101.83 160.86 101.66 157.11 106.21C153.36 110.77 158.56 125.67 160 126.56C161.44 127.45 172.34 123.61 174.65 119.79C176.96 115.97 176.11 94.48 171.84 92.03C171.84 92.03 159.41 90.24 151.83 94.84C151.83 94.84 143.49 104.97 140.76 116.21C140.76 116.21 119.83 120.89 113.6 122.26C107.37 123.62 107.58 130.64 107.58 130.64C107.58 130.64 101.64 129.22 99.2099 129.58C96.7799 129.94 87.4999 141.84 87.4999 141.84C87.4999 141.84 83.0199 136.55 80.3299 129.75L80.3199 129.76Z" fill="#F47F81"/>
<path fill-rule="evenodd" clip-rule="evenodd" d="M192.7 66.67C192.7 66.67 191.51 74.16 185.89 75.87C180.27 77.57 165.63 83.53 154.51 83.02C143.4 82.51 134.07 67.82 135.61 65.39C137.14 62.96 146.85 57.62 157.83 57.09C167.92 56.6 173.2 62.77 173.45 63.57C173.71 64.37 174.39 73.72 172.26 75.18C170.13 76.64 151.91 74.65 148.84 70.3C146.21 66.57 148.07 63.34 149.61 62.66C151.14 61.98 165.36 63.56 165.36 63.56L168.44 61.89L166.56 65.38L166.99 68.79L164.08 64.53C164.08 64.53 153.82 62.87 151.67 63.56C149.52 64.25 147.91 67.23 149.12 69.3C151.59 73.56 169.28 74.24 171.51 73.47C173.74 72.7 172.34 64.3 171.38 62.76C170.42 61.23 163.92 58.56 156.37 58.67C143.79 58.86 137.68 63.91 137.7 66.33C137.72 68.75 145.14 79.87 153.56 81.21C161.98 82.55 181.85 78.1 186.51 72.85C191.17 67.6 187.72 62.41 187.72 62.41C187.72 62.41 191.76 65.26 192.71 66.64L192.7 66.67Z" fill="#F47F81"/>
<path fill-rule="evenodd" clip-rule="evenodd" d="M198.21 84.55C198.21 84.55 187.59 82.27 184.78 84.69C181.97 87.1 183.5 111.8 186.57 114.69C189.64 117.58 197.52 113.8 197.52 113.8L198.21 109.05C198.21 109.05 193.47 115.58 188.61 113.79C183.75 112 183.63 90.54 185.54 86.46C187.46 82.37 198.66 85.29 198.82 88.12L198.2 84.55H198.21Z" fill="#F47F81"/>
<path fill-rule="evenodd" clip-rule="evenodd" d="M199.07 94.26C199.07 94.26 194.74 91.71 192.7 92.09C190.66 92.47 191.07 105.25 191.07 105.25H193.47C193.47 105.25 191.72 104.44 191.72 102.91C191.72 101.38 191.55 94.65 193.47 93.84C195.39 93.03 198.83 95.92 198.98 99.69C198.98 99.69 199.09 95.2 199.07 94.27V94.26Z" fill="#F47F81"/>
<path style="mix-blend-mode:multiply" opacity="0.5" fill-rule="evenodd" clip-rule="evenodd" d="M198.98 99.71C198.41 113.4 195.39 126.96 191.29 132.84C191.29 132.84 181.34 145.98 159.1 148.41L148.64 145.98C148.64 145.98 129.47 156.77 102.78 156.43C102.78 156.43 85.1499 146.18 77.4399 122.34C77.7899 123.13 83.1999 132.82 86.5599 134.55C90.4599 136.55 91.4799 135.25 91.4799 135.25L104.49 126.57C104.49 126.57 109.6 115.7 122.8 113.78C136.58 111.77 140.71 111.92 140.71 111.92L147.17 101.57C147.17 101.57 153.19 107.26 158.62 104.71C158.62 104.71 162.08 107.19 168.84 105.65C168.84 105.65 175.96 103.92 177.18 101.84C177.18 101.84 182.5 101.79 184.48 99.68C184.48 99.68 194.53 101.78 198.98 99.68V99.71Z" fill="url(#paint12_linear_13_2977)"/>
<path fill-rule="evenodd" clip-rule="evenodd" d="M115.58 128.83C115.58 128.83 119.72 138.57 128.88 138C138.04 137.43 139.33 125.34 138.77 121.68C138.21 118.02 115.58 128.83 115.58 128.83Z" fill="#CE5870"/>
<path fill-rule="evenodd" clip-rule="evenodd" d="M90.1 138.62C90.1 138.62 95.04 150.54 101.29 149.35C107.55 148.16 103.68 133.59 101.69 130.44L90.09 138.62H90.1Z" fill="#CE5870"/>
<path fill-rule="evenodd" clip-rule="evenodd" d="M90.1 138.62C90.1 138.62 94.57 150.2 101.29 147.13C108.01 144.06 101.29 129.59 101.29 129.59L98.44 129.93C98.44 129.93 90.76 135.16 90.1 138.63V138.62Z" fill="url(#paint13_linear_13_2977)"/>
<path fill-rule="evenodd" clip-rule="evenodd" d="M112.49 122.59C112.49 122.59 118.62 140.45 130.71 135.77C142.8 131.09 137.69 114.52 137.69 114.52C137.69 114.52 119.55 114.99 112.49 122.59Z" fill="url(#paint14_linear_13_2977)"/>
<path fill-rule="evenodd" clip-rule="evenodd" d="M128.7 133.69C126.67 136.07 122.71 136.03 119.87 133.6C117.03 131.17 116.38 127.27 118.41 124.89C120.44 122.51 124.4 122.55 127.24 124.98C130.08 127.41 130.73 131.31 128.7 133.69Z" fill="#37193E"/>
<path d="M100.145 145.93C101.501 144.575 100.969 141.846 98.9575 139.835C96.9463 137.824 94.2173 137.292 92.8622 138.647C91.5071 140.002 92.039 142.731 94.0502 144.742C96.0614 146.754 98.7903 147.285 100.145 145.93Z" fill="#37193E"/>
<path fill-rule="evenodd" clip-rule="evenodd" d="M51.99 148.92L55.3 142.15C55.3 142.15 64.83 143.02 70.88 153.14C70.88 153.14 90.79 145.17 103.16 147.64L112.41 179.44H111.77L67.37 178.41L51.99 148.92Z" fill="url(#paint15_linear_13_2977)"/>
<path fill-rule="evenodd" clip-rule="evenodd" d="M50 148.9L50.96 147.33L66.18 152.78L64.76 154.7L72.04 154.97L72.8 153.54L103.49 150.68L111.7 180.64L111.14 181.52L86.53 177.93L70.72 178.33L50 148.9Z" fill="#522740"/>
<path fill-rule="evenodd" clip-rule="evenodd" d="M50 148.9L65.03 153.1L63.87 155.25L73.12 155.69V154.02L102.32 151.79L111.14 181.52L82.84 181.92V183.11H76.94L76.28 181.72L66.72 179.8L50 148.9Z" fill="url(#paint16_linear_13_2977)"/>
<g style="mix-blend-mode:multiply" opacity="0.5">
<path fill-rule="evenodd" clip-rule="evenodd" d="M82.84 183.11L73.12 155.69V154.02L82.84 181.92V183.11Z" fill="#5E364C"/>
</g>
<g style="mix-blend-mode:soft-light" opacity="0.7">
<path fill-rule="evenodd" clip-rule="evenodd" d="M63.87 155.25L76.94 183.11H82.84L73.12 155.69L63.87 155.25Z" fill="#FFBD97"/>
</g>
<path fill-rule="evenodd" clip-rule="evenodd" d="M111.59 147.65C111.59 147.65 118.74 145.56 121.55 138.62C121.55 138.62 120.91 143.22 118.74 145.56C116.57 147.9 111.59 147.65 111.59 147.65Z" fill="url(#paint17_linear_13_2977)"/>
<path fill-rule="evenodd" clip-rule="evenodd" d="M93.4999 107.03L94.6099 102.73L102.84 106.22L98.2399 99.68L92.6899 93.55V105.69L93.4999 107.03Z" fill="#CE5870"/>
<path fill-rule="evenodd" clip-rule="evenodd" d="M85.8 85.55L91.93 87.74C91.93 87.74 97.52 82.02 98.73 78.82C98.73 78.82 94.2601 82.81 92.2701 83.7C90.2701 84.59 85.8101 85.55 85.8101 85.55H85.8Z" fill="#CE5870"/>
<path fill-rule="evenodd" clip-rule="evenodd" d="M80.13 106.22H81.74L83.7 107.75L83.28 106.22L85.25 101.57L80.13 106.22Z" fill="#CE5870"/>
<path fill-rule="evenodd" clip-rule="evenodd" d="M117.51 86.93L124.92 81.25L124.32 83.27L124.92 86.49L123.64 84.69L117.51 86.93Z" fill="#CE5870"/>
<path fill-rule="evenodd" clip-rule="evenodd" d="M117.2 96.95C117.2 96.95 119.86 99.09 120.41 98.92C120.96 98.75 123.3 97.45 123.3 97.45C123.3 97.45 122.51 100.53 119.86 101.05C119.86 101.05 118.01 100.76 117.19 96.95H117.2Z" fill="#CE5870"/>
<path fill-rule="evenodd" clip-rule="evenodd" d="M144.2 75.98C144.2 75.98 147.28 80.56 155.48 81.43C163.68 82.3 173.09 79.11 173.09 79.11C173.09 79.11 161.03 83.73 154.52 83.03C148.01 82.33 144.21 75.99 144.21 75.99L144.2 75.98Z" fill="#CE5870"/>
<path fill-rule="evenodd" clip-rule="evenodd" d="M164.07 64.54L166.98 68.8L166.56 65.39L168.44 61.9L164.07 64.54Z" fill="#CE5870"/>
<path fill-rule="evenodd" clip-rule="evenodd" d="M107.98 127.08C107.98 127.08 105.97 123.9 110.38 117.76C114.79 111.63 132.06 112.85 136.48 114.28C136.48 114.28 118.35 117.24 107.98 127.08Z" fill="#CE5870"/>
<path fill-rule="evenodd" clip-rule="evenodd" d="M105.4 125L103.45 126.58H97.19C97.19 126.58 89.04 127.47 88.55 138.63C88.55 138.63 91.8601 131.34 99.9701 129.6L105.91 130.22L107.57 130.66L109.31 125L111.64 116.46C111.64 116.46 108.53 118.65 105.39 125H105.4Z" fill="#CE5870"/>
<path fill-rule="evenodd" clip-rule="evenodd" d="M101.29 129.59C101.29 129.59 94.56 133.28 90.1 138.62L88.24 139.51C88.24 139.51 90.1 132.39 98.45 129.92L101.3 129.58L101.29 129.59Z" fill="#4B3052"/>
<path fill-rule="evenodd" clip-rule="evenodd" d="M113.28 124.55L109.59 126.58C109.59 126.58 113.63 118.74 123.3 116.15C133.6 113.38 137.69 114.53 137.69 114.53C137.69 114.53 118.13 116.71 113.28 124.56V124.55Z" fill="#4B3052"/>
<path fill-rule="evenodd" clip-rule="evenodd" d="M84.6899 122.93C84.6899 122.93 86.2799 124.55 88.0899 124.17C89.8999 123.79 91.1899 119.39 91.1899 119.39C91.1899 119.39 90.5999 124.13 88.3899 125.88C88.3899 125.88 86.8099 127.89 84.6899 122.94V122.93Z" fill="#CE5870"/>
<path fill-rule="evenodd" clip-rule="evenodd" d="M191.03 98.64L191.06 105.24H193.46C193.46 105.24 191.92 104.42 191.71 102.9C191.51 101.38 191.02 98.64 191.02 98.64H191.03Z" fill="#CE5870"/>
<path fill-rule="evenodd" clip-rule="evenodd" d="M170.34 123.57C170.34 123.57 173.6 121.85 175 119.23C176.4 116.61 176.15 108.25 176.15 108.25C176.15 108.25 177.75 116.62 175.83 121.85C175.83 121.85 173.28 123.64 170.34 123.57Z" fill="#CE5870"/>
<path fill-rule="evenodd" clip-rule="evenodd" d="M192.7 130.44C192.7 130.44 188.8 136.21 173.57 138.62C155.35 141.5 147.83 146.41 147.83 146.41C147.83 146.41 156.04 149.15 161.58 148.06C167.12 146.98 185.55 143.12 192.7 130.44Z" fill="url(#paint18_linear_13_2977)"/>
<path fill-rule="evenodd" clip-rule="evenodd" d="M130.58 125.83C130.58 126.77 129.82 127.53 128.88 127.53C127.94 127.53 127.18 126.77 127.18 125.83C127.18 124.89 127.94 124.13 128.88 124.13C129.82 124.13 130.58 124.89 130.58 125.83Z" fill="white"/>
<path d="M99.44 141.5C100.103 141.5 100.64 140.963 100.64 140.3C100.64 139.637 100.103 139.1 99.44 139.1C98.7772 139.1 98.24 139.637 98.24 140.3C98.24 140.963 98.7772 141.5 99.44 141.5Z" fill="white"/>
<g style="mix-blend-mode:multiply">
<path fill-rule="evenodd" clip-rule="evenodd" d="M115.58 128.83C115.58 128.83 122.19 120.08 138.77 120.1C138.77 120.1 138.48 115.82 137.7 114.52C137.7 114.52 118.62 116.22 113.02 124.69L115.58 128.83Z" fill="#D9CCDA"/>
</g>
<g style="mix-blend-mode:multiply">
<path fill-rule="evenodd" clip-rule="evenodd" d="M91.98 142.29C91.98 142.29 96.33 135.9 103.26 134.97C103.26 134.97 102.4 131.71 101.3 129.59C101.3 129.59 92.28 134.25 90.11 138.62C90.11 138.62 91.04 141.28 91.99 142.29H91.98Z" fill="#D9CCDA"/>
</g>
<g style="mix-blend-mode:soft-light" opacity="0.7">
<path fill-rule="evenodd" clip-rule="evenodd" d="M106.61 99.55C106.61 99.55 98.5401 96.01 97.7701 91.69C96.9901 87.36 103.26 81.26 103.26 81.26C103.26 81.26 106.48 75.28 110.77 73.4C115.05 71.53 121.22 70.76 121.22 70.76C121.22 70.76 114.46 76.98 111.65 78.26C108.83 79.54 104.45 79.96 102.85 82.35C101.25 84.73 99.7401 87.63 103.26 90.86C106.79 94.1 106.62 99.56 106.62 99.56L106.61 99.55Z" fill="white"/>
</g>
<g style="mix-blend-mode:soft-light" opacity="0.7">
<path fill-rule="evenodd" clip-rule="evenodd" d="M110.02 103.02C110.02 103.02 115.7 100.25 118.36 104.67C118.36 104.67 114.22 106.87 110.02 103.02Z" fill="white"/>
</g>
<g style="mix-blend-mode:soft-light" opacity="0.7">
<path fill-rule="evenodd" clip-rule="evenodd" d="M81.77 110.25C81.77 110.25 84.89 112.84 85.82 114.12C86.75 115.4 86.86 116.12 86.86 116.12C86.86 116.12 86.71 112.58 88.93 111.41C88.93 111.41 89.31 116.74 87.31 118.04C87.31 118.04 82.23 115.87 81.77 110.24V110.25Z" fill="white"/>
</g>
<g style="mix-blend-mode:soft-light" opacity="0.7">
<path fill-rule="evenodd" clip-rule="evenodd" d="M131.73 74.5C131.73 74.5 137.08 83.87 138.87 87.74C140.67 91.61 140.41 95.02 139.56 96.13C138.71 97.24 133.04 103.82 133.94 108.05C133.94 108.05 136.73 108.34 138.87 104.66C141.01 100.98 139.73 96.68 141.09 93.55C142.45 90.42 144.84 87.72 143.95 84.69C143.05 81.65 137.88 80.9 135.44 78.82C132.99 76.74 133.77 75.61 131.73 74.5Z" fill="white"/>
</g>
<g style="mix-blend-mode:soft-light" opacity="0.7">
<path fill-rule="evenodd" clip-rule="evenodd" d="M152 86.93C152 86.93 156.09 83.45 161.2 85.15C161.2 85.15 158.99 90 152 86.93Z" fill="white"/>
</g>
<g style="mix-blend-mode:soft-light" opacity="0.7">
<path fill-rule="evenodd" clip-rule="evenodd" d="M157.89 95.8C157.89 95.8 161.98 92.32 167.09 94.02C167.09 94.02 164.88 98.87 157.89 95.8Z" fill="white"/>
</g>
<g style="mix-blend-mode:soft-light" opacity="0.7">
<path fill-rule="evenodd" clip-rule="evenodd" d="M129.6 65.35C129.6 65.35 128.57 61.9 131.73 59.43C134.89 56.96 141.27 57.62 141.27 57.62C141.27 57.62 136.67 61.42 134.03 61.45C131.39 61.48 129.6 65.35 129.6 65.35Z" fill="white"/>
</g>
<g style="mix-blend-mode:soft-light" opacity="0.7">
<path fill-rule="evenodd" clip-rule="evenodd" d="M174.05 84.09C174.05 84.09 178.22 80.64 182.39 79.53C186.56 78.42 188.15 79.69 191.06 78.33C193.97 76.97 193.97 72.87 193.97 72.87C193.97 72.87 195.69 76.56 195.05 79.53C194.4 82.5 189.33 79.2 186.06 79.53C182.78 79.86 184.36 83.24 181.76 84.68C179.16 86.12 174.05 84.09 174.05 84.09Z" fill="white"/>
</g>
<g style="mix-blend-mode:soft-light" opacity="0.7">
<path fill-rule="evenodd" clip-rule="evenodd" d="M173.08 76.42C173.08 76.42 173.24 74.5 175.5 74.04C177.76 73.57 179.16 70.72 179.33 69.57C179.5 68.42 178.52 66.42 181.8 65.36C181.8 65.36 184.14 66.98 183.55 70.07C182.95 73.15 179.25 72.52 178.02 73.37C176.79 74.22 176.83 76.22 176.06 76.44C175.29 76.66 173.09 76.44 173.09 76.44L173.08 76.42Z" fill="white"/>
</g>
<path fill-rule="evenodd" clip-rule="evenodd" d="M174.54 84.27C174.54 84.27 178.71 79.24 185.42 79.53C185.42 79.53 184.16 84.24 181.14 84.68C178.13 85.12 174.54 84.27 174.54 84.27Z" fill="white"/>
<path fill-rule="evenodd" clip-rule="evenodd" d="M134.92 78.34C134.92 78.34 136.5 82.91 138.8 86.32C141.1 89.72 143.15 89.56 143.15 89.56C143.15 89.56 145.43 85.69 142.88 83.05C140.33 80.4 134.92 78.34 134.92 78.34Z" fill="white"/>
<path fill-rule="evenodd" clip-rule="evenodd" d="M104.81 78.82C104.81 78.82 107.39 79.61 111.64 76.97C115.89 74.33 117.2 71.45 117.2 71.45C117.2 71.45 107.02 72.91 104.82 78.81L104.81 78.82Z" fill="white"/>
<path fill-rule="evenodd" clip-rule="evenodd" d="M99.72 72.87C99.72 72.87 104.49 72.54 108.92 67.6C113.35 62.66 113.02 61.44 113.02 61.44C113.02 61.44 100.71 66.92 99.72 72.87Z" fill="white"/>
<path fill-rule="evenodd" clip-rule="evenodd" d="M85.8 81.25C85.8 81.25 87.55 81.44 90.1 79.03C92.65 76.62 93.5 73.64 93.5 73.64C93.5 73.64 86.18 78.29 85.8 81.24V81.25Z" fill="white"/>
<path fill-rule="evenodd" clip-rule="evenodd" d="M76.39 92.79C76.39 92.79 80.81 93.24 83.75 88.13C83.75 88.13 78.87 87.88 76.39 92.79Z" fill="white"/>
<g style="mix-blend-mode:soft-light" opacity="0.7">
<path fill-rule="evenodd" clip-rule="evenodd" d="M103.78 115.2C103.78 115.2 107.08 118.84 111.26 112.5C111.26 112.5 104.09 108.63 103.78 115.2Z" fill="white"/>
</g>
<g style="mix-blend-mode:soft-light" opacity="0.7">
<path fill-rule="evenodd" clip-rule="evenodd" d="M140.25 135.95C140.25 135.95 145.01 137.18 145.02 129.59C145.02 129.59 136.9 130.3 140.25 135.95Z" fill="white"/>
</g>
<path fill-rule="evenodd" clip-rule="evenodd" d="M153.1 67.16C153.1 67.16 158.82 63.69 163.69 67.16C163.69 67.16 161.02 70.08 153.1 67.16Z" fill="white"/>
<path fill-rule="evenodd" clip-rule="evenodd" d="M55.17 158.58L54.23 161.17L56.2 164.41L57.67 164.15L58.2 167.15L60.01 171.57L59.18 173.78L59.85 175.85C59.85 175.85 62.99 176.09 65.87 175.22C65.87 175.22 65.92 173.76 64.83 171.7L67.93 170.67C67.93 170.67 68.36 169.32 67.97 167.81L69.08 167.19C69.08 167.19 68.2 164.61 66.75 162.93L61.56 163.6L63.44 162.72C63.44 162.72 63.49 160.59 62.35 159.27L56.21 159.92L55.19 158.58H55.17Z" fill="url(#paint19_linear_13_2977)"/>
<path fill-rule="evenodd" clip-rule="evenodd" d="M57.6699 164.15L61.5399 163.59L57.8599 165.25L57.6699 164.15Z" fill="#F47F81"/>
<path fill-rule="evenodd" clip-rule="evenodd" d="M60 171.57L64.82 171.69L59.41 173.16L60 171.57Z" fill="#F47F81"/>
<path fill-rule="evenodd" clip-rule="evenodd" d="M68.84 166.59L62.71 168.57L67.96 167.8L69.07 167.18L68.84 166.59Z" fill="#F47F81"/>
<path fill-rule="evenodd" clip-rule="evenodd" d="M170.53 189.88C159.77 191.79 149.09 191.26 149.09 191.26C149.09 191.26 149.41 180.95 150.2 169.15C150.31 167.58 150.4 165.96 150.49 164.34C150.49 164.22 150.51 164.09 150.51 163.97C150.58 162.73 150.63 161.49 150.69 160.27C151.09 151.09 151.16 145.09 151.16 145.09L157.62 142.71C157.07 145.41 156.49 153.08 156.24 160.48C156.21 161.05 156.2 161.63 156.18 162.2C155.99 169.19 156.12 175.57 156.89 176.81C158.53 179.44 168.77 183.43 168.77 183.43C171 186.38 170.52 189.89 170.52 189.89L170.53 189.88Z" fill="url(#paint20_linear_13_2977)"/>
<path fill-rule="evenodd" clip-rule="evenodd" d="M170.53 189.88C159.77 191.79 149.09 191.26 149.09 191.26C149.09 191.26 149.41 180.95 150.2 169.15C150.31 167.58 150.4 165.96 150.49 164.34C150.49 164.34 150.38 164.2 150.51 163.97C150.76 163.52 151.85 162.76 156.19 162.2C156 169.19 156.13 175.57 156.9 176.81C158.54 179.44 168.78 183.43 168.78 183.43C171.01 186.38 170.53 189.89 170.53 189.89V189.88Z" fill="url(#paint21_linear_13_2977)"/>
<g style="mix-blend-mode:soft-light" opacity="0.7">
<path fill-rule="evenodd" clip-rule="evenodd" d="M156.9 176.8C156.9 176.8 152.88 181.1 152.88 182.3C152.88 182.3 161.73 183.58 168.78 183.42C168.78 183.42 158.29 178.36 156.9 176.8Z" fill="white"/>
</g>
<path fill-rule="evenodd" clip-rule="evenodd" d="M149.1 191.26V193.07C149.1 193.07 165.17 192.79 170.85 191.01L170.54 189.88C170.54 189.88 160.63 191.33 149.1 191.26Z" fill="url(#paint22_linear_13_2977)"/>
<g style="mix-blend-mode:multiply">
<path fill-rule="evenodd" clip-rule="evenodd" d="M157.63 142.7C157.08 145.4 156.5 153.07 156.25 160.47C154.14 160.41 152.06 160.33 150.69 160.26C151.09 151.08 151.16 145.08 151.16 145.08L157.62 142.7H157.63Z" fill="#5E364C"/>
</g>
<g style="mix-blend-mode:soft-light" opacity="0.7">
<path fill-rule="evenodd" clip-rule="evenodd" d="M119.47 146.45C119.47 146.45 120.41 143.31 121.56 143.14C121.56 143.14 123.56 145.19 119.47 146.45Z" fill="white"/>
</g>
<path fill-rule="evenodd" clip-rule="evenodd" d="M166.39 120.21C166.24 125.74 166.08 133.81 161.95 143.79C161.73 144.32 161.49 144.85 161.25 145.4C156.43 156.13 147.73 159.49 147.73 159.49C147.73 159.49 146.37 162.54 144.22 164.38C142.07 166.22 133.7 167.61 133.7 167.61L132.59 165.74L130.92 165.34L130.12 160.96L129.01 159.84V156.01C129.01 156.01 125.15 154.12 120.55 154.58C120.55 154.58 120.55 150.75 122.63 149.63C122.63 149.63 128.45 151.63 133.39 152.02C138.34 152.42 140.01 151.47 140.01 151.47C140.01 151.47 139.8 150.09 139.07 148.84C138.34 147.59 137.4 146.45 137.34 145.79C137.27 145.14 139.25 141.19 141.22 140.65C141.22 140.65 144.26 140.47 144.92 141.9C144.92 141.9 141.94 146.2 142.05 146.92C142.17 147.64 144.86 149.55 144.86 149.55C144.86 149.55 145.4 151.52 145.34 152.66C145.34 152.66 154.21 148.06 157.3 141.82C160.89 134.56 160.89 124.84 160.89 124.84C160.89 124.84 157.78 126.51 157.78 121.81C157.78 117.11 159.69 112.08 162.16 111.6C162.77 111.49 163.36 111.6 163.87 111.92C165.46 112.91 166.51 115.84 166.39 120.21Z" fill="url(#paint23_linear_13_2977)"/>
<path fill-rule="evenodd" clip-rule="evenodd" d="M161.95 143.78C161.73 144.31 161.49 144.84 161.25 145.39C156.43 156.12 147.73 159.48 147.73 159.48C147.73 159.48 146.37 162.53 144.22 164.37C142.07 166.21 133.7 167.6 133.7 167.6L132.59 165.73L130.92 165.33L130.12 160.95L129.01 159.83V156C129.01 156 125.15 154.11 120.55 154.57C120.55 154.57 120.55 150.74 122.63 149.62C122.63 149.62 128.45 151.62 133.39 152.01C138.34 152.41 140.01 151.46 140.01 151.46C140.01 151.46 139.8 150.08 139.07 148.83C138.34 147.58 137.4 146.44 137.34 145.78C137.27 145.13 139.25 141.18 141.22 140.64C141.22 140.64 144.26 140.46 144.92 141.89C144.92 141.89 141.94 146.19 142.05 146.91C142.17 147.63 144.86 149.54 144.86 149.54C144.86 149.54 145.4 151.51 145.34 152.65C145.34 152.65 154.21 148.05 157.3 141.81C157.3 141.81 160.37 141.11 161.94 143.77L161.95 143.78Z" fill="url(#paint24_linear_13_2977)"/>
<path fill-rule="evenodd" clip-rule="evenodd" d="M129.01 156L130.52 156.88L129.76 159.77L130.52 160.84L131.66 161.74L132.07 164.67H133.03L134.58 167.28L133.7 167.6L132.6 165.73L130.92 165.33L130.12 160.95L129.01 159.38V156Z" fill="#F47F81"/>
<g style="mix-blend-mode:multiply">
<path fill-rule="evenodd" clip-rule="evenodd" d="M160.89 124.84C160.89 124.84 157.78 126.51 157.78 121.81C157.78 117.11 159.69 112.08 162.16 111.6C162.77 111.49 163.36 111.6 163.87 111.92C159.45 113.13 160.89 124.84 160.89 124.84Z" fill="#5E364C"/>
</g>
<path fill-rule="evenodd" clip-rule="evenodd" d="M150.97 93.55C150.97 93.55 155.6 92.81 162.18 91.87C168.76 90.93 169.8 89.77 169.8 89.77C169.8 89.77 158.91 88.76 152.58 91.78C152.58 91.78 151.27 92.37 150.97 93.54V93.55Z" fill="#CE5870"/>
</g>
<defs>
<linearGradient id="paint0_linear_13_2977" x1="51.5464" y1="230.67" x2="207.474" y2="-2.20987e-06" gradientUnits="userSpaceOnUse">
<stop stop-color="#FC7634"/>
<stop offset="1" stop-color="#C3342F"/>
</linearGradient>
<linearGradient id="paint1_linear_13_2977" x1="109.8" y1="189.81" x2="109.8" y2="145.39" gradientUnits="userSpaceOnUse">
<stop stop-color="#684A72"/>
<stop offset="0.99" stop-color="#46255E"/>
</linearGradient>
<linearGradient id="paint2_linear_13_2977" x1="91.7001" y1="189.73" x2="122.17" y2="168.18" gradientUnits="userSpaceOnUse">
<stop offset="0.02" stop-color="#FFA993"/>
<stop offset="1" stop-color="#FFCFA9"/>
</linearGradient>
<linearGradient id="paint3_linear_13_2977" x1="91.3101" y1="190.38" x2="113.46" y2="190.38" gradientUnits="userSpaceOnUse">
<stop stop-color="#9B1A43"/>
<stop offset="1" stop-color="#731653"/>
</linearGradient>
<linearGradient id="paint4_linear_13_2977" x1="80.44" y1="163.04" x2="80.44" y2="129.41" gradientUnits="userSpaceOnUse">
<stop stop-color="#684A72"/>
<stop offset="0.99" stop-color="#46255E"/>
</linearGradient>
<linearGradient id="paint5_linear_13_2977" x1="63.5501" y1="159.51" x2="80.4101" y2="147.58" gradientUnits="userSpaceOnUse">
<stop offset="0.02" stop-color="#FFA993"/>
<stop offset="1" stop-color="#FFCFA9"/>
</linearGradient>
<linearGradient id="paint6_linear_13_2977" x1="142.71" y1="152.75" x2="132.11" y2="57.27" gradientUnits="userSpaceOnUse">
<stop offset="0.02" stop-color="#FF8E89"/>
<stop offset="1" stop-color="#FFB388"/>
</linearGradient>
<linearGradient id="paint7_linear_13_2977" x1="116.7" y1="111.42" x2="116.7" y2="86.93" gradientUnits="userSpaceOnUse">
<stop offset="0.02" stop-color="#E08893"/>
<stop offset="0.33" stop-color="#ECB9BF"/>
<stop offset="0.62" stop-color="#F6DFE2"/>
<stop offset="0.85" stop-color="#FCF6F7"/>
<stop offset="1" stop-color="white"/>
</linearGradient>
<linearGradient id="paint8_linear_13_2977" x1="85.36" y1="125.11" x2="85.36" y2="110.87" gradientUnits="userSpaceOnUse">
<stop offset="0.02" stop-color="#E08893"/>
<stop offset="0.33" stop-color="#ECB9BF"/>
<stop offset="0.62" stop-color="#F6DFE2"/>
<stop offset="0.85" stop-color="#FCF6F7"/>
<stop offset="1" stop-color="white"/>
</linearGradient>
<linearGradient id="paint9_linear_13_2977" x1="161.81" y1="82.26" x2="161.81" y2="68.46" gradientUnits="userSpaceOnUse">
<stop offset="0.02" stop-color="#E08893"/>
<stop offset="0.33" stop-color="#ECB9BF"/>
<stop offset="0.62" stop-color="#F6DFE2"/>
<stop offset="0.85" stop-color="#FCF6F7"/>
<stop offset="1" stop-color="white"/>
</linearGradient>
<linearGradient id="paint10_linear_13_2977" x1="120.63" y1="98.96" x2="120.63" y2="90.46" gradientUnits="userSpaceOnUse">
<stop offset="0.02" stop-color="#E08893"/>
<stop offset="0.33" stop-color="#ECB9BF"/>
<stop offset="0.62" stop-color="#F6DFE2"/>
<stop offset="0.85" stop-color="#FCF6F7"/>
<stop offset="1" stop-color="white"/>
</linearGradient>
<linearGradient id="paint11_linear_13_2977" x1="86.1099" y1="110.75" x2="86.1099" y2="103.72" gradientUnits="userSpaceOnUse">
<stop offset="0.02" stop-color="#E08893"/>
<stop offset="0.33" stop-color="#ECB9BF"/>
<stop offset="0.62" stop-color="#F6DFE2"/>
<stop offset="0.85" stop-color="#FCF6F7"/>
<stop offset="1" stop-color="white"/>
</linearGradient>
<linearGradient id="paint12_linear_13_2977" x1="138.21" y1="156.44" x2="138.21" y2="99.68" gradientUnits="userSpaceOnUse">
<stop offset="0.02" stop-color="#E08893"/>
<stop offset="1" stop-color="#FFD1C7"/>
</linearGradient>
<linearGradient id="paint13_linear_13_2977" x1="97.19" y1="147.65" x2="97.19" y2="129.59" gradientUnits="userSpaceOnUse">
<stop stop-color="white"/>
<stop offset="0.98" stop-color="#FBC9CE"/>
</linearGradient>
<linearGradient id="paint14_linear_13_2977" x1="125.63" y1="136.55" x2="125.63" y2="114.52" gradientUnits="userSpaceOnUse">
<stop stop-color="white"/>
<stop offset="0.98" stop-color="#FBC9CE"/>
</linearGradient>
<linearGradient id="paint15_linear_13_2977" x1="84.25" y1="182.57" x2="79.46" y2="139.46" gradientUnits="userSpaceOnUse">
<stop offset="0.02" stop-color="#C2DBF0"/>
<stop offset="1" stop-color="#FFE6D6"/>
</linearGradient>
<linearGradient id="paint16_linear_13_2977" x1="50" y1="166.01" x2="111.14" y2="166.01" gradientUnits="userSpaceOnUse">
<stop stop-color="#9B1A43"/>
<stop offset="1" stop-color="#731653"/>
</linearGradient>
<linearGradient id="paint17_linear_13_2977" x1="116.57" y1="147.66" x2="116.57" y2="138.62" gradientUnits="userSpaceOnUse">
<stop stop-color="#9B1A43"/>
<stop offset="1" stop-color="#731653"/>
</linearGradient>
<linearGradient id="paint18_linear_13_2977" x1="147.82" y1="139.38" x2="192.7" y2="139.38" gradientUnits="userSpaceOnUse">
<stop stop-color="#B54263"/>
<stop offset="0.98" stop-color="#D8474D"/>
</linearGradient>
<linearGradient id="paint19_linear_13_2977" x1="55.6969" y1="171.754" x2="65.5798" y2="161.782" gradientUnits="userSpaceOnUse">
<stop offset="0.02" stop-color="#FFA993"/>
<stop offset="1" stop-color="#FFCFA9"/>
</linearGradient>
<linearGradient id="paint20_linear_13_2977" x1="159.84" y1="191.33" x2="159.84" y2="142.7" gradientUnits="userSpaceOnUse">
<stop stop-color="#684A72"/>
<stop offset="0.99" stop-color="#46255E"/>
</linearGradient>
<linearGradient id="paint21_linear_13_2977" x1="146.12" y1="187.05" x2="164.55" y2="174.01" gradientUnits="userSpaceOnUse">
<stop offset="0.02" stop-color="#FFA993"/>
<stop offset="1" stop-color="#FFCFA9"/>
</linearGradient>
<linearGradient id="paint22_linear_13_2977" x1="149.1" y1="191.47" x2="170.84" y2="191.47" gradientUnits="userSpaceOnUse">
<stop stop-color="#9B1A43"/>
<stop offset="1" stop-color="#731653"/>
</linearGradient>
<linearGradient id="paint23_linear_13_2977" x1="143.48" y1="167.6" x2="143.48" y2="111.55" gradientUnits="userSpaceOnUse">
<stop stop-color="#684A72"/>
<stop offset="0.99" stop-color="#46255E"/>
</linearGradient>
<linearGradient id="paint24_linear_13_2977" x1="125.99" y1="162.25" x2="158.68" y2="139.13" gradientUnits="userSpaceOnUse">
<stop offset="0.02" stop-color="#FFA993"/>
<stop offset="1" stop-color="#FFCFA9"/>
</linearGradient>
<clipPath id="clip0_13_2977">
<rect width="149.07" height="137.07" fill="white" transform="translate(50 56)"/>
</clipPath>
</defs>
</svg>
