<svg width="258" height="322" viewBox="0 0 258 322" fill="none" xmlns="http://www.w3.org/2000/svg">
<g filter="url(#filter0_d_7_1213)">
<rect x="254" width="314" height="250" rx="20" transform="rotate(90 254 0)" fill="url(#paint0_linear_7_1213)"/>
<rect x="251.5" y="2.5" width="309" height="245" rx="17.5" transform="rotate(90 251.5 2.5)" stroke="white" stroke-width="5"/>
</g>
<g clip-path="url(#clip0_7_1213)">
<g style="mix-blend-mode:multiply" opacity="0.27">
<path d="M64 243.601C64 248.799 90.3087 253 122.76 253C155.212 253 181.52 248.787 181.52 243.601C181.52 238.415 155.212 234.202 122.76 234.202C90.3087 234.202 64 238.415 64 243.601Z" fill="#B9B8A7"/>
</g>
<path d="M105.422 209.391C100.074 204.476 91.3534 203.695 85.2105 207.568C79.0677 211.452 76.0473 219.651 78.2161 226.57C80.3848 233.489 87.5382 238.516 94.8052 238.222C102.072 237.928 108.794 232.334 110.384 225.256" fill="#9C561B"/>
<path d="M132.582 200.717C136.783 199.697 141.087 200.502 144.55 203.853C152.282 211.327 153.611 223.467 147.729 232.888C149.659 234.417 153.361 234.043 155.995 234.361C158.629 234.678 161.548 236.467 160.73 238.754C160.106 240.51 157.71 241.257 155.655 241.597C147.706 242.91 139.383 242.333 132.4 239.32C125.417 236.308 119.887 230.759 118.105 224.044C116.436 217.759 118.502 210.625 123.85 205.643C126.462 203.208 129.493 201.475 132.582 200.728V200.717Z" fill="#9C561B"/>
<path d="M135.795 119.308L145.447 122.286L146.298 122.558C152.396 113.668 161.582 106.919 171.914 103.726C176.206 102.412 180.692 101.665 184.722 99.7284C185.267 99.468 185.801 99.1735 186.312 98.8678C189.673 96.8294 192.478 93.67 192.943 89.8312C193.465 85.3128 190.491 80.8738 186.46 78.7335C182.429 76.5933 177.592 76.48 173.118 77.352C163.467 79.2431 155.11 85.5167 149.08 93.2397C143.04 100.963 139.111 110.113 135.784 119.319L135.795 119.308Z" fill="#BB6922"/>
<path d="M142.631 118.481L145.447 122.286L146.298 122.558C152.396 113.668 161.582 106.919 171.914 103.726C176.207 102.412 180.692 101.665 184.722 99.7284C185.268 99.468 185.801 99.1735 186.312 98.8678C186.596 98.0751 186.744 97.2711 186.71 96.4218C186.619 93.2397 184.03 90.5106 181.01 89.4348C178.001 88.359 174.662 88.6534 171.54 89.3442C157.426 92.515 145.651 104.371 142.631 118.492V118.481Z" fill="#EF9A9A"/>
<path d="M109.771 181.534C111.292 179.28 112.938 177.106 114.664 175.011L145.254 178.839C144.05 182.383 143.687 186.063 143.732 189.8C132.23 191.974 120.16 188.192 109.771 181.534Z" fill="#9C561B"/>
<path d="M109.771 181.534C120.16 188.192 132.23 191.974 143.732 189.8C143.789 194.851 144.607 199.992 145.152 205.031C146.094 213.785 145.833 223.557 139.974 230.148C134.717 236.059 125.644 237.894 118.162 235.3C110.679 232.707 104.911 226.173 102.367 218.688C99.8352 211.203 100.323 202.902 102.787 195.394C104.411 190.457 106.852 185.848 109.759 181.534H109.771Z" fill="#BB6922"/>
<path d="M124.736 124.392L134.16 120.746L134.989 120.429C134.24 109.682 137.237 98.7092 143.346 89.8085C145.89 86.1282 148.944 82.7536 150.897 78.7449C151.158 78.2013 151.397 77.6351 151.612 77.0802C152.975 73.3999 153.213 69.1873 151.181 65.892C148.774 62.0305 143.687 60.3885 139.19 61.2038C134.705 62.0192 130.833 64.9295 127.87 68.3833C121.489 75.8346 118.832 85.9243 118.922 95.7197C118.991 105.515 121.613 115.118 124.736 124.392Z" fill="#BB6922"/>
<path d="M129.585 119.512L134.16 120.746L134.989 120.429C134.24 109.682 137.238 98.7092 143.346 89.8085C145.89 86.1282 148.944 82.7536 150.897 78.7449C151.158 78.2013 151.397 77.6351 151.613 77.0802C151.34 76.2875 150.954 75.5628 150.398 74.9173C148.342 72.4713 144.618 71.9504 141.586 72.9696C138.555 73.9888 136.125 76.2875 134.104 78.7675C125.02 89.9897 123.169 106.579 129.585 119.512Z" fill="#EF9A9A"/>
<path d="M96.7354 149.192C98.7451 165.284 111.951 177.287 126.984 181.839C130.572 182.927 135.012 183.719 139.531 183.889C150.522 184.263 162.115 180.945 163.921 169.202C164.034 168.398 164.114 167.594 164.136 166.778C164.216 164.899 164.114 163.007 164.171 161.15C164.295 157.108 164.897 153.11 165.896 149.203C167.35 143.507 167.463 137.347 165.681 131.708C161.718 119.149 149.784 112.491 137.101 111.981C133.354 111.823 129.584 112.162 125.917 112.944C108.953 116.59 94.4304 130.972 96.724 149.203L96.7354 149.192Z" fill="#BB6922"/>
<path d="M158.459 153.439C158.993 152.997 159.879 152.77 160.537 153.088C161.741 153.676 162.252 154.616 162.524 155.896C162.774 157.062 161.854 158.24 160.707 158.432C159.413 158.648 158.493 157.764 158.164 156.621C158.096 156.383 157.767 155.817 157.744 155.364C157.698 154.605 157.857 153.926 158.471 153.427L158.459 153.439Z" fill="#322A28"/>
<path d="M138.532 153.439C139.066 152.997 139.951 152.77 140.61 153.088C141.813 153.676 142.324 154.616 142.597 155.896C142.847 157.062 141.927 158.24 140.78 158.432C139.486 158.648 138.566 157.764 138.237 156.621C138.169 156.383 137.839 155.817 137.817 155.364C137.771 154.605 137.93 153.926 138.543 153.427L138.532 153.439Z" fill="#322A28"/>
<path d="M112.098 199.924C116.368 199.233 120.637 200.637 123.941 204.873C131.31 214.328 132.014 228.415 125.633 238.562C127.495 240.532 131.231 240.532 133.854 241.189C136.477 241.857 139.315 244.235 138.373 246.772C137.646 248.719 135.216 249.297 133.138 249.456C125.088 250.067 116.776 248.448 109.918 244.201C103.06 239.955 97.8027 232.956 96.3607 225.041C95.0095 217.635 97.4507 209.685 103.071 204.567C105.808 202.076 108.942 200.422 112.087 199.913L112.098 199.924Z" fill="#BB6922"/>
<path d="M142.336 189.642C146.344 194.647 149.864 200.049 152.827 205.733C153.179 206.413 153.531 207.16 153.384 207.907C153.202 208.825 152.271 209.448 151.34 209.549C150.409 209.651 149.478 209.346 148.615 208.995C144.3 207.228 140.576 204.069 138.135 200.105" fill="#BB6922"/>
<path d="M125.803 236.807C127.688 232.832 129.062 228.755 129.334 224.339C129.664 219.107 128.449 215.721 125.394 211.599C125.201 211.35 125.44 210.954 125.769 211.078C129.573 212.584 130.504 217.703 130.606 221.327C130.765 226.841 129.187 232.401 126.201 237.022C126.064 237.237 125.701 237.044 125.803 236.807Z" fill="#9C561B"/>
<path d="M85.9031 208.598C87.3338 207.477 90.3428 206.73 91.6599 208.44C91.9324 208.791 91.7962 209.493 91.2625 209.515C90.5812 209.549 89.9227 209.346 89.2414 209.391C88.492 209.436 87.8107 209.731 87.2203 210.172C86.891 210.421 86.3119 210.523 85.9712 210.218C85.9031 210.161 85.835 210.104 85.7782 210.036C85.4262 209.629 85.483 208.938 85.9145 208.598H85.9031Z" fill="#BB6922"/>
<path d="M83.3937 214.453C84.5065 213.4 86.8796 211.735 88.4579 212.618C88.685 212.743 88.7418 213.128 88.5714 213.32C88.1173 213.853 87.4246 214 86.8228 214.328C86.0961 214.713 85.4262 215.211 84.8812 215.834C83.916 216.944 82.3037 215.483 83.3824 214.453H83.3937Z" fill="#BB6922"/>
<path d="M83.5981 220.84C83.9841 219.888 84.6768 218.779 85.6306 218.326C86.1075 218.099 86.7547 218.62 86.5049 219.141C86.1188 219.956 85.5738 220.602 85.3126 221.485C85.0742 222.3 85.3126 223.331 84.6314 223.931C84.3816 224.146 83.9387 224.18 83.6662 223.965C82.7578 223.229 83.212 221.768 83.5981 220.84Z" fill="#BB6922"/>
<path d="M86.9931 226.479C87.5836 225.8 88.6509 226.524 88.1399 227.294C87.8447 227.736 87.9128 228.223 88.1513 228.676C88.3784 229.106 88.8212 229.401 89.0029 229.842C89.1278 230.148 89.0256 230.533 88.6963 230.669C87.7312 231.077 86.7547 230.08 86.4708 229.231C86.1529 228.313 86.3459 227.215 86.9818 226.479H86.9931Z" fill="#BB6922"/>
<path d="M82.8715 229.185C83.4506 229.933 84.2795 230.227 85.0289 230.759C85.3582 230.997 85.1879 231.428 84.8472 231.53C83.6436 231.892 82.4741 230.986 81.8496 230.035C81.3954 229.344 82.3378 228.495 82.8715 229.185Z" fill="#BB6922"/>
<path d="M80.3734 219.39C80.873 219.016 81.6792 219.651 81.225 220.183C80.7254 220.772 80.5096 221.485 80.0668 222.097C79.783 222.47 79.0335 222.38 78.9995 221.847C78.9314 220.828 79.5899 219.979 80.3734 219.39Z" fill="#BB6922"/>
<path d="M137.521 182.36C137.521 182.36 137.533 182.372 137.544 182.383C138.532 183.436 139.974 183.934 141.416 183.923C151.817 183.866 162.229 180.288 163.932 169.213V169.19C164.159 167.628 163.637 166.042 162.49 164.966C158.777 161.501 153.304 159.859 148.297 160.924C141.927 162.283 136.727 167.831 135.659 174.23C135.194 177.072 135.58 180.231 137.521 182.349V182.36Z" fill="#FFD980"/>
<path d="M150.749 170.832C152.464 172.01 154.258 173.324 156.052 171.365C157.29 170.006 157.744 168.307 158.323 166.62C158.425 166.314 158.936 166.337 158.913 166.699C158.754 168.794 157.596 171.41 155.836 172.656C153.872 174.037 151.783 172.871 150.466 171.206C150.318 171.014 150.511 170.674 150.749 170.832Z" fill="#322A28"/>
<path d="M155.223 171.987C155.541 171.534 156.222 171.919 155.961 172.418C155.654 173.041 156.381 173.448 156.915 173.301C157.437 173.165 157.653 172.644 158.016 172.305C158.13 172.203 158.346 172.237 158.38 172.395C158.573 173.471 157.38 174.377 156.381 174.286C155.268 174.184 154.553 172.95 155.223 171.987Z" fill="#322A28"/>
<path d="M158.277 163.551C159.572 163.551 160.81 164.434 160.753 165.465C160.696 166.495 159.663 167.379 158.277 167.379C156.983 167.379 155.745 166.495 155.802 165.465C155.859 164.434 156.892 163.551 158.277 163.551Z" fill="#EF9A9A"/>
<path d="M143.142 187.932C142.006 194.873 136.795 199.913 131.378 203.967C125.69 208.225 119.467 212.12 112.53 213.943C108.726 214.94 104.718 215.302 100.812 214.713C97.235 214.17 90.99 212.686 92.239 207.772C93.1474 204.193 96.5765 201.034 98.9382 198.327C100.346 196.697 101.868 195.145 103.355 193.571C103.684 192.665 104.071 191.793 104.502 190.921C104.695 190.525 104.888 190.117 105.081 189.721C101.754 192.439 98.8247 195.836 96.0769 199.075C93.8627 201.679 90.7515 204.805 90.3882 208.383C89.5707 216.423 102.299 217.329 107.647 216.82C116.458 215.993 124.304 211.565 131.322 206.458C137.521 201.951 143.698 196.357 144.879 188.407C145.049 187.286 143.335 186.788 143.142 187.932Z" fill="#B0BEC5"/>
<path d="M119.252 203.514C123.85 206.628 128.449 209.753 133.048 212.867C133.797 213.377 134.558 213.887 135.421 214.147C136.284 214.407 137.294 214.362 138.021 213.83C138.668 213.343 138.997 212.528 139.054 211.724C139.1 210.92 138.907 210.127 138.657 209.357C137.09 204.397 133.774 200.15 130.016 196.527" fill="#BB6922"/>
<path d="M136.533 215.268C136.919 215.268 137.306 215.2 137.692 215.03C138.782 214.566 139.508 213.366 139.554 211.984C139.588 210.795 139.168 209.697 138.77 208.745C136.772 204.035 133.729 199.72 129.97 196.244C129.732 196.028 129.357 196.04 129.13 196.278C128.903 196.515 128.926 196.889 129.164 197.116C132.809 200.468 135.75 204.657 137.68 209.21C138.032 210.036 138.407 210.999 138.373 211.95C138.35 212.709 137.987 213.615 137.226 213.955C136.204 214.396 134.955 213.683 133.854 212.924L119.524 203.049C119.252 202.857 118.888 202.925 118.695 203.197C118.514 203.468 118.582 203.831 118.843 204.023L133.172 213.898C134.206 214.611 135.364 215.279 136.533 215.279V215.268Z" fill="#BB6922"/>
<path d="M91.2172 206.639C86.4709 210.648 83.0078 216.14 81.4408 222.131C80.9639 223.931 80.6801 225.935 81.5089 227.6C82.3378 229.276 84.1092 230.261 85.8237 231.031C92.5343 234.043 100.006 235.346 107.341 234.78C108.647 234.678 110.043 234.474 111.008 233.591C111.962 232.719 112.28 231.371 112.507 230.091C113.359 225.086 113.313 219.934 112.371 214.951C105.717 211.463 98.4728 208.587 91.2172 206.628V206.639Z" fill="#B0BEC5"/>
<path d="M96.1791 217.68C94.7824 217.68 94.7824 219.843 96.1791 219.843C97.5757 219.843 97.5757 217.68 96.1791 217.68Z" fill="#FFEE58"/>
</g>
<defs>
<filter id="filter0_d_7_1213" x="0" y="0" width="258" height="322" filterUnits="userSpaceOnUse" color-interpolation-filters="sRGB">
<feFlood flood-opacity="0" result="BackgroundImageFix"/>
<feColorMatrix in="SourceAlpha" type="matrix" values="0 0 0 0 0 0 0 0 0 0 0 0 0 0 0 0 0 0 127 0" result="hardAlpha"/>
<feOffset dy="4"/>
<feGaussianBlur stdDeviation="2"/>
<feComposite in2="hardAlpha" operator="out"/>
<feColorMatrix type="matrix" values="0 0 0 0 0 0 0 0 0 0 0 0 0 0 0 0 0 0 0.25 0"/>
<feBlend mode="normal" in2="BackgroundImageFix" result="effect1_dropShadow_7_1213"/>
<feBlend mode="normal" in="SourceGraphic" in2="effect1_dropShadow_7_1213" result="shape"/>
</filter>
<linearGradient id="paint0_linear_7_1213" x1="318.742" y1="230.67" x2="458.992" y2="-29.9214" gradientUnits="userSpaceOnUse">
<stop stop-color="#2687D3"/>
<stop offset="1" stop-color="#ECB9BF"/>
</linearGradient>
<clipPath id="clip0_7_1213">
<rect width="129" height="192" fill="white" transform="translate(64 61)"/>
</clipPath>
</defs>
</svg>
