<svg width="258" height="322" viewBox="0 0 258 322" fill="none" xmlns="http://www.w3.org/2000/svg">
<g filter="url(#filter0_d_7_1117)">
<rect x="254" width="314" height="250" rx="20" transform="rotate(90 254 0)" fill="url(#paint0_linear_7_1117)"/>
<rect x="251.5" y="2.5" width="309" height="245" rx="17.5" transform="rotate(90 251.5 2.5)" stroke="white" stroke-width="5"/>
</g>
<g clip-path="url(#clip0_7_1117)">
<g style="mix-blend-mode:multiply" opacity="0.27">
<path d="M126.92 259.97C158.516 259.97 184.13 255.86 184.13 250.79C184.13 245.72 158.516 241.61 126.92 241.61C95.3237 241.61 69.71 245.72 69.71 250.79C69.71 255.86 95.3237 259.97 126.92 259.97Z" fill="#B9B8A7"/>
</g>
<path d="M169.98 144.1C172.77 158.09 178.32 171.53 186.2 183.42C188.14 186.35 187.96 190.18 185.74 192.91C184.26 194.74 182.63 196.43 180.71 197.8C177.13 200.35 172.28 201.57 168.27 199.78C165.33 198.46 163.27 195.76 161.41 193.13C156.11 185.63 151.3 177.7 148.23 169.04C145.16 160.38 143.9 150.94 145.78 141.95C153.89 140.4 162.06 141.79 169.98 144.11V144.1Z" fill="#90A4AE"/>
<path d="M176.76 160.6C175.61 149.53 169.86 139.9 160.55 133.84C157.5 131.85 154.67 136.73 157.7 138.71C173.18 148.8 176.25 172.59 164.5 186.72C163.07 188.44 164.93 191.53 167.08 190.07C176.03 183.99 177.79 170.62 176.75 160.61L176.76 160.6Z" fill="#01579B"/>
<path d="M122.05 202.71C120.63 210.79 125.83 218.64 130.95 225.93C135.35 232.2 139.9 238.83 140.33 245.71C140.47 247.97 142.57 249.95 145.63 250.6C148.8 251.27 152.21 251.68 155.17 251.66C157.37 251.66 159.86 251.35 161.07 250.05C162.28 248.75 160.6 246.46 158.54 247.01C158.92 237.84 160.39 227.26 165.53 218.83L122.04 202.7L122.05 202.71Z" fill="#90A4AE"/>
<path d="M85.1999 136.99C84.4999 143.85 83.7799 150.7 83.0999 157.56C81.6599 172.06 81.4199 186.73 82.5599 201.27C83.4399 212.4 88.7299 224.85 98.4499 231.03C109.08 237.78 121.8 236.7 133.71 235.01C145.37 233.36 159.79 231.51 168.63 222.95C175.95 215.87 176.66 205.57 175.35 196.01C173.04 179.13 169.55 162.38 166.71 145.55C142.57 155.78 108.35 149.15 85.1999 136.99Z" fill="#B0BEC5"/>
<path d="M163.44 123.98H86.5299C86.0799 128.31 85.65 132.65 85.2 136.98C108.35 149.14 142.57 155.76 166.71 145.54C166.21 142.59 165.73 139.63 165.28 136.67C164.64 132.44 164.03 128.21 163.43 123.98H163.44Z" fill="#90A4AE"/>
<path d="M85.7099 205.97C84.2899 214.05 89.4899 221.9 94.6099 229.19C99.0099 235.46 103.56 242.09 103.99 248.97C104.13 251.23 106.23 253.21 109.29 253.86C112.46 254.53 115.87 254.94 118.83 254.92C121.03 254.92 123.52 254.61 124.73 253.31C125.94 252.01 124.26 249.72 122.2 250.27C122.58 241.1 124.05 230.52 129.19 222.09L85.6999 205.96L85.7099 205.97Z" fill="#B0BEC5"/>
<path d="M111.21 167.97C108.98 153.84 98.03 132.47 81.63 131.59C79.03 131.45 77.89 135.42 80.28 136.59C85.78 139.27 90.54 141.27 94.67 146.06C99.25 151.35 102.53 158.13 104.4 164.82C106.7 173.03 106.2 181.82 99.18 187.53C93.95 191.78 87.13 193.6 80.77 195.48C77.41 196.47 78.81 201.51 82.21 200.72C99.19 196.78 114.32 187.72 111.21 167.97Z" fill="#01579B"/>
<path d="M110.327 212.438L115.002 181.49L56.3175 172.625L51.6424 203.574L110.327 212.438Z" fill="#7B1FA2"/>
<path d="M109.426 211.681L114.101 180.732L57.3845 172.164L52.7094 203.113L109.426 211.681Z" fill="#FFEBEE"/>
<path d="M110.954 208.249L115.629 177.3L56.9447 168.435L52.2696 199.384L110.954 208.249Z" fill="#8E24AA"/>
<path d="M111.152 206.924L115.626 177.3L56.9422 168.435L52.4673 198.059L111.152 206.924Z" fill="#AB47BC"/>
<path d="M102.29 166.18C95.0598 180.58 91.0398 196.58 90.6298 212.68C86.4398 213.99 82.1398 215.32 77.7498 215.13C73.3598 214.94 68.7798 212.92 66.7198 209.04C65.2098 206.19 65.2398 202.8 65.3998 199.58C65.8298 190.41 66.9098 181.19 69.8098 172.48C72.7098 163.77 77.5298 155.54 84.5298 149.6C91.8798 153.36 97.4598 159.48 102.29 166.18Z" fill="#B0BEC5"/>
<path d="M83.07 93.69C74.5099 87.33 62.5899 85.09 52.8699 89.48C43.1499 93.86 36.7699 105.46 39.7299 115.7C42.9699 126.94 55.0599 133.06 61.3699 142.91C64.5499 147.88 66.3199 153.89 70.7199 157.83C75.4999 162.11 82.81 162.98 88.77 160.61C94.73 158.24 99.2799 152.96 101.48 146.94C103.68 140.92 103.68 134.24 102.26 127.99L83.06 93.69H83.07Z" fill="#B0BEC5"/>
<path d="M84.9999 102.94C77.2599 97.44 66.4699 95.51 57.6899 99.3C48.8999 103.09 43.1399 113.11 45.8099 121.97C48.7399 131.69 59.6799 136.97 65.3799 145.49C68.2599 149.78 69.8599 154.99 73.8299 158.39C78.1499 162.09 84.7699 162.84 90.1499 160.8C95.5299 158.76 99.6599 154.19 101.65 148.98C103.64 143.77 103.64 138 102.36 132.6L84.9999 102.95V102.94Z" fill="#EF9A9A"/>
<path d="M90.0599 120.55C87.9999 115.25 79.9899 114.26 74.9299 114.38C69.1499 114.52 62.1799 116.3 59.5499 121.91C59.3599 122.32 59.8699 122.82 60.2299 122.43C67.3599 114.63 80.3899 116.35 88.0899 122.07C88.9999 122.75 90.4799 121.61 90.0599 120.55Z" fill="#E57373"/>
<path d="M90.99 123.21C88.76 119.9 84.13 124.1 82.27 125.93C79.07 129.08 76.96 133.12 76.15 137.52C76.06 138.02 76.79 138.43 77.03 137.89C78.39 134.86 80.1 132.06 82.33 129.6C83.28 128.54 84.28 127.53 85.39 126.64C87.07 125.29 88.53 125.15 90.45 124.51C90.96 124.34 91.32 123.71 90.98 123.21H90.99Z" fill="#E57373"/>
<path d="M92.9999 127.87C90.5199 128.27 88.6599 131.03 87.4899 133.06C86.0799 135.5 85.6199 138.04 85.4399 140.82C85.4199 141.21 86.0499 141.3 86.1299 140.91C86.5799 138.45 87.7399 136.08 89.1699 134.04C90.4899 132.15 92.6899 130.88 93.7999 128.9C94.1199 128.33 93.5899 127.78 93.0099 127.87H92.9999Z" fill="#E57373"/>
<path d="M136.55 73.86C140.03 63.78 148.61 55.2 159.11 53.34C169.61 51.48 181.41 57.45 184.76 67.57C188.43 78.68 181.89 90.55 182.25 102.25C182.43 108.15 184.36 114.11 182.95 119.84C181.42 126.07 175.88 130.92 169.62 132.32C163.37 133.73 156.63 131.93 151.41 128.21C146.19 124.48 142.42 118.97 140.07 113L136.56 73.85L136.55 73.86Z" fill="#B0BEC5"/>
<path d="M140.17 82.58C143.46 73.68 151.27 65.99 160.66 64.16C170.05 62.33 180.47 67.35 183.26 76.17C186.32 85.85 180.28 96.38 180.37 106.63C180.42 111.8 182.03 117 180.67 122.05C179.19 127.54 174.16 131.9 168.55 133.25C162.95 134.6 156.97 133.15 152.39 129.98C147.81 126.81 144.55 122.04 142.56 116.85L140.16 82.58H140.17Z" fill="#EF9A9A"/>
<path d="M145.93 99.97C144.65 94.43 150.69 89.09 154.93 86.34C159.78 83.19 166.54 80.74 171.88 83.88C172.27 84.11 172.12 84.81 171.62 84.69C161.33 82.27 151.55 91.05 148.42 100.11C148.05 101.18 146.19 101.08 145.93 99.97Z" fill="#E57373"/>
<path d="M146.67 102.7C146.64 98.71 152.84 99.56 155.4 100.02C159.82 100.82 163.84 102.96 167 106.14C167.36 106.5 166.98 107.25 166.48 106.95C163.65 105.22 160.66 103.88 157.43 103.1C156.05 102.77 154.66 102.49 153.23 102.38C151.08 102.22 149.8 102.92 147.85 103.48C147.33 103.63 146.68 103.31 146.68 102.7H146.67Z" fill="#E57373"/>
<path d="M147.63 107.68C149.91 106.61 152.99 107.84 155.11 108.85C157.65 110.07 159.47 111.9 161.18 114.1C161.42 114.41 160.94 114.85 160.67 114.56C158.91 112.79 156.62 111.49 154.29 110.6C152.13 109.78 149.6 109.97 147.57 108.97C146.98 108.68 147.11 107.93 147.64 107.68H147.63Z" fill="#E57373"/>
<path d="M147.11 133.87C133.62 144.52 113.4 146 98.7899 136.94C84.1799 127.88 76.4999 108.7 81.3499 92.21C86.1999 75.72 103.46 63.65 120.58 65.29C137.7 66.93 152.51 82.5 152.78 99.69C152.93 109.06 164.62 114.91 172.51 119.97C176.34 122.42 180.54 124.44 185.04 125.07C189.54 125.7 194.38 124.81 197.94 121.98C201.5 119.15 203.46 114.19 202.13 109.84C200.8 105.49 195.83 102.4 191.48 103.74C190.28 103.38 189.8 101.99 190 100.75C190.2 99.51 191.41 98.53 192.66 98.58C190.64 96.61 192.71 91.41 195.33 90.37C197.95 89.33 201.26 91.68 201.14 94.49C211.03 100.22 218.08 110.37 218.71 121.78C219.33 133.19 207.31 142.46 196 144.09C173.48 147.35 154.71 137.83 147.12 133.86L147.11 133.87Z" fill="#B0BEC5"/>
<path d="M125.73 114.06C125.56 113.47 125.29 112.91 125.05 112.34C124.73 111.58 124.5 110.82 123.85 110.26C122.66 109.24 120.25 109.41 119.94 111.29C119.68 112.9 120.33 114.58 120.98 116.05C121.5 117.21 123.15 117.58 124.22 117.11C125.38 116.6 126.08 115.32 125.72 114.05L125.73 114.06Z" fill="#212121"/>
<path d="M148.63 105.54C148.46 104.95 148.19 104.39 147.95 103.82C147.63 103.06 147.4 102.3 146.75 101.74C145.56 100.72 143.15 100.89 142.84 102.77C142.58 104.38 143.23 106.06 143.88 107.53C144.4 108.69 146.05 109.06 147.12 108.59C148.28 108.08 148.98 106.8 148.62 105.53L148.63 105.54Z" fill="#212121"/>
<path d="M116.35 89.88C114.94 88.86 112.63 89.65 111.24 90.36C109.66 91.17 108.31 92.39 107.61 94.03C107.2 95 108.12 96.34 109.21 95.63C110.36 94.88 111.53 94.05 112.82 93.55C114.07 93.06 115.64 92.97 116.63 92.04C117.33 91.38 117.04 90.39 116.35 89.89V89.88Z" fill="#212121"/>
<path d="M140.22 83.75C140.13 83.22 139.6 82.77 139.11 82.64C136.87 82.04 134.67 82.63 133.02 84.24C131.91 85.32 133.36 87.31 134.71 86.43C135.63 85.82 136.72 85.56 137.83 85.65C138.59 85.72 139.19 85.91 139.82 85.31C140.29 84.86 140.34 84.37 140.23 83.76L140.22 83.75Z" fill="#212121"/>
<path d="M159.31 117.06C154.77 116.58 150.86 121.92 150.64 125.98C150.57 127.2 152.53 127.82 153.04 126.63C153.79 124.92 154.56 123.39 155.87 122.03C157.11 120.74 158.69 119.93 160.02 118.78C160.75 118.15 160.09 117.14 159.31 117.06Z" fill="#90A4AE"/>
<path d="M167.07 123.99C166.01 125.17 165.66 126.74 165.43 128.28C165.22 129.69 164.98 131.19 165.55 132.53C165.82 133.16 166.64 132.85 166.84 132.36C167.35 131.1 167.24 129.62 167.56 128.28C167.86 127.03 168.35 125.83 168.42 124.54C168.46 123.87 167.52 123.48 167.08 123.98L167.07 123.99Z" fill="#90A4AE"/>
<path d="M179.64 129.39C179.41 128.78 178.73 128.57 178.22 129.02C176.92 130.19 177.4 132.73 177.77 134.21C178 135.12 179.39 134.92 179.39 133.99C179.39 133.19 179.49 132.42 179.58 131.63C179.67 130.91 179.89 130.08 179.63 129.39H179.64Z" fill="#90A4AE"/>
<path d="M189.46 129.19C189.16 128.58 188.25 128.65 187.93 129.19C187.51 129.9 187.62 130.68 187.85 131.45C188.09 132.28 188.43 132.71 189.01 133.32C189.43 133.76 190.04 133.29 189.95 132.77C189.76 131.62 189.99 130.26 189.47 129.19H189.46Z" fill="#90A4AE"/>
<path d="M199.1 126.99C198.32 126.85 197.62 127.77 198.28 128.41C199.19 129.29 200.07 130.18 201.4 130.28C201.72 130.3 202.04 129.97 202.03 129.65C201.94 128.08 200.53 127.24 199.11 126.99H199.1Z" fill="#90A4AE"/>
<path d="M208.36 121.61C207.33 120.46 205.48 120.58 204.29 121.37C203.64 121.8 203.86 122.87 204.7 122.87C205.62 122.87 206.29 123.43 207.11 123.76C207.51 123.92 208.08 123.73 208.37 123.43C208.44 123.35 208.51 123.26 208.57 123.17C208.91 122.69 208.73 122.01 208.37 121.61H208.36Z" fill="#90A4AE"/>
<path d="M209.85 112.38C209.41 111.34 207.73 111.25 206.78 111.36C205.66 111.49 204.77 112.04 204.14 112.93C203.81 113.4 204.36 113.85 204.8 113.79C205.84 113.64 206.92 113.59 207.95 113.83C208.54 113.97 209.11 114.12 209.61 113.65C209.97 113.31 210.05 112.84 209.85 112.37V112.38Z" fill="#90A4AE"/>
<path d="M206.02 102.57C205.83 101.73 204.97 101.31 204.17 101.37C203.27 101.44 202.54 101.9 202.16 102.72C201.76 103.57 202.73 104.35 203.46 103.72C203.78 103.44 204.19 103.43 204.59 103.42C204.67 103.42 205.04 103.35 205.14 103.32C205.24 103.32 205.54 103.32 205.6 103.32C205.93 103.27 206.09 102.86 206.02 102.58V102.57Z" fill="#90A4AE"/>
<path d="M99.5898 219.69C94.1198 226.25 89.4098 232.49 80.8298 235.22C72.3398 237.92 62.5698 235.63 56.2098 229.37C56.0398 229.2 55.6998 229.43 55.8598 229.64C68.0798 246.38 93.5898 237.62 100.71 220.34C100.96 219.72 99.9998 219.19 99.5898 219.69Z" fill="#B0BEC5"/>
<path d="M57.8899 228.94C57.6399 227.26 57.8699 225.26 56.8799 223.81C55.9299 222.41 53.7299 222.18 52.8299 223.81C51.5399 226.14 52.7499 228.88 54.4199 230.69C55.5299 231.89 57.1699 233.52 58.9499 233.24C59.0399 233.23 59.1099 233.12 59.0999 233.04C59.0399 231.61 58.0999 230.36 57.8899 228.94Z" fill="#90A4AE"/>
</g>
<defs>
<filter id="filter0_d_7_1117" x="0" y="0" width="258" height="322" filterUnits="userSpaceOnUse" color-interpolation-filters="sRGB">
<feFlood flood-opacity="0" result="BackgroundImageFix"/>
<feColorMatrix in="SourceAlpha" type="matrix" values="0 0 0 0 0 0 0 0 0 0 0 0 0 0 0 0 0 0 127 0" result="hardAlpha"/>
<feOffset dy="4"/>
<feGaussianBlur stdDeviation="2"/>
<feComposite in2="hardAlpha" operator="out"/>
<feColorMatrix type="matrix" values="0 0 0 0 0 0 0 0 0 0 0 0 0 0 0 0 0 0 0.25 0"/>
<feBlend mode="normal" in2="BackgroundImageFix" result="effect1_dropShadow_7_1117"/>
<feBlend mode="normal" in="SourceGraphic" in2="effect1_dropShadow_7_1117" result="shape"/>
</filter>
<linearGradient id="paint0_linear_7_1117" x1="318.742" y1="230.67" x2="458.992" y2="-29.9214" gradientUnits="userSpaceOnUse">
<stop stop-color="#F2AC34"/>
<stop offset="1" stop-color="#FC7634"/>
</linearGradient>
<clipPath id="clip0_7_1117">
<rect width="179.73" height="206.97" fill="white" transform="translate(39 53)"/>
</clipPath>
</defs>
</svg>
