<svg width="258" height="322" viewBox="0 0 258 322" fill="none" xmlns="http://www.w3.org/2000/svg">
<g filter="url(#filter0_d_7_1434)">
<rect x="254" y="1.04904e-05" width="314" height="250" rx="20" transform="rotate(90 254 1.04904e-05)" fill="url(#paint0_linear_7_1434)"/>
<rect x="251.5" y="2.50001" width="309" height="245" rx="17.5" transform="rotate(90 251.5 2.50001)" stroke="white" stroke-width="5"/>
</g>
<g clip-path="url(#clip0_7_1434)">
<g style="mix-blend-mode:multiply" opacity="0.27">
<path d="M126.999 281C166.73 281 198.938 276.459 198.938 270.857C198.938 265.255 166.73 260.713 126.999 260.713C87.2682 260.713 55.0601 265.255 55.0601 270.857C55.0601 276.459 87.2682 281 126.999 281Z" fill="#B9B8A7"/>
</g>
<path d="M192.434 171.897C194.885 182.439 195.868 193.477 193.671 204.074C191.485 214.67 185.875 224.802 177.064 231.067C167.943 237.553 156.128 239.41 144.998 238.172C135.579 237.123 126.105 233.797 119.413 227.09C110.878 218.537 108.04 205.797 107.598 193.72C106.549 165.588 116.818 137.18 135.612 116.23C140.294 111.015 147.681 104.407 154.582 108.938C160.931 113.114 166.651 120.871 171.2 126.86C181.315 140.163 188.647 155.6 192.423 171.886L192.434 171.897Z" fill="#645A7D"/>
<path d="M84.7851 100.374C64.7659 133.854 53.6245 177.754 53.9999 221.642C56.4954 225.731 61.0558 228.117 64.7549 226.824C74.494 211.952 85.26 199.82 97.3841 189.046C106.372 160.063 99.8023 123.788 84.7741 100.374H84.7851Z" fill="#7D441B"/>
<path d="M65.4063 157.92C67.9571 143.091 73.0585 127.247 81.7927 114.849C82.7644 113.468 84.8293 114.639 84.0674 116.186C77.8949 128.771 72.2855 140.959 69.4036 154.793C68.0123 161.467 67.0627 168.34 67.1289 175.168C67.162 178.671 67.4823 182.162 68.3546 185.566C68.7852 187.256 69.3373 188.869 70.0551 190.461C70.2317 190.847 71.082 193.389 71.5678 194.151C71.9653 194.339 72.1751 194.648 72.3628 195.157C72.5506 195.654 72.2524 196.449 71.7445 196.67C71.612 196.726 71.4684 196.792 71.3359 196.847C70.6182 197.168 70.044 197.079 69.4367 196.604C67.5927 195.179 66.7535 191.621 65.9805 189.422C64.8101 186.107 64.1917 182.604 63.9157 179.102C63.3636 172.041 64.2028 164.892 65.3953 157.942L65.4063 157.92Z" fill="#645A7D"/>
<path d="M144.964 50.1101C148.984 49.2593 153.246 49.624 157.055 51.1709C159.12 52.0106 161.185 53.3476 161.925 55.447C162.742 57.7895 161.572 60.5187 159.562 61.9773C157.563 63.4358 154.913 63.7783 152.462 63.4358C150.011 63.0933 147.692 62.132 145.406 61.1817" fill="#945A31"/>
<path d="M146.886 54.4305C149.58 54.0217 152.44 54.1984 154.991 54.9277C156.371 55.3255 157.762 55.9553 158.248 56.9387C158.8 58.0437 158.005 59.3254 156.669 60.0105C155.333 60.6955 153.555 60.8613 151.91 60.6955C150.265 60.5298 148.708 60.0768 147.173 59.6348" fill="#E57373"/>
<path d="M91.2116 50.9941C87.1922 50.1433 82.93 50.5079 79.1205 52.0548C77.0556 52.8946 74.9908 54.2316 74.251 56.331C73.4339 58.6735 74.6043 61.4027 76.614 62.8612C78.6126 64.3198 81.2627 64.6623 83.714 64.3198C86.1653 63.9772 88.4842 63.0159 90.7699 62.0657" fill="#945A31"/>
<path d="M89.2901 55.3144C86.5959 54.9056 83.736 55.0824 81.1853 55.8117C79.805 56.2094 78.4137 56.8393 77.9279 57.8227C77.3758 58.9276 78.1708 60.2094 79.5069 60.8944C80.854 61.5795 82.6207 61.7452 84.266 61.5795C85.9113 61.4138 87.4682 60.9607 89.003 60.5187" fill="#E57373"/>
<path d="M120.749 217.355C122.306 226.184 116.619 234.758 111.021 242.725C106.218 249.575 101.249 256.824 100.774 264.348C100.62 266.812 98.3338 268.989 94.9881 269.696C91.5209 270.426 87.7997 270.879 84.5754 270.857C82.1793 270.857 79.4519 270.514 78.1269 269.1C76.8018 267.685 78.6348 265.177 80.8874 265.774C80.4678 255.752 78.8667 244.183 73.2573 234.979L120.749 217.355Z" fill="#7D441B"/>
<path d="M83.2502 69.9218C84.9397 57.4801 88.429 43.2926 100.2 37.359C112.114 31.3481 130.742 33.6133 140.68 42.5191C153.919 54.3863 153.853 73.9328 155.421 90.2197C157.917 116.164 160.71 142.086 163.294 168.008C164.862 183.853 165.138 199.897 163.879 215.775C162.919 227.94 157.133 241.553 146.521 248.305C134.916 255.686 121.014 254.503 108.018 252.658C95.2861 250.846 79.5291 248.824 69.8783 239.476C61.8839 231.73 61.1109 220.482 62.5354 210.029C65.4946 188.339 70.2538 166.859 73.5332 145.18C77.0336 122.009 80.037 98.761 82.5988 75.4687C82.7975 73.6897 83.0073 71.8224 83.2723 69.9218H83.2502Z" fill="#945A31"/>
<path d="M160.434 220.913C161.991 229.741 156.305 238.316 150.706 246.283C145.903 253.133 140.934 260.382 140.459 267.906C140.305 270.37 138.019 272.547 134.673 273.254C131.206 273.984 127.485 274.437 124.26 274.415C121.864 274.415 119.137 274.072 117.812 272.658C116.487 271.243 118.32 268.735 120.572 269.332C120.153 259.31 118.552 247.741 112.942 238.537L160.434 220.902V220.913Z" fill="#945A31"/>
<path d="M107.719 68.0434C105.577 70.2754 104.307 73.5682 103.49 76.5847C102.629 79.7559 101.989 82.9823 101.492 86.2309C101.028 89.2916 100.509 92.3302 101.083 95.413C102.11 100.938 105.931 104.319 111.485 105.148C117.845 106.098 125.453 102.043 125.585 94.9821C125.674 90.2087 125.287 85.4243 124.459 80.7172C123.885 77.4686 123.465 74.0323 122.041 71.0157C120.594 67.9661 117.878 65.6457 114.4 65.4247C111.54 65.2369 109.376 66.3197 107.719 68.0434Z" fill="#FFB74D"/>
<path d="M107.764 67.8887C111.927 66.0545 116.995 66.4523 120.826 68.8942C119.943 71.9108 118.121 74.4632 115.361 75.9659C114.488 76.441 113.484 76.8167 112.512 76.6068C111.584 76.3968 110.855 75.6897 110.27 74.9383C108.68 72.9163 107.907 70.4522 107.753 67.8887H107.764Z" fill="#0B0000"/>
<path d="M111.672 81.8774C111.816 79.3692 111.96 76.7504 112.677 74.3306C112.821 73.8334 113.572 73.9218 113.583 74.4521C113.627 77.1151 113.229 79.778 113.185 82.452C113.141 84.7834 113.505 87.1811 112.986 89.4684C112.876 89.9767 112.18 89.9104 112.026 89.4684C111.209 87.0817 111.529 84.3635 111.672 81.8774Z" fill="#0B0000"/>
<path d="M108.636 91.7335C110.237 91.3468 111.242 90.3413 111.684 88.7612C111.893 88.0099 113.009 87.9988 113.218 88.7612C113.837 91.0706 115.868 91.3799 117.591 92.5733C117.746 92.6838 117.735 92.9269 117.536 92.9821C115.581 93.5235 113.649 92.4296 112.512 90.8385C111.75 92.065 110.546 92.949 109.067 93.3025C108.051 93.5456 107.609 91.9766 108.636 91.7335Z" fill="#0B0000"/>
<path d="M121.654 61.9773C121.997 61.5132 122.781 61.3806 123.09 61.9773C123.609 62.9828 122.88 64.607 123.962 65.3474C125.111 66.1319 125.862 63.9993 126.248 63.2811C126.612 62.6071 127.606 62.9496 127.628 63.6568C127.694 65.7451 125.95 68.1539 123.62 67.4136C122.681 67.1153 121.975 66.3087 121.621 65.4026C121.257 64.4524 121.036 62.8281 121.654 61.9662V61.9773Z" fill="#0B0000"/>
<path d="M101.216 61.1707C101.558 60.7066 102.342 60.574 102.651 61.1707C103.17 62.1762 102.441 63.8004 103.524 64.5408C104.672 65.3253 105.423 63.1927 105.809 62.4745C106.174 61.8005 107.167 62.143 107.19 62.8502C107.256 64.9385 105.511 67.3473 103.181 66.607C102.243 66.3087 101.536 65.5021 101.183 64.596C100.818 63.6457 100.597 62.0215 101.216 61.1596V61.1707Z" fill="#0B0000"/>
<path d="M122.196 172.87C123.156 161.599 128.28 149.721 134.143 140.152C140.006 130.583 147.957 122.363 158.237 117.622C160.246 116.694 162.024 119.633 159.993 120.639C150.364 125.379 142.877 132.882 137.301 141.998C131.692 151.18 126.524 162.76 125.795 173.621C125.011 185.378 130.731 196.692 138.438 205.212C146.378 213.985 156.437 219.488 165.536 226.78C167.07 228.018 165.116 230.283 163.504 229.421C152.705 223.62 141.608 214.946 133.834 205.455C126.414 196.394 121.169 184.792 122.196 172.859V172.87Z" fill="#645A7D"/>
<path d="M138.314 208.03L149.459 236.544L203.489 215.4L192.344 186.885L138.314 208.03Z" fill="#0D47A1"/>
<path d="M139.453 208.244L150.597 236.759L202.807 216.326L191.662 187.811L139.453 208.244Z" fill="#FFEBEE"/>
<path d="M139.828 211.896L150.972 240.411L205.002 219.266L193.858 190.751L139.828 211.896Z" fill="#42A5F5"/>
<path d="M140.303 213.115L150.969 240.406L204.999 219.261L194.333 191.971L140.303 213.115Z" fill="#1565C0"/>
<path d="M153.478 108.728C173.497 142.208 184.638 186.107 184.252 229.996C182.264 233.255 178.952 235.443 175.816 235.531C174.502 235.565 173.276 234.835 172.547 233.741C163.051 219.532 152.605 207.83 140.868 197.4C131.879 168.417 138.449 132.141 153.478 108.728Z" fill="#945A31"/>
<path d="M132.995 172.56C137.312 182.98 142.634 192.781 149.304 201.897C155.995 211.046 162.764 220.018 170.151 228.581C171.001 229.565 170.736 230.04 169.787 229.123C153.975 213.897 137.975 194.35 132.178 172.792C132.034 172.251 132.796 172.074 132.995 172.571V172.56Z" fill="#7D441B"/>
</g>
<defs>
<filter id="filter0_d_7_1434" x="0" y="0" width="258" height="322" filterUnits="userSpaceOnUse" color-interpolation-filters="sRGB">
<feFlood flood-opacity="0" result="BackgroundImageFix"/>
<feColorMatrix in="SourceAlpha" type="matrix" values="0 0 0 0 0 0 0 0 0 0 0 0 0 0 0 0 0 0 127 0" result="hardAlpha"/>
<feOffset dy="4"/>
<feGaussianBlur stdDeviation="2"/>
<feComposite in2="hardAlpha" operator="out"/>
<feColorMatrix type="matrix" values="0 0 0 0 0 0 0 0 0 0 0 0 0 0 0 0 0 0 0.25 0"/>
<feBlend mode="normal" in2="BackgroundImageFix" result="effect1_dropShadow_7_1434"/>
<feBlend mode="normal" in="SourceGraphic" in2="effect1_dropShadow_7_1434" result="shape"/>
</filter>
<linearGradient id="paint0_linear_7_1434" x1="318.742" y1="230.67" x2="458.992" y2="-29.9213" gradientUnits="userSpaceOnUse">
<stop stop-color="#E8C8AB"/>
<stop offset="1" stop-color="#FFD980"/>
</linearGradient>
<clipPath id="clip0_7_1434">
<rect width="151" height="247" fill="white" transform="translate(54 34)"/>
</clipPath>
</defs>
</svg>
