<svg width="258" height="322" viewBox="0 0 258 322" fill="none" xmlns="http://www.w3.org/2000/svg">
<g filter="url(#filter0_d_4_976)">
<rect x="254" width="314" height="250" rx="20" transform="rotate(90 254 0)" fill="url(#paint0_linear_4_976)"/>
<rect x="251.5" y="2.5" width="309" height="245" rx="17.5" transform="rotate(90 251.5 2.5)" stroke="white" stroke-width="5"/>
</g>
<g clip-path="url(#clip0_4_976)">
<path fill-rule="evenodd" clip-rule="evenodd" d="M204.396 130.754V130.785C202.481 144.414 196.1 160.877 187.586 168.119C186.201 169.286 184.765 170.224 183.287 170.859C183.287 170.859 180.278 172.047 175.282 173.36C168.141 175.256 156.931 177.424 144.627 176.84C144.627 176.84 139.652 175.517 137.32 173.027C137.32 173.027 108.289 173.527 94.5072 170.859C92.061 170.39 76.2912 154.407 74.6882 126.524C74.3031 119.741 74.7611 112.238 76.4474 104.09C76.4474 104.09 93.5496 84.147 126.224 80.9899C158.888 77.8431 170.754 83.1363 174.293 84.3762C182.475 87.2416 197.547 101.089 203.366 113.385C205.177 117.209 205.406 123.596 204.396 130.754Z" fill="url(#paint1_linear_4_976)"/>
<path fill-rule="evenodd" clip-rule="evenodd" d="M112.171 220.446C100.721 223.353 89.1152 222.436 89.1152 222.436C89.4483 219.446 91.603 217.779 91.603 217.779C95.5897 216.456 101.804 210.975 101.97 209.058C102.116 207.338 101.19 203.327 100.649 194.897C100.586 193.97 100.534 192.991 100.482 191.959C100.232 186.645 100.742 181.571 101.294 177.861C101.846 174.256 102.439 171.943 102.439 171.943L109.34 172.464C108.32 175.631 107.737 179.476 107.446 183.488C107.144 187.666 107.165 192.011 107.373 195.95C107.685 201.889 108.424 206.89 109.101 208.985C110.673 213.799 112.171 220.446 112.171 220.446Z" fill="url(#paint2_linear_4_976)"/>
<path fill-rule="evenodd" clip-rule="evenodd" d="M112.171 220.446C100.721 223.353 89.1152 222.436 89.1152 222.436C89.4483 219.446 91.603 217.779 91.603 217.779C95.5897 216.456 101.804 210.975 101.97 209.058C102.116 207.338 101.19 203.327 100.649 194.897C100.649 194.897 104.979 196.116 107.383 195.939C107.696 201.879 108.435 206.88 109.111 208.974C110.683 213.788 112.182 220.436 112.182 220.436L112.171 220.446Z" fill="url(#paint3_linear_4_976)"/>
<path style="mix-blend-mode:multiply" opacity="0.3" fill-rule="evenodd" clip-rule="evenodd" d="M105.905 106.445C105.905 106.445 111.911 116.865 116.408 118.699C120.894 120.522 134.114 120.209 139.547 115.969C144.981 111.728 144.221 101.485 144.221 101.485C144.221 101.485 146.98 104.476 147.896 106.445C148.812 108.425 139.225 124.586 133.01 126.065C122.56 128.556 106.623 120.897 106.623 120.897L104.26 115.969L105.905 106.445Z" fill="url(#paint4_linear_4_976)"/>
<path style="mix-blend-mode:multiply" opacity="0.3" fill-rule="evenodd" clip-rule="evenodd" d="M104.261 107.341C104.261 107.341 99.0352 117.625 95.7772 121.689C92.5191 125.763 87.6997 124.148 84.7227 122.21C81.7457 120.272 83.4528 109.404 83.4528 109.404C83.4528 109.404 80.4341 112.926 80.3925 115.781C80.3508 118.626 83.5985 129.066 86.3985 129.681C89.1986 130.306 97.9006 125.94 101.023 122.21C104.146 118.48 104.261 107.341 104.261 107.341Z" fill="url(#paint5_linear_4_976)"/>
<path fill-rule="evenodd" clip-rule="evenodd" d="M81.3501 153.406C81.3501 153.406 80.3196 155.751 78.3939 157.47C76.3537 159.325 73.3038 160.46 69.4525 157.314C67.4539 155.678 65.6844 153.511 64.1959 151.197C60.1467 144.987 57.9296 137.839 57.9296 137.839C55.5251 138.089 54.5258 137.506 54.5258 137.506C49.29 132.817 47 127.086 47 127.086C48.374 124.721 50.1436 124.013 50.1436 124.013L49.8937 122.856C51.2677 120.866 53.7867 120.084 53.7867 120.084L54.963 120.96C52.3503 115.916 50.9763 108.685 50.9763 108.685C52.7354 106.987 54.8277 107.383 54.8277 107.383C56.3786 110.686 59.3764 121.47 59.3764 121.47L61.6873 121.147L61.0003 108.258C63.1758 106.883 65.039 108.258 65.039 108.258C65.2888 111.613 65.3513 122.022 65.3513 122.022L68.4011 123.825C69.2131 126.451 69.5253 130.494 69.5253 130.494C68.2242 132.609 64.6539 135.422 64.6539 135.422C64.6539 135.422 66.3714 143.466 69.6711 148.217C70.5558 149.499 71.5759 150.551 72.6897 151.124C74.1782 151.896 75.573 151.416 76.6764 150.635C78.1129 149.614 79.0393 148.082 79.0393 148.082L81.3501 153.396V153.406Z" fill="url(#paint6_linear_4_976)"/>
<path style="mix-blend-mode:multiply" opacity="0.3" fill-rule="evenodd" clip-rule="evenodd" d="M88.6988 112.134C88.6988 112.134 89.0319 115.489 92.1859 115.969C95.3398 116.448 95.8603 112.884 95.8603 112.884C95.8603 112.884 96.5473 117.146 95.6105 118.542C94.6737 119.938 89.4379 120.459 88.4802 119.563C87.533 118.667 87.1375 113.708 87.1375 113.708L88.6884 112.145L88.6988 112.134Z" fill="url(#paint7_linear_4_976)"/>
<path style="mix-blend-mode:multiply" opacity="0.3" fill-rule="evenodd" clip-rule="evenodd" d="M150.435 96.6506C150.435 96.6506 162.01 106.32 170.473 105.32C178.935 104.319 181.267 99.3389 181.267 99.3389L178.811 94.525C178.811 94.525 185.035 100.433 185.597 102.142C186.159 103.84 176.927 111.707 172.773 111.759C168.62 111.811 154.432 106.039 150.435 96.6506Z" fill="url(#paint8_linear_4_976)"/>
<path style="mix-blend-mode:multiply" opacity="0.3" fill-rule="evenodd" clip-rule="evenodd" d="M111.526 86.6686C111.526 86.6686 113.91 88.69 122.05 86.1997C130.19 83.7094 131.178 80.5626 131.178 80.5626L136.862 80.2292C136.862 80.2292 119.437 91.7533 108.112 93.0662C108.112 93.0662 101.2 93.5664 97.2239 90.3258C97.2239 90.3258 103.011 90.8885 105.437 89.6382C107.862 88.3878 108.424 86.6581 108.424 86.6581L111.526 86.679V86.6686Z" fill="url(#paint9_linear_4_976)"/>
<path fill-rule="evenodd" clip-rule="evenodd" d="M69.6815 148.217C67.6829 152.146 64.4769 151.27 64.1959 151.187C60.1467 144.977 57.9296 137.829 57.9296 137.829C55.5251 138.079 54.5258 137.496 54.5258 137.496C49.29 132.817 47 127.086 47 127.086C48.374 124.721 50.1436 124.013 50.1436 124.013L49.8937 122.856C51.2677 120.866 53.7867 120.084 53.7867 120.084L54.963 120.96C52.3503 115.917 50.9763 108.685 50.9763 108.685C52.038 106.32 55.4002 106.455 55.4002 106.455C56.9511 109.758 59.4077 120.699 59.4077 120.699H61.3125L60.5631 107.945C62.7386 106.57 65.8509 108.519 65.8509 108.519C66.1007 111.874 65.3929 120.897 65.3929 120.897L68.4636 122.575C69.6711 125.628 69.5253 130.483 69.5253 130.483C68.2242 132.598 64.6539 135.412 64.6539 135.412C64.6539 135.412 66.3714 143.456 69.6711 148.207L69.6815 148.217Z" fill="url(#paint10_linear_4_976)"/>
<path style="mix-blend-mode:multiply" opacity="0.3" fill-rule="evenodd" clip-rule="evenodd" d="M118.261 103.079C118.261 103.079 121.717 106.487 125.287 106.445C128.857 106.403 129.763 103.246 129.763 103.246L131.179 107.331C131.179 107.331 126.286 111.759 124.413 111.759C122.539 111.759 118.25 103.079 118.25 103.079H118.261Z" fill="url(#paint11_linear_4_976)"/>
<path fill-rule="evenodd" clip-rule="evenodd" d="M112.171 220.446V222.572C112.171 222.572 102.095 225.489 89.1152 223.426V222.426C89.1152 222.426 101.304 223.176 112.171 220.436V220.446Z" fill="url(#paint12_linear_4_976)"/>
<path fill-rule="evenodd" clip-rule="evenodd" d="M116.398 82.5111L109.226 88.6379C109.226 88.6379 104.635 106.581 104.625 123.69C104.604 140.799 107.977 159.293 107.977 159.293C107.977 159.293 103.011 140.34 103.011 121.658C103.011 102.975 107.977 87.648 107.977 87.648V84.793L116.398 82.532V82.5111Z" fill="#F47F81"/>
<path fill-rule="evenodd" clip-rule="evenodd" d="M104.261 120.897C104.261 120.897 108.945 123.439 110.673 124.325C113.848 125.94 129.118 128.003 133.177 127.253C137.247 126.503 149.436 109.654 149.436 106.455C149.436 103.257 139.777 89.6173 134.125 89.6278C131.699 89.6278 119.364 98.5157 118.261 101.256C117.158 103.996 123.216 112.551 124.132 112.801C125.048 113.051 130.856 109.019 130.856 109.019L134.51 110.55L129.784 103.246L130.284 107.893C130.284 107.893 126.599 110.905 124.808 111.301C123.018 111.697 118.271 104.007 119.083 101.642C119.895 99.2763 130.658 91.795 134.583 92.1701C138.507 92.5453 146.595 103.507 146.657 106.997C146.72 110.488 137.57 125.253 133.032 126.055C126.838 127.159 113.431 123.752 111.068 121.752C108.705 119.751 104.969 113.405 104.969 113.405L104.282 120.876L104.261 120.897Z" fill="#F47F81"/>
<path fill-rule="evenodd" clip-rule="evenodd" d="M104.261 120.334C104.261 120.334 103.011 121.647 100.149 123.929C97.453 126.086 88.3867 130.848 85.6282 130.431C82.8698 130.014 78.4876 118.344 79.3203 114.02C80.153 109.696 88.4075 99.7556 91.8945 100.256C95.3816 100.756 97.5779 117.031 96.3288 119.188C95.0797 121.345 88.9487 120.272 88.1993 119.855C87.4498 119.438 86.3985 114.541 86.3985 114.541L84.3063 114.041L88.6989 112.134L87.4498 114.541C87.4498 114.541 88.2201 118.438 88.9383 119.334C89.6566 120.241 94.8091 119.209 95.7667 117.469C96.7244 115.729 95.0797 104.142 91.728 103.017C88.3762 101.892 81.1107 111.54 80.7255 114.729C80.3404 117.917 84.3167 128.889 87.2625 129.306C90.2082 129.723 96.7868 125.836 99.2121 123.325C101.637 120.814 103.626 109.852 103.626 109.852L104.25 120.334H104.261Z" fill="#F47F81"/>
<path fill-rule="evenodd" clip-rule="evenodd" d="M95.4337 90.0445C95.4337 90.0445 101.596 93.7018 106.166 94.525L107.987 94.2228C107.987 94.2228 131.491 85.6995 139.777 80L134.739 80.323C134.739 80.323 129.097 85.6579 117.324 90.0862C109.798 92.9204 107.977 91.0657 107.977 91.0657L106.801 91.3782C106.801 91.3782 105.427 92.9933 101.887 92.316C98.3379 91.6283 97.3698 89.0755 97.3698 89.0755L95.4233 90.0654L95.4337 90.0445Z" fill="#F47F81"/>
<path fill-rule="evenodd" clip-rule="evenodd" d="M164.821 81.6463C164.821 81.6463 150.956 84.0741 148.687 87.2625C146.418 90.4509 151.757 107.893 172.836 110.717C172.836 110.717 182.048 107.852 183.536 101.475C183.536 101.475 179.924 93.6081 169.973 89.6173C169.973 89.6173 164.998 88.9922 161.511 92.1076C161.511 92.1076 164.457 98.5887 168.932 100.746L172.836 100.412L166.944 103.569L167.444 101.475C167.444 101.475 162.468 97.3383 159.981 92.3577C159.981 92.3577 164.134 88.7838 170.598 88.5337C170.598 88.5337 181.881 94.2645 187.023 102.402C187.023 102.402 182.048 112.04 172.586 112.864C172.586 112.864 148.27 108.394 146.449 87.2521C146.449 87.2521 149.78 83.8865 155.838 82.0527V80.4272C155.838 80.4272 162.062 81.042 164.831 81.6567L164.821 81.6463Z" fill="#F47F81"/>
<path fill-rule="evenodd" clip-rule="evenodd" d="M74.6987 117.344C74.6987 117.344 77.249 136.047 79.2475 140.121C81.2357 144.195 85.5346 145.998 85.5346 145.998C85.5346 145.998 87.2105 137.339 94.7155 137.464C102.283 137.589 105.905 144.477 105.905 144.477C105.905 144.477 106.582 144.112 113.723 140.121C121.134 135.985 126.442 130.556 136.06 131.046C145.689 131.546 147.354 137.298 147.896 136.964C148.447 136.631 153.215 122.345 157.222 119.855C161.23 117.365 173.127 115.666 177.551 117.344C181.975 119.022 179.102 140.559 177.551 143.331C176 146.102 161.896 145.206 160.897 143.331C159.897 141.455 160.897 130.098 163.384 128.462C165.872 126.836 169.942 126.253 169.942 126.253L170.941 122.512V131.952L169.453 127.399C169.453 127.399 164.644 129.004 163.645 130.452C162.645 131.9 160.907 139.819 162.073 142.111C163.228 144.404 174.335 143.852 176.427 141.945C178.519 140.048 177.999 125.002 177.093 121.679C176.177 118.355 161.199 118.219 157.68 120.887C154.162 123.554 150.789 139.527 150.383 140.111C149.967 140.694 145.928 140.642 145.928 140.642C145.928 140.642 138.475 135.099 129.815 136.454C121.144 137.808 109.757 143.768 109.757 143.768L105.843 149.113C105.843 149.113 101.544 140.028 95.3088 140.694C89.0737 141.361 88.241 147.54 88.241 147.54L88.8551 150.937C88.8551 150.937 84.1814 148.342 80.1531 142.851C76.1248 137.36 74.7404 128.451 74.7404 128.451V117.334L74.6987 117.344Z" fill="#F47F81"/>
<path fill-rule="evenodd" clip-rule="evenodd" d="M140.38 172.683C140.38 172.683 148.937 158.147 154.162 156.897C159.387 155.647 164.488 160.262 165.612 162.503C166.736 164.743 164.821 168.515 164.821 168.515L160.949 169.546C160.949 169.546 164.998 165.462 164.821 163.295C164.644 161.127 159.481 158.126 154.412 159.252C149.343 160.377 146.043 170.442 146.043 170.442L147.885 171.787C147.885 171.787 141.609 173.099 140.37 172.683H140.38Z" fill="#F47F81"/>
<path fill-rule="evenodd" clip-rule="evenodd" d="M201.576 143.331C201.576 143.331 195.111 151.541 191.635 152.166C188.148 152.792 182.797 151.812 182.298 150.947C181.798 150.093 180.101 135.808 182.589 122.846C185.077 109.884 191.926 104.955 193.748 104.08C195.569 103.205 201.836 114.166 202.335 123.262C202.835 132.359 193.914 141.288 192.176 142.111C190.438 142.945 186.867 134.036 187.617 127.399C188.366 120.762 191.77 115.114 193.842 114.947C195.913 114.781 197.079 122.918 196.163 126.743C196.163 126.743 195.538 116.542 193.508 116.667C191.468 116.792 188.398 124.596 188.45 130.316C188.502 136.037 191.624 139.486 193.342 139.538C195.059 139.59 202.46 130.296 201.305 122.512C200.149 114.729 196.288 109.102 194.008 108.508C191.728 107.925 184.858 114.281 183.308 125.826C181.757 137.371 184.64 149.77 185.962 150.937C187.294 152.104 191.073 151.541 195.257 147.926C199.431 144.31 204.417 130.733 204.417 130.733C204.417 130.733 203.387 138.069 201.586 143.32L201.576 143.331Z" fill="#F47F81"/>
<path style="mix-blend-mode:multiply" opacity="0.5" fill-rule="evenodd" clip-rule="evenodd" d="M204.396 130.754V130.785C202.481 144.414 196.1 160.877 187.586 168.119L175.282 173.36C168.141 175.256 156.931 177.424 144.627 176.84C144.627 176.84 139.652 175.517 137.32 173.027C137.32 173.027 108.289 173.527 94.5072 170.859C92.061 170.39 76.2912 154.407 74.6882 126.524C74.6882 126.524 77.2385 135.953 82.0995 139.111C82.0995 139.111 86.5754 135.339 93.4246 134.912C100.263 134.474 104.458 138.308 104.458 138.308C104.458 138.308 107.061 136.672 114.295 133.807C121.508 130.942 127.608 128.785 135.665 128.879C143.711 128.993 148.395 135.964 148.395 135.964L153.173 128.879C153.173 128.879 153.433 131.963 157.201 133.307C160.98 134.651 162.25 132.505 162.25 132.505C162.25 132.713 162.302 136.829 165.955 138.308C169.723 139.83 179.581 134.401 179.737 130.452C179.737 130.452 179.852 133.38 181.35 133.797C182.849 134.213 188.491 128.826 188.491 128.826C188.491 128.826 194.872 133.13 199.712 131.358L204.396 130.744V130.754Z" fill="url(#paint13_linear_4_976)"/>
<path fill-rule="evenodd" clip-rule="evenodd" d="M99.2122 160.731C99.2122 160.731 101.336 164.587 109.705 165.066C118.073 165.545 127.941 161.721 127.941 161.721V162.107C127.941 162.107 119.198 169.359 110.392 168.869C101.585 168.369 99.2122 160.731 99.2122 160.731Z" fill="url(#paint14_linear_4_976)"/>
<path fill-rule="evenodd" clip-rule="evenodd" d="M89.5525 153.271C89.5525 153.271 91.5198 160.054 96.8389 159.606C102.148 159.148 103.022 149.968 103.022 149.968L89.5629 153.271H89.5525Z" fill="#CE5870"/>
<path fill-rule="evenodd" clip-rule="evenodd" d="M118.261 148.28C118.261 148.28 119.853 161.388 132.48 160.7C145.106 160.012 145.928 147.248 145.928 147.248L118.261 148.28Z" fill="#CE5870"/>
<path fill-rule="evenodd" clip-rule="evenodd" d="M104.458 164.159C104.458 164.159 106.051 166.723 110.298 166.723C114.045 166.723 116.939 164.607 116.939 164.607C116.939 164.607 109.923 165.962 104.469 164.159H104.458Z" fill="url(#paint15_linear_4_976)"/>
<path fill-rule="evenodd" clip-rule="evenodd" d="M117.522 141.809C117.522 141.809 116.804 153.031 124.985 157.491C132.761 161.721 142.056 157.658 144.544 152.51C147.032 147.363 145.897 140.663 145.897 140.663C145.897 140.663 133.208 130.525 117.522 141.82V141.809Z" fill="url(#paint16_linear_4_976)"/>
<path fill-rule="evenodd" clip-rule="evenodd" d="M142.66 147.936C142.66 151.802 139.527 154.948 135.655 154.948C131.782 154.948 128.649 151.812 128.649 147.936C128.649 144.06 131.782 140.924 135.655 140.924C139.527 140.924 142.66 144.06 142.66 147.936Z" fill="#37193E"/>
<g style="mix-blend-mode:multiply">
<path fill-rule="evenodd" clip-rule="evenodd" d="M118.084 147.561C118.084 147.561 126.037 144.445 134.874 144.696C143.711 144.946 145.887 147.946 145.887 147.946C145.887 147.946 146.251 143.226 145.887 140.663C145.887 140.663 142.535 135.985 132.48 135.985C122.425 135.985 117.511 141.82 117.511 141.82C117.511 141.82 117.511 145.602 118.074 147.571L118.084 147.561Z" fill="#D9CCDA"/>
</g>
<path fill-rule="evenodd" clip-rule="evenodd" d="M88.1992 147.561C88.1992 147.561 89.1777 159.252 96.2246 158.668C103.282 158.085 103.875 147.561 103.011 143.612C103.011 143.612 99.8366 139.486 94.6425 140.205C89.4483 140.924 88.1992 147.551 88.1992 147.551V147.561Z" fill="url(#paint17_linear_4_976)"/>
<path fill-rule="evenodd" clip-rule="evenodd" d="M102.148 151.093C102.033 154.375 100.045 156.98 97.7028 156.897C95.3608 156.814 93.5496 154.094 93.6641 150.801C93.7786 147.519 95.7667 144.914 98.1088 144.998C100.451 145.081 102.262 147.801 102.148 151.093Z" fill="#37193E"/>
<g style="mix-blend-mode:multiply">
<path fill-rule="evenodd" clip-rule="evenodd" d="M88.1992 147.561L88.8134 150.958C88.8134 150.958 91.7695 146.842 96.9741 146.321C101.97 145.821 103.251 148.645 103.251 148.645C103.251 148.645 103.573 145.79 103.011 143.622C103.011 143.622 100.524 139.986 95.7562 140.132C90.9993 140.278 88.1992 147.561 88.1992 147.561Z" fill="#D9CCDA"/>
</g>
<path fill-rule="evenodd" clip-rule="evenodd" d="M137.32 173.016C137.32 173.016 152.798 171.484 162.375 169.234C171.961 166.994 183.411 157.522 183.411 157.522C183.411 157.522 192.967 153.396 196.714 155.584C196.714 155.584 191.666 166.869 184.369 171.599C177.072 176.33 149.124 177.767 143.961 176.934C139.776 176.257 137.32 173.016 137.32 173.016Z" fill="url(#paint18_linear_4_976)"/>
<path style="mix-blend-mode:multiply" opacity="0.5" fill-rule="evenodd" clip-rule="evenodd" d="M50.2788 132.15C50.2788 132.15 53.9324 133.234 59.2827 131.608C64.633 129.993 65.4033 126.628 65.4033 126.628L65.0077 125.18C65.0077 125.18 51.861 129.535 50.2788 132.161V132.15Z" fill="url(#paint19_linear_4_976)"/>
<path fill-rule="evenodd" clip-rule="evenodd" d="M65.4032 120.897C65.4032 120.897 61.073 121.022 56.7741 122.21L54.9629 120.97L56.5243 121.22L59.4076 120.699H61.3125L61.2604 119.855L65.3928 120.908L65.4032 120.897Z" fill="#F47F81"/>
<path fill-rule="evenodd" clip-rule="evenodd" d="M47.5412 128.264C47.5412 128.264 50.2371 130.41 52.4751 130.827C52.4751 130.827 54.203 130.16 54.9629 128.889C54.9629 128.889 52.4959 125.628 50.1435 124.013L49.8936 122.856C49.8936 122.856 53.8491 125.628 56.1703 128.889C56.1703 128.889 58.0336 128.608 58.9912 127.409C58.9912 127.409 58.2834 125.419 56.7741 122.21C56.7741 122.21 58.4083 124.804 58.9912 125.263C58.9912 125.263 62.0619 125.721 65.0077 125.18C65.0077 125.18 58.1585 128.212 55.4209 129.743C52.6833 131.275 51.8089 132.442 51.8089 132.442L51.965 134.912C51.965 134.912 49.6022 132.39 47.5308 128.264H47.5412Z" fill="#F47F81"/>
<path fill-rule="evenodd" clip-rule="evenodd" d="M180.799 215.705C180.799 215.705 181.965 213.424 182.287 211.861C182.62 210.308 182.745 207.193 182.745 207.193C182.745 207.193 182.954 210.1 182.745 212.131C182.537 214.163 181.819 215.247 181.819 215.247L182.412 215.705H180.799Z" fill="#F47F81"/>
<path fill-rule="evenodd" clip-rule="evenodd" d="M184.359 209.975C184.359 209.975 184.088 213.215 182.412 215.705H180.799C180.799 215.705 180.237 217.008 179.362 218.258H177.811L176.375 219.946C176.375 219.946 174.761 220.196 173.825 218.696L173.939 217.206L172.138 216.456C172.138 216.456 171.951 212.017 173.325 207.974C173.325 207.974 173.762 204.056 173.138 201.639C173.138 201.639 172.347 201.587 172.159 203.337C172.159 203.494 172.159 207.87 171.056 210.204C171.056 210.204 168.724 210.735 167.6 209.422C167.6 209.422 168.381 207.047 168.506 203.567C168.62 200.076 168.1 198.273 168.162 197.659C168.235 197.033 170.473 194.658 172.95 193.418C172.95 193.418 173.95 187.072 173.221 178.882C172.763 173.454 171.524 167.212 168.766 161.482L168.63 161.502C167.964 161.586 165.237 161.659 164.862 157.585C164.446 152.927 167.184 148.613 171.004 149.197C171.004 149.197 171.857 150.676 173.065 154.011C174.626 158.324 176.781 165.774 178.446 177.174C179.196 182.269 179.841 188.156 180.289 194.918C180.289 194.918 183.849 204.431 184.348 209.995L184.359 209.975Z" fill="url(#paint20_linear_4_976)"/>
<path fill-rule="evenodd" clip-rule="evenodd" d="M184.359 209.975C184.359 209.975 184.088 213.215 182.412 215.705H180.799C180.799 215.705 180.237 217.008 179.362 218.258H177.811L176.375 219.946C176.375 219.946 174.762 220.196 173.825 218.696L173.939 217.206L172.138 216.456C172.138 216.456 171.951 212.017 173.325 207.974C173.325 207.974 173.762 204.056 173.138 201.639C173.138 201.639 172.347 201.587 172.159 203.337C172.159 203.494 172.159 207.87 171.056 210.204C171.056 210.204 168.724 210.735 167.6 209.422C167.6 209.422 168.381 207.047 168.506 203.567C168.62 200.076 168.1 198.273 168.162 197.659C168.235 197.033 170.473 194.658 172.95 193.418C172.95 193.418 173.95 187.072 173.221 178.882C173.221 178.882 174.772 176.83 178.446 177.163C179.196 182.258 179.841 188.145 180.289 194.908C180.289 194.908 183.849 204.421 184.348 209.985L184.359 209.975Z" fill="url(#paint21_linear_4_976)"/>
<path fill-rule="evenodd" clip-rule="evenodd" d="M173.95 217.206C173.95 217.206 175.823 213.424 176.698 211.1L177.53 206.536C177.53 206.536 177.364 210.235 177.072 211.6L173.96 217.206H173.95Z" fill="#F47F81"/>
<path fill-rule="evenodd" clip-rule="evenodd" d="M177.52 218.602C177.52 218.602 179.841 214.174 180.507 211.871L181.174 206.536C181.174 206.536 181.34 210.652 180.965 212.413C180.591 214.174 178.145 218.289 178.145 218.289L177.52 218.612V218.602Z" fill="#F47F81"/>
<path fill-rule="evenodd" clip-rule="evenodd" d="M169.432 224.177C157.649 225.5 146.449 222.572 146.449 222.572C147.562 211.59 147.5 201.774 146.99 193.793C146.688 189.177 146.24 185.186 145.782 181.925C144.908 175.725 143.982 172.183 143.982 172.183L149.79 171.609C149.79 171.609 151.58 176.403 152.528 183.644C152.652 184.655 152.777 185.718 152.871 186.812C152.986 188.27 153.1 189.823 153.215 191.438C153.662 197.961 154.131 205.265 155.328 209.214C156.712 213.778 168.225 218.956 168.225 218.956C169.89 221.28 169.474 224.187 169.474 224.187L169.432 224.177Z" fill="url(#paint22_linear_4_976)"/>
<path fill-rule="evenodd" clip-rule="evenodd" d="M169.432 224.177C157.649 225.5 146.449 222.572 146.449 222.572C147.563 211.59 147.5 201.774 146.99 193.793L153.183 191.428C153.631 197.95 154.099 205.255 155.296 209.204C156.681 213.767 168.193 218.946 168.193 218.946C169.859 221.269 169.442 224.177 169.442 224.177H169.432Z" fill="url(#paint23_linear_4_976)"/>
<path fill-rule="evenodd" clip-rule="evenodd" d="M146.449 222.572V224.52C146.449 224.52 157.462 227.25 169.474 225.302L169.432 224.177C169.432 224.177 161.261 224.708 146.449 222.572Z" fill="url(#paint24_linear_4_976)"/>
<g style="mix-blend-mode:multiply">
<path fill-rule="evenodd" clip-rule="evenodd" d="M152.496 183.634C149.332 180.81 145.991 181.842 145.762 181.914C144.887 175.715 143.961 172.172 143.961 172.172L149.769 171.599C149.769 171.599 151.56 176.392 152.507 183.634H152.496Z" fill="#5E364C"/>
</g>
<g style="mix-blend-mode:multiply">
<path fill-rule="evenodd" clip-rule="evenodd" d="M109.34 172.464C108.32 175.631 107.737 179.476 107.446 183.488C105.322 180.914 102.814 178.955 101.294 177.872C101.846 174.266 102.439 171.953 102.439 171.953L109.34 172.474V172.464Z" fill="#5E364C"/>
</g>
<g style="mix-blend-mode:multiply">
<path fill-rule="evenodd" clip-rule="evenodd" d="M173.075 153.99C168.839 154.823 168.776 161.461 168.776 161.461L168.641 161.482C167.975 161.565 165.248 161.638 164.873 157.564C164.457 152.906 167.194 148.592 171.014 149.176C171.014 149.176 171.868 150.656 173.075 153.99Z" fill="#5E364C"/>
</g>
<g style="mix-blend-mode:multiply">
<path fill-rule="evenodd" clip-rule="evenodd" d="M81.3502 153.406C81.3502 153.406 80.3197 155.751 78.394 157.47C79.6223 153.063 76.6765 150.645 76.6765 150.645C78.113 149.624 79.0394 148.092 79.0394 148.092L81.3502 153.406Z" fill="#5E364C"/>
</g>
<path fill-rule="evenodd" clip-rule="evenodd" d="M99.2122 123.325C99.2122 123.325 103.469 121.887 104.25 120.897L109.351 123.637C109.351 123.637 107.258 117.115 104.281 114.02C104.281 114.02 100.721 122.47 99.2122 123.325Z" fill="#CE5870"/>
<path fill-rule="evenodd" clip-rule="evenodd" d="M86.3985 114.541L84.2959 114.051L88.699 112.134L87.4499 114.541L87.7101 115.698L86.3985 114.541Z" fill="#CE5870"/>
<path fill-rule="evenodd" clip-rule="evenodd" d="M84.2958 126.263C84.2958 126.263 85.826 129.087 87.4185 129.327C89.0111 129.566 92.0298 128.107 92.0298 128.107C92.0298 128.107 88.397 130.639 86.4297 130.431C84.4519 130.223 84.2854 126.263 84.2854 126.263H84.2958Z" fill="#CE5870"/>
<path fill-rule="evenodd" clip-rule="evenodd" d="M126.109 126.013C126.109 126.013 131.283 126.982 133.77 125.815C135.384 125.055 139.548 121.085 139.548 121.085C139.548 121.085 136.04 126.409 133.177 127.243C130.315 128.076 126.109 126.013 126.109 126.013Z" fill="#CE5870"/>
<path fill-rule="evenodd" clip-rule="evenodd" d="M101.086 139.59L105.78 143.341L112.275 140.944L109.715 143.789L106.332 148.103C106.332 148.103 101.898 142.528 101.096 139.6L101.086 139.59Z" fill="#CE5870"/>
<path fill-rule="evenodd" clip-rule="evenodd" d="M86.3984 147.248C86.3984 147.248 86.5233 139.319 92.3212 137.756C98.1191 136.193 103.011 141.132 103.011 141.132V143.622C103.011 143.622 99.3994 139.434 94.6425 140.215C89.8855 140.997 86.3984 147.259 86.3984 147.259V147.248Z" fill="#CE5870"/>
<path fill-rule="evenodd" clip-rule="evenodd" d="M117.501 140.215C117.501 140.215 120.561 133.817 130.512 131.431C135.831 130.16 144.325 131.931 147.885 136.975V140.444C147.885 140.444 143.024 134.422 131.813 135.63C120.613 136.85 117.49 140.215 117.49 140.215H117.501Z" fill="#CE5870"/>
<path fill-rule="evenodd" clip-rule="evenodd" d="M117.074 142.122C117.074 142.122 122.633 134.526 134.249 134.526C143.878 134.526 147.885 140.444 147.885 140.444L145.876 140.663C145.876 140.663 141.005 136.474 133.406 136.474C123.611 136.474 117.064 142.122 117.064 142.122H117.074Z" fill="#4B3052"/>
<path fill-rule="evenodd" clip-rule="evenodd" d="M103.011 143.612C103.011 143.612 99.8991 138.319 94.8402 139.215C89.084 140.226 87.2312 146.759 86.3984 147.248L88.1992 147.561C88.1992 147.561 90.9368 141.101 95.267 140.715C99.5868 140.319 103.011 143.622 103.011 143.622V143.612Z" fill="#4B3052"/>
<path fill-rule="evenodd" clip-rule="evenodd" d="M161.729 138.319C161.729 138.319 161.48 141.861 162.625 142.726C163.78 143.601 169.286 143.727 169.286 143.727C169.286 143.727 163.551 145.071 161.709 143.935C159.866 142.799 161.729 138.319 161.729 138.319Z" fill="#CE5870"/>
<path fill-rule="evenodd" clip-rule="evenodd" d="M164.28 108.519C164.28 108.519 171.035 110.769 172.836 110.728C174.637 110.686 179.904 106.883 179.904 106.883C179.904 106.883 178.436 111.853 172.586 112.895C172.586 112.895 168.485 112.28 164.28 108.529V108.519Z" fill="#CE5870"/>
<path fill-rule="evenodd" clip-rule="evenodd" d="M166.944 103.58L167.444 101.485L168.027 100.245L168.932 100.756L172.836 100.422L166.944 103.58Z" fill="#CE5870"/>
<path fill-rule="evenodd" clip-rule="evenodd" d="M145.439 103.58C145.439 103.58 146.928 105.518 146.636 107.008C146.345 108.498 144.96 111.759 144.96 111.759C144.96 111.759 148.687 108.81 148.874 106.872C149.061 104.934 145.439 103.58 145.439 103.58Z" fill="#CE5870"/>
<path fill-rule="evenodd" clip-rule="evenodd" d="M101.887 92.3056C101.887 92.3056 105.822 94.1082 107.394 93.9832C108.966 93.8685 113.036 91.3574 113.036 91.3574C113.036 91.3574 109.538 91.8992 108.851 91.7742C108.164 91.6492 107.696 90.6176 107.696 90.6176C107.696 90.6176 106.696 91.8992 105.489 92.3056C104.271 92.712 101.877 92.3056 101.877 92.3056H101.887Z" fill="#CE5870"/>
<path fill-rule="evenodd" clip-rule="evenodd" d="M183.505 142.122C183.505 142.122 184.296 149.864 185.941 150.958C187.575 152.052 190.386 150.958 190.386 150.958C190.386 150.958 188.866 152.646 183.037 151.447C183.037 151.447 182.381 151.708 181.944 148.78C181.507 145.852 183.505 142.122 183.505 142.122Z" fill="#CE5870"/>
<path fill-rule="evenodd" clip-rule="evenodd" d="M188.595 132.317C188.595 132.317 188.616 139.131 193.321 139.538C193.321 139.538 194.58 139.267 196.038 137.339C196.038 137.339 195.455 140.715 192.155 142.111C192.155 142.111 188.137 139.444 188.585 132.307L188.595 132.317Z" fill="#CE5870"/>
<path fill-rule="evenodd" clip-rule="evenodd" d="M150.435 159.283C150.435 159.283 152.465 158.064 157.212 159.023C161.958 159.981 163.738 161.513 163.738 161.513C163.738 161.513 161.459 157.355 157.566 156.699C153.662 156.032 150.435 159.293 150.435 159.293V159.283Z" fill="#CE5870"/>
<path fill-rule="evenodd" clip-rule="evenodd" d="M179.591 96.0775C179.591 96.0775 183.817 100.568 183.536 101.485C183.255 102.402 183.245 103.59 181.569 105.236C181.569 105.236 184.838 104.205 185.587 102.152C186.336 100.099 179.591 96.0775 179.591 96.0775Z" fill="#CE5870"/>
<path fill-rule="evenodd" clip-rule="evenodd" d="M194.664 117.938C194.664 117.938 196.444 122.648 196.152 126.753C196.152 126.753 196.683 123.179 196.329 120.928C195.975 118.678 194.664 117.938 194.664 117.938Z" fill="#CE5870"/>
<path fill-rule="evenodd" clip-rule="evenodd" d="M95.2983 154.219C95.2983 154.834 94.7986 155.324 94.1949 155.324C93.5912 155.324 93.0916 154.823 93.0916 154.219C93.0916 153.615 93.5912 153.115 94.1949 153.115C94.7986 153.115 95.2983 153.615 95.2983 154.219Z" fill="white"/>
<path d="M129.596 153C130.516 153 131.262 152.254 131.262 151.333C131.262 150.412 130.516 149.666 129.596 149.666C128.677 149.666 127.931 150.412 127.931 151.333C127.931 152.254 128.677 153 129.596 153Z" fill="white"/>
<path fill-rule="evenodd" clip-rule="evenodd" d="M57.9192 137.839C57.9192 137.839 62.6657 137.152 64.6643 135.432L65.0078 136.86C65.0078 136.86 62.7907 141.215 59.4389 141.955L57.9192 137.839Z" fill="#F47F81"/>
<g style="mix-blend-mode:soft-light" opacity="0.7">
<path fill-rule="evenodd" clip-rule="evenodd" d="M168.183 218.946C168.183 218.946 157.649 218.946 151.757 214.049L156.754 211.454C156.754 211.454 160.303 216.039 168.183 218.946Z" fill="white"/>
</g>
<g style="mix-blend-mode:soft-light" opacity="0.7">
<path fill-rule="evenodd" clip-rule="evenodd" d="M91.603 217.779C91.603 217.779 99.8366 217.633 105.312 213.528L101.971 209.058C101.971 209.058 99.5868 214.393 91.603 217.779Z" fill="white"/>
</g>
<g style="mix-blend-mode:soft-light" opacity="0.7">
<path fill-rule="evenodd" clip-rule="evenodd" d="M120.062 94.5354C120.062 94.5354 117.511 100.266 114.711 101.485C114.711 101.485 112.786 104.392 112.536 105.236C112.286 106.08 115.398 111.165 118.948 112.884C122.497 114.604 126.109 114.354 126.109 114.354C126.109 114.354 133.01 111.967 137.549 111.759C137.549 111.759 135.436 114.854 131.543 115.729C127.65 116.604 126.671 114.791 126.099 114.697C125.526 114.604 120.988 115.719 115.95 113.916C110.912 112.113 110.162 107.508 110.537 105.914C110.912 104.33 113.618 103.09 114.368 101.485C115.117 99.8807 114.243 99.4431 115.024 97.3174C115.804 95.1918 120.062 94.5354 120.062 94.5354Z" fill="white"/>
</g>
<g style="mix-blend-mode:soft-light" opacity="0.7">
<path fill-rule="evenodd" clip-rule="evenodd" d="M126.109 98.5157C126.109 98.5157 130.19 94.2957 133.927 94.5354C137.663 94.775 142.785 101.652 142.67 104.028C142.67 104.028 140.776 102.423 138.736 100.235C136.706 98.0468 137.122 96.5881 135.956 95.6399C134.791 94.6917 133.677 94.8063 133.177 95.0564C132.678 95.3064 131.48 98.0468 129.44 98.2135C127.411 98.3802 126.109 98.5053 126.109 98.5053V98.5157Z" fill="white"/>
</g>
<g style="mix-blend-mode:soft-light" opacity="0.7">
<path fill-rule="evenodd" clip-rule="evenodd" d="M167.017 84.3971C167.017 84.3971 154.828 86.2205 153.006 88.2211C151.185 90.2112 155.161 96.6089 157.732 97.6092C157.732 97.6092 158.398 95.5774 157.691 93.8269C156.983 92.0868 153.173 91.0448 153.09 89.6277C153.006 88.2211 154.828 86.6686 158.523 86.6477C162.219 86.6373 166.632 86.5748 167.017 84.3867V84.3971Z" fill="white"/>
</g>
<g style="mix-blend-mode:soft-light" opacity="0.7">
<path fill-rule="evenodd" clip-rule="evenodd" d="M140.849 125.18C140.849 125.18 146.667 124.013 148.884 120.897C151.102 117.782 150.581 115.375 152.538 112.884C154.495 110.394 162.021 111.311 164.279 112.884C164.279 112.884 164.436 114.322 162.26 114.031C160.085 113.739 159.117 111.874 156.91 111.769C154.693 111.665 152.944 112.28 152.548 113.301C152.153 114.333 153.735 117.167 153.11 120.095C152.486 123.023 149.561 122.106 146.449 124.283C143.336 126.461 142.66 126.524 142.66 126.524C142.66 126.524 141.088 126.722 140.838 125.19L140.849 125.18Z" fill="white"/>
</g>
<g style="mix-blend-mode:soft-light" opacity="0.7">
<path fill-rule="evenodd" clip-rule="evenodd" d="M89.5317 96.6506C89.5317 96.6506 94.2054 95.0251 96.0999 95.692C97.9943 96.3588 100.232 102.506 100.232 102.506C100.232 102.506 100.784 97.3174 98.6605 94.004C96.5371 90.6906 89.5317 96.661 89.5317 96.661V96.6506Z" fill="white"/>
</g>
<g style="mix-blend-mode:soft-light" opacity="0.7">
<path fill-rule="evenodd" clip-rule="evenodd" d="M187.024 141.955C187.024 141.955 184.754 134.661 184.369 128.462C183.974 122.272 186.815 119.084 187.315 117.927C187.815 116.781 191.177 111.446 193.748 111.332C196.319 111.217 197.943 116.031 197.943 116.031C197.943 116.031 195.996 111.457 193.998 111.759C191.999 112.061 191.468 114.249 190.594 115.333C189.719 116.417 187.523 117.198 186.399 120.689C185.275 124.179 187.19 130.692 187.44 133.807C187.69 136.923 187.024 141.955 187.024 141.955Z" fill="white"/>
</g>
<g style="mix-blend-mode:soft-light" opacity="0.7">
<path fill-rule="evenodd" clip-rule="evenodd" d="M154.495 135.141C154.495 135.141 156.473 127.316 158.065 123.637C159.658 119.959 166.486 119.147 171.399 120.397C171.399 120.397 170.712 121.856 168.537 122.345C166.361 122.835 162.624 121.522 160.886 121.835C159.148 122.137 160.47 125.513 159.772 129.368C159.075 133.224 154.495 135.141 154.495 135.141Z" fill="white"/>
</g>
<g style="mix-blend-mode:soft-light" opacity="0.7">
<path fill-rule="evenodd" clip-rule="evenodd" d="M88.168 133.817C88.168 133.817 89.8542 130.077 98.5667 130.452C98.5667 130.452 92.5294 133.984 88.168 133.817Z" fill="white"/>
</g>
<g style="mix-blend-mode:soft-light" opacity="0.7">
<path fill-rule="evenodd" clip-rule="evenodd" d="M140.38 162.638C140.38 162.638 143.597 153.688 150.435 153.115C150.435 153.115 148.874 160.523 140.38 162.638Z" fill="white"/>
</g>
<path fill-rule="evenodd" clip-rule="evenodd" d="M86.3984 109.884C86.3984 109.884 88.1159 106.247 90.3643 106.455C92.6127 106.664 93.383 108.164 93.383 108.164C93.383 108.164 87.2624 109.123 86.4088 109.884H86.3984Z" fill="white"/>
<path fill-rule="evenodd" clip-rule="evenodd" d="M117.605 84.3971C117.605 84.3971 121.81 86.2309 126.848 82.5111C126.848 82.5111 121.342 81.4066 117.605 84.3971Z" fill="white"/>
<path fill-rule="evenodd" clip-rule="evenodd" d="M126.109 98.5157C126.109 98.5157 128.982 99.5889 130.731 97.7446C132.48 95.9004 132.823 94.525 132.823 94.525C132.823 94.525 127.421 95.692 126.109 98.5157Z" fill="white"/>
<path fill-rule="evenodd" clip-rule="evenodd" d="M126.109 114.354C126.109 114.354 133.947 111.092 137.549 111.759C137.549 111.759 136.612 114.729 131.543 115.729C126.474 116.729 126.099 114.354 126.099 114.354H126.109Z" fill="white"/>
<path fill-rule="evenodd" clip-rule="evenodd" d="M155.067 87.2625C155.067 87.2625 158.294 84.8034 167.017 84.3867C167.017 84.3867 167.069 86.6269 163.998 87.002C160.928 87.3771 155.067 87.2625 155.067 87.2625Z" fill="white"/>
<path fill-rule="evenodd" clip-rule="evenodd" d="M161.042 120.939C161.042 120.939 164.685 122.543 167.61 122.45C170.535 122.356 171.41 120.397 171.41 120.397C171.41 120.397 166.049 118.907 161.053 120.939H161.042Z" fill="white"/>
<path fill-rule="evenodd" clip-rule="evenodd" d="M189.438 114.635C189.438 114.635 190.552 111.238 192.832 110.926C195.111 110.613 196.048 112.593 196.048 112.593C196.048 112.593 194.32 112.082 191.874 113.353L189.438 114.635Z" fill="white"/>
<g style="mix-blend-mode:soft-light">
<path fill-rule="evenodd" clip-rule="evenodd" d="M114.899 169.869C114.899 169.869 118.396 167.817 121.633 167.629C121.633 167.629 119.687 171.172 114.899 169.869Z" fill="white"/>
</g>
</g>
<defs>
<filter id="filter0_d_4_976" x="0" y="0" width="258" height="322" filterUnits="userSpaceOnUse" color-interpolation-filters="sRGB">
<feFlood flood-opacity="0" result="BackgroundImageFix"/>
<feColorMatrix in="SourceAlpha" type="matrix" values="0 0 0 0 0 0 0 0 0 0 0 0 0 0 0 0 0 0 127 0" result="hardAlpha"/>
<feOffset dy="4"/>
<feGaussianBlur stdDeviation="2"/>
<feComposite in2="hardAlpha" operator="out"/>
<feColorMatrix type="matrix" values="0 0 0 0 0 0 0 0 0 0 0 0 0 0 0 0 0 0 0.25 0"/>
<feBlend mode="normal" in2="BackgroundImageFix" result="effect1_dropShadow_4_976"/>
<feBlend mode="normal" in="SourceGraphic" in2="effect1_dropShadow_4_976" result="shape"/>
</filter>
<linearGradient id="paint0_linear_4_976" x1="254" y1="125" x2="568" y2="125" gradientUnits="userSpaceOnUse">
<stop stop-color="#8457A1"/>
<stop offset="1" stop-color="#203241"/>
</linearGradient>
<linearGradient id="paint1_linear_4_976" x1="145.793" y1="177.851" x2="134.925" y2="80.0024" gradientUnits="userSpaceOnUse">
<stop offset="0.02" stop-color="#FF8E89"/>
<stop offset="1" stop-color="#FFB388"/>
</linearGradient>
<linearGradient id="paint2_linear_4_976" x1="100.649" y1="222.572" x2="100.649" y2="171.943" gradientUnits="userSpaceOnUse">
<stop stop-color="#684A72"/>
<stop offset="0.99" stop-color="#46255E"/>
</linearGradient>
<linearGradient id="paint3_linear_4_976" x1="100.649" y1="222.572" x2="100.649" y2="194.897" gradientUnits="userSpaceOnUse">
<stop offset="0.02" stop-color="#FFA993"/>
<stop offset="1" stop-color="#FFCFA9"/>
</linearGradient>
<linearGradient id="paint4_linear_4_976" x1="126.109" y1="126.565" x2="126.109" y2="101.485" gradientUnits="userSpaceOnUse">
<stop offset="0.02" stop-color="#E08893"/>
<stop offset="0.33" stop-color="#ECB9BF"/>
<stop offset="0.62" stop-color="#F6DFE2"/>
<stop offset="0.85" stop-color="#FCF6F7"/>
<stop offset="1" stop-color="white"/>
</linearGradient>
<linearGradient id="paint5_linear_4_976" x1="92.3213" y1="129.743" x2="92.3213" y2="107.341" gradientUnits="userSpaceOnUse">
<stop offset="0.02" stop-color="#E08893"/>
<stop offset="0.33" stop-color="#ECB9BF"/>
<stop offset="0.62" stop-color="#F6DFE2"/>
<stop offset="0.85" stop-color="#FCF6F7"/>
<stop offset="1" stop-color="white"/>
</linearGradient>
<linearGradient id="paint6_linear_4_976" x1="64.175" y1="159.283" x2="64.175" y2="107.341" gradientUnits="userSpaceOnUse">
<stop stop-color="#46255E"/>
<stop offset="1" stop-color="#684A72"/>
</linearGradient>
<linearGradient id="paint7_linear_4_976" x1="91.6238" y1="120.001" x2="91.6238" y2="112.134" gradientUnits="userSpaceOnUse">
<stop offset="0.02" stop-color="#E08893"/>
<stop offset="0.33" stop-color="#ECB9BF"/>
<stop offset="0.62" stop-color="#F6DFE2"/>
<stop offset="0.85" stop-color="#FCF6F7"/>
<stop offset="1" stop-color="white"/>
</linearGradient>
<linearGradient id="paint8_linear_4_976" x1="168.027" y1="111.759" x2="168.027" y2="94.5354" gradientUnits="userSpaceOnUse">
<stop offset="0.02" stop-color="#E08893"/>
<stop offset="0.33" stop-color="#ECB9BF"/>
<stop offset="0.62" stop-color="#F6DFE2"/>
<stop offset="0.85" stop-color="#FCF6F7"/>
<stop offset="1" stop-color="white"/>
</linearGradient>
<linearGradient id="paint9_linear_4_976" x1="117.043" y1="93.0766" x2="117.043" y2="80.2188" gradientUnits="userSpaceOnUse">
<stop offset="0.02" stop-color="#E08893"/>
<stop offset="0.33" stop-color="#ECB9BF"/>
<stop offset="0.62" stop-color="#F6DFE2"/>
<stop offset="0.85" stop-color="#FCF6F7"/>
<stop offset="1" stop-color="white"/>
</linearGradient>
<linearGradient id="paint10_linear_4_976" x1="58.3355" y1="151.333" x2="58.3355" y2="106.445" gradientUnits="userSpaceOnUse">
<stop offset="0.02" stop-color="#FFA993"/>
<stop offset="1" stop-color="#FFCFA9"/>
</linearGradient>
<linearGradient id="paint11_linear_4_976" x1="124.725" y1="111.759" x2="124.725" y2="103.079" gradientUnits="userSpaceOnUse">
<stop offset="0.02" stop-color="#E08893"/>
<stop offset="0.33" stop-color="#ECB9BF"/>
<stop offset="0.62" stop-color="#F6DFE2"/>
<stop offset="0.85" stop-color="#FCF6F7"/>
<stop offset="1" stop-color="white"/>
</linearGradient>
<linearGradient id="paint12_linear_4_976" x1="89.1152" y1="222.301" x2="112.171" y2="222.301" gradientUnits="userSpaceOnUse">
<stop stop-color="#9B1A43"/>
<stop offset="1" stop-color="#731653"/>
</linearGradient>
<linearGradient id="paint13_linear_4_976" x1="139.547" y1="176.934" x2="139.547" y2="126.513" gradientUnits="userSpaceOnUse">
<stop offset="0.02" stop-color="#E08893"/>
<stop offset="1" stop-color="#FFD1C7"/>
</linearGradient>
<linearGradient id="paint14_linear_4_976" x1="113.577" y1="168.89" x2="113.577" y2="160.731" gradientUnits="userSpaceOnUse">
<stop stop-color="#9B1A43"/>
<stop offset="1" stop-color="#731653"/>
</linearGradient>
<linearGradient id="paint15_linear_4_976" x1="110.693" y1="166.723" x2="110.693" y2="164.159" gradientUnits="userSpaceOnUse">
<stop offset="0.02" stop-color="#FBC9CE"/>
<stop offset="1" stop-color="white"/>
</linearGradient>
<linearGradient id="paint16_linear_4_976" x1="131.824" y1="159.252" x2="131.824" y2="136.474" gradientUnits="userSpaceOnUse">
<stop stop-color="white"/>
<stop offset="0.98" stop-color="#FBC9CE"/>
</linearGradient>
<linearGradient id="paint17_linear_4_976" x1="95.7562" y1="158.689" x2="95.7562" y2="140.121" gradientUnits="userSpaceOnUse">
<stop stop-color="white"/>
<stop offset="0.98" stop-color="#FBC9CE"/>
</linearGradient>
<linearGradient id="paint18_linear_4_976" x1="137.32" y1="166.056" x2="196.714" y2="166.056" gradientUnits="userSpaceOnUse">
<stop stop-color="#B54263"/>
<stop offset="0.98" stop-color="#D8474D"/>
</linearGradient>
<linearGradient id="paint19_linear_4_976" x1="50.2788" y1="128.837" x2="65.4033" y2="128.837" gradientUnits="userSpaceOnUse">
<stop offset="0.02" stop-color="#E08893"/>
<stop offset="1" stop-color="#FFD1C7"/>
</linearGradient>
<linearGradient id="paint20_linear_4_976" x1="174.595" y1="219.957" x2="174.595" y2="149.124" gradientUnits="userSpaceOnUse">
<stop stop-color="#684A72"/>
<stop offset="0.99" stop-color="#46255E"/>
</linearGradient>
<linearGradient id="paint21_linear_4_976" x1="175.979" y1="219.957" x2="175.979" y2="177.121" gradientUnits="userSpaceOnUse">
<stop offset="0.02" stop-color="#FFA993"/>
<stop offset="1" stop-color="#FFCFA9"/>
</linearGradient>
<linearGradient id="paint22_linear_4_976" x1="156.712" y1="224.52" x2="156.712" y2="171.599" gradientUnits="userSpaceOnUse">
<stop stop-color="#684A72"/>
<stop offset="0.99" stop-color="#46255E"/>
</linearGradient>
<linearGradient id="paint23_linear_4_976" x1="157.961" y1="224.52" x2="157.961" y2="191.428" gradientUnits="userSpaceOnUse">
<stop offset="0.02" stop-color="#FFA993"/>
<stop offset="1" stop-color="#FFCFA9"/>
</linearGradient>
<linearGradient id="paint24_linear_4_976" x1="146.449" y1="224.291" x2="169.474" y2="224.291" gradientUnits="userSpaceOnUse">
<stop stop-color="#9B1A43"/>
<stop offset="1" stop-color="#731653"/>
</linearGradient>
<clipPath id="clip0_4_976">
<rect width="158" height="146" fill="white" transform="translate(47 80)"/>
</clipPath>
</defs>
</svg>
