<svg width="258" height="322" viewBox="0 0 258 322" fill="none" xmlns="http://www.w3.org/2000/svg">
<g filter="url(#filter0_d_7_1351)">
<rect x="254" y="1.04904e-05" width="314" height="250" rx="20" transform="rotate(90 254 1.04904e-05)" fill="url(#paint0_linear_7_1351)"/>
<rect x="251.5" y="2.50001" width="309" height="245" rx="17.5" transform="rotate(90 251.5 2.50001)" stroke="white" stroke-width="5"/>
</g>
<g clip-path="url(#clip0_7_1351)">
<g style="mix-blend-mode:multiply" opacity="0.27">
<path d="M64.7385 231.353C64.7385 237.581 96.1448 242.63 134.869 242.63C173.594 242.63 205 237.581 205 231.353C205 225.125 173.594 220.076 134.869 220.076C96.1448 220.076 64.7385 225.125 64.7385 231.353Z" fill="#B9B8A7"/>
</g>
<path d="M175.004 185.017C168.997 181.602 162.181 179.649 155.267 179.673L155.243 195.188C156.861 201.011 157.584 207.079 157.462 213.123C167.71 207.669 174.93 196.453 175.004 185.017Z" fill="#B85630"/>
<path d="M193.845 207.522C190.707 197.989 183.707 189.967 175.004 185.017C174.918 196.441 167.71 207.669 157.462 213.123C157.413 215.261 157.265 217.386 157.008 219.511C168.041 210.863 185.313 213.664 190.94 224.965C192.08 226.98 193.158 229.13 194.053 231.365C196.296 223.602 196.382 215.224 193.845 207.534V207.522Z" fill="#DB744B"/>
<path d="M100.693 155.608C100.668 161.112 98.4125 166.578 94.5388 170.484C90.6651 174.391 85.2346 176.688 79.7428 176.749C78.2228 176.762 76.4085 176.749 75.5627 178.027C74.5207 179.587 75.8691 181.639 77.3034 182.855C82.6603 187.388 90.3342 189.009 97.0641 187.044C103.794 185.078 109.384 179.575 111.48 172.868L100.705 155.633L100.693 155.608Z" fill="#DB744B"/>
<path d="M109.188 227.717C107.484 227.115 106.099 229.646 107.092 231.083C108.097 232.52 110.156 232.852 111.97 232.864C114.422 232.876 117.242 232.434 119.865 231.685C122.402 230.972 124.131 228.773 124.253 226.267C124.474 221.538 126.019 216.907 128.017 212.411C120.404 212.276 112.914 209.634 106.221 204.61C108.219 212.128 108.943 220.322 109.175 227.717H109.188Z" fill="#DB744B"/>
<path d="M139.405 178.654L103.414 196.515C104.579 199.058 105.486 201.797 106.246 204.61C112.939 209.634 120.441 212.276 128.041 212.411C129.267 209.671 130.665 206.981 132.038 204.365C136.279 196.294 140.582 187.596 139.405 178.654Z" fill="#B85630"/>
<path d="M98.8661 114.652C102.139 132.477 102.004 150.928 98.4739 168.716C97.0151 176.086 95.0047 183.936 97.8242 190.901C100.251 196.908 105.988 201.097 112.118 203.185C118.247 205.261 124.83 205.519 131.302 205.704C141.501 205.986 153.085 205.556 159.84 197.891C164.179 192.965 165.466 186.061 165.908 179.501C167.452 156.726 160.698 133.472 147.201 115.082L98.8784 114.665L98.8661 114.652Z" fill="#DB744B"/>
<path d="M163.125 182.191C164.302 191.134 159.999 199.819 155.758 207.902C152.117 214.843 148.353 222.189 147.986 229.805C147.863 232.311 146.135 234.51 143.597 235.223C140.974 235.972 138.154 236.414 135.703 236.402C133.888 236.402 131.817 236.058 130.824 234.621C129.819 233.183 131.216 230.653 132.92 231.255C132.601 221.096 131.388 209.389 127.134 200.053L163.125 182.191Z" fill="#DB744B"/>
<path d="M99.1478 129.455C98.253 139.958 101.857 150.842 109.286 160.08C109.592 159.294 109.886 158.52 110.193 157.733C113.858 161.259 117.523 164.772 121.189 168.298C123.726 166.541 126.276 164.772 128.813 163.016C128.433 164.404 128.053 165.792 127.673 167.192C141.771 166.038 161.997 133.804 157.989 120.991L99.1478 129.455Z" fill="#E8C8AB"/>
<path d="M68.5139 66.928C72.4121 76.1658 81.0176 83.2907 90.8366 85.293L98.3388 75.3919C89.8927 69.1761 79.2769 66.2155 68.5139 66.928Z" fill="#B85630"/>
<path d="M85.9823 61.7686C79.7796 61.0193 73.3316 62.5057 68.085 65.8962C68.2198 66.2401 68.3669 66.5841 68.514 66.928C79.277 66.2155 89.8928 69.1761 98.3389 75.3919L102.384 70.0482C98.0937 65.5031 92.1851 62.518 85.9823 61.7686Z" fill="#DB744B"/>
<path d="M164.694 59.103C161.666 68.6724 153.76 76.5712 144.173 79.4703L135.789 70.3062C143.622 63.3287 153.919 59.3855 164.706 59.0907L164.694 59.103Z" fill="#B85630"/>
<path d="M146.821 55.6019C152.926 54.2752 159.484 55.1597 165.025 58.0342C164.927 58.3905 164.804 58.7467 164.694 59.103C153.907 59.3978 143.622 63.341 135.776 70.3185L131.253 65.3802C135.102 60.4542 140.716 56.9409 146.821 55.6142V55.6019Z" fill="#DB744B"/>
<path d="M162.206 105.476C162.206 105.476 154.851 72.7754 139.478 66.363C124.094 59.9506 106.491 61.0316 94.0975 72.1734C81.7042 83.3275 76.4698 101.84 81.1771 117.859C79.5957 121.04 80.2945 125.045 82.2313 128.03C84.1804 131.003 87.1715 133.14 90.2606 134.897C104.125 142.771 120.613 141.899 135.727 136.862C180.888 121.839 162.218 105.476 162.218 105.476H162.206Z" fill="#F1DECD"/>
<path d="M94.0852 72.1734C88.2747 77.3942 84.07 84.2489 81.6919 91.6809C98.6576 90.2313 113.257 109.088 117.401 125.241C119.227 125.07 121.066 125.696 122.88 125.241C117.989 104.371 131.498 82.3079 152.129 79.2246C148.77 73.4756 144.566 68.4759 139.478 66.3507C124.094 59.9383 106.491 61.0193 94.0975 72.1734H94.0852Z" fill="#DB744B"/>
<path d="M152.129 79.2369C131.498 82.3202 117.977 104.383 122.88 125.254C121.066 125.696 119.227 125.07 117.401 125.254C113.27 109.1 98.6577 90.2436 81.692 91.6931C78.9951 100.132 78.6641 109.346 81.1649 117.859C79.5835 121.04 80.2822 125.045 82.2191 128.03C84.1682 131.003 87.1593 133.14 90.2484 134.897C104.113 142.771 120.6 141.899 135.715 136.862C180.875 121.839 162.206 105.476 162.206 105.476C162.206 105.476 158.908 90.8455 152.129 79.2369Z" fill="#F1DECD"/>
<path d="M125.504 124.947C125.553 127.207 123.211 129.086 120.257 129.16C117.303 129.234 114.876 127.453 114.814 125.205C114.765 122.944 117.107 121.065 120.061 120.991C123.015 120.917 125.442 122.699 125.504 124.947Z" fill="#17140D"/>
<path d="M125.246 130.229C124.07 130.819 123.089 131.838 121.9 130.524C121.115 129.652 120.944 128.423 120.171 127.502C119.693 126.937 118.664 127.33 118.664 128.067C118.664 130.561 117.536 132.944 114.778 131.998C114.25 131.814 113.662 132.465 113.981 132.956C114.9 134.393 116.69 134.442 118.124 133.656C119.264 133.017 119.853 131.973 120.147 130.819C120.686 131.875 121.287 132.772 122.893 132.895C124.302 133.005 126.006 132.354 126.166 130.806C126.215 130.315 125.651 130.032 125.246 130.229Z" fill="#17140D"/>
<path d="M105.915 116.421C105.817 116.385 105.718 116.335 105.62 116.299C104.284 115.758 103.034 119.456 104.198 121.974C104.272 122.134 104.346 122.281 104.407 122.441C105.13 124.025 106.331 123.743 106.846 121.716C107.312 119.849 106.92 116.839 105.915 116.434V116.421Z" fill="#17140D"/>
<path d="M131.78 112.81C131.682 112.773 131.584 112.724 131.486 112.687C130.15 112.146 128.899 115.844 130.064 118.362C130.137 118.522 130.211 118.669 130.272 118.829C130.996 120.414 132.197 120.131 132.712 118.104C133.178 116.237 132.785 113.227 131.78 112.822V112.81Z" fill="#17140D"/>
<path d="M88.238 182.191L90.7388 182.339L89.5007 178.801L88.238 182.191Z" fill="#B71C1C"/>
<path d="M157.743 174.342L124.915 169.403L89.7579 178.125L89.5005 178.801L90.7386 182.339L121.495 184.218L157.743 174.342Z" fill="#D32F2F"/>
<path d="M89.7579 178.125L55.5077 165.337L54.429 168.236L88.6792 181L89.7579 178.125Z" fill="#ECEFF1"/>
<path d="M54.429 168.236L54 169.403L88.2379 182.191L88.6793 181L54.429 168.236Z" fill="#EF5350"/>
<path d="M123.395 165.337L89.1572 178.125L90.2973 181.184L124.498 168.298L123.395 165.337Z" fill="#ECEFF1"/>
<path d="M90.2974 181.184L90.6774 182.191L124.915 169.403L124.499 168.298L90.2974 181.184Z" fill="#EF5350"/>
<path d="M55.5078 165.337L100.827 173.764L89.758 178.125L55.5078 165.337Z" fill="#CFD8DC"/>
<path d="M124.462 168.187L124.915 169.403L157.743 174.342L157.462 173.592L124.462 168.187Z" fill="#D32F2F"/>
<path d="M156.763 171.725L123.395 165.337L124.462 168.187L157.462 173.592L156.763 171.725Z" fill="#CFD8DC"/>
<path d="M105.388 129.516C100.693 129.516 96.8801 125.696 96.8801 120.991C96.8801 116.286 100.693 112.466 105.388 112.466C110.083 112.466 113.895 116.286 113.895 120.991C113.895 125.696 110.083 129.516 105.388 129.516ZM105.388 113.67C101.354 113.67 98.0815 116.95 98.0815 120.991C98.0815 125.033 101.354 128.313 105.388 128.313C109.421 128.313 112.694 125.033 112.694 120.991C112.694 116.95 109.421 113.67 105.388 113.67Z" fill="#17140D"/>
<path d="M132.908 126.433C128.213 126.433 124.4 122.613 124.4 117.908C124.4 113.203 128.213 109.382 132.908 109.382C137.603 109.382 141.415 113.203 141.415 117.908C141.415 122.613 137.603 126.433 132.908 126.433ZM132.908 110.586C128.875 110.586 125.602 113.866 125.602 117.908C125.602 121.949 128.875 125.229 132.908 125.229C136.941 125.229 140.214 121.949 140.214 117.908C140.214 113.866 136.941 110.586 132.908 110.586Z" fill="#17140D"/>
<path d="M113.576 118.977L112.546 118.362C113.797 116.225 116.003 114.738 118.455 114.37C120.894 114.001 123.444 114.775 125.271 116.446L124.462 117.33C122.929 115.93 120.698 115.254 118.639 115.561C116.579 115.869 114.643 117.183 113.588 118.977H113.576Z" fill="#17140D"/>
<path d="M135.727 126.875C135.249 125.966 134.759 124.959 134.955 123.952C135.188 122.785 136.316 121.962 137.492 121.765C138.657 121.568 139.846 121.876 140.974 122.256C150.842 125.561 158.602 134.541 160.489 144.835C161.078 148.078 161.078 151.616 159.423 154.466C158.283 156.431 154.814 159.269 152.374 157.955C150.205 156.788 148.611 151.37 147.508 149.27C143.585 141.801 139.662 134.332 135.752 126.875H135.727Z" fill="#DB744B"/>
<path d="M157.008 219.511C156.383 224.634 155.133 229.67 153.257 234.473C154.52 233.282 155.782 232.09 157.045 230.899C157.29 240.873 155.267 250.897 151.173 259.988C161.053 256.352 170.578 251.72 179.539 246.18C179.502 248.428 179.453 250.664 179.417 252.912C186.551 247.642 191.602 239.866 194.066 231.341C193.171 229.105 192.104 226.955 190.952 224.941C185.313 213.651 168.053 210.838 157.02 219.486L157.008 219.511Z" fill="#F1DECD"/>
</g>
<defs>
<filter id="filter0_d_7_1351" x="0" y="0" width="258" height="322" filterUnits="userSpaceOnUse" color-interpolation-filters="sRGB">
<feFlood flood-opacity="0" result="BackgroundImageFix"/>
<feColorMatrix in="SourceAlpha" type="matrix" values="0 0 0 0 0 0 0 0 0 0 0 0 0 0 0 0 0 0 127 0" result="hardAlpha"/>
<feOffset dy="4"/>
<feGaussianBlur stdDeviation="2"/>
<feComposite in2="hardAlpha" operator="out"/>
<feColorMatrix type="matrix" values="0 0 0 0 0 0 0 0 0 0 0 0 0 0 0 0 0 0 0.25 0"/>
<feBlend mode="normal" in2="BackgroundImageFix" result="effect1_dropShadow_7_1351"/>
<feBlend mode="normal" in="SourceGraphic" in2="effect1_dropShadow_7_1351" result="shape"/>
</filter>
<linearGradient id="paint0_linear_7_1351" x1="318.742" y1="230.67" x2="458.992" y2="-29.9213" gradientUnits="userSpaceOnUse">
<stop stop-color="#EF9A9A"/>
<stop offset="1" stop-color="#ECB9BF"/>
</linearGradient>
<clipPath id="clip0_7_1351">
<rect width="151" height="205" fill="white" transform="translate(54 55)"/>
</clipPath>
</defs>
</svg>
