<svg width="258" height="322" viewBox="0 0 258 322" fill="none" xmlns="http://www.w3.org/2000/svg">
<g filter="url(#filter0_d_4_977)">
<rect x="254" width="314" height="250" rx="20" transform="rotate(90 254 0)" fill="url(#paint0_linear_4_977)"/>
<rect x="251.5" y="2.5" width="309" height="245" rx="17.5" transform="rotate(90 251.5 2.5)" stroke="white" stroke-width="5"/>
</g>
<g clip-path="url(#clip0_4_977)">
<g style="mix-blend-mode:multiply" opacity="0.27">
<path d="M131.153 260C167.519 260 197 255.265 197 249.424C197 243.583 167.519 238.848 131.153 238.848C94.7869 238.848 65.3062 243.583 65.3062 249.424C65.3062 255.265 94.7869 260 131.153 260Z" fill="#B9B8A7"/>
</g>
<path d="M145.678 207.639C146.093 206.856 147.439 207.236 147.37 208.135C146.691 216.971 142.997 227.328 149.074 235.185C155.427 243.399 168.318 238.111 175.086 232.743C175.281 232.593 175.535 232.846 175.35 233.019C168.732 239.332 157.936 246.579 149.131 239.678C140.234 232.708 140.844 216.752 145.678 207.639Z" fill="#FB9F00"/>
<path d="M170.539 236.971C173.428 236.901 176.467 236.406 178.711 234.574C180.956 232.754 182.049 229.263 180.449 226.856C180.046 228.203 179.022 229.021 177.629 229.24C178.55 227.074 179.333 224.517 179.033 222.19C176.34 223.146 173.589 225.819 172.116 228.261C170.643 230.715 170.125 234.137 170.539 236.971Z" fill="#5D4037"/>
<path d="M176.501 160.82C178.723 165.29 177.767 171.442 173.624 174.207C178.884 176.661 182.901 181.649 184.167 187.317C185.433 192.985 183.925 199.218 180.207 203.676C174.453 210.577 164.819 212.501 155.968 213.976C149.327 215.07 142.605 216.165 135.895 215.554C129.196 214.943 122.406 212.466 117.917 207.444C112.415 201.292 111.184 192.317 112.208 184.126C113.302 175.278 116.916 166.511 123.476 160.486C131.13 153.459 140.626 153.585 150.294 152.26C159.329 151.028 171.794 151.373 176.49 160.809L176.501 160.82Z" fill="#424242"/>
<path d="M104.025 161.143C96.4744 162.951 88.4407 162.733 81.0054 160.498C79.1178 159.933 77.1151 159.23 75.239 159.818C73.4205 160.382 72.1199 162.099 71.6825 163.942C70.7963 167.606 72.9716 171.465 76.0217 173.677C79.0718 175.9 82.8354 176.822 86.4955 177.709C91.4562 178.907 96.4169 180.094 101.389 181.292L104.025 161.143Z" fill="#FBB234"/>
<path d="M99.3172 192.502C91.905 183.55 89.8448 169.61 98.1778 160.486C98.8569 159.749 98.1893 158.562 97.1995 158.804C90.8001 160.371 89.3729 169.219 88.8319 174.725C88.0147 182.997 91.0072 189.368 96.2787 195.531C98.0857 197.651 101.067 194.598 99.3172 192.49V192.502Z" fill="#424242"/>
<path d="M104.577 244.609C102.977 244.044 101.677 246.417 102.609 247.765C103.553 249.113 105.486 249.424 107.19 249.436C109.492 249.447 112.139 249.033 114.602 248.33C116.985 247.662 118.607 245.599 118.723 243.249C118.93 238.814 120.38 234.471 122.256 230.254C115.108 230.127 108.076 227.65 101.792 222.939C103.668 229.989 104.347 237.673 104.566 244.609H104.577Z" fill="#FBB234"/>
<path d="M132.937 198.596L99.1445 215.347C100.238 217.731 101.09 220.3 101.803 222.939C108.088 227.65 115.132 230.127 122.268 230.254C123.418 227.685 124.731 225.162 126.02 222.708C130.002 215.139 134.042 206.983 132.937 198.596Z" fill="#FB9F00"/>
<path d="M94.8745 138.574C97.9476 155.29 97.821 172.594 94.5062 189.276C93.1366 196.188 91.249 203.55 93.8962 210.082C96.1751 215.715 101.562 219.644 107.317 221.602C113.071 223.549 119.252 223.791 125.329 223.964C134.905 224.229 145.782 223.826 152.112 216.637C156.187 212.006 157.395 205.543 157.81 199.391C159.26 178.032 152.918 156.224 140.246 138.977L94.8745 138.586V138.574Z" fill="#FBB234"/>
<path d="M94.8745 138.574C96.9347 149.772 97.5217 161.223 96.7161 172.583C103.012 180.624 116.006 179.218 124.42 177.824C133.812 175.947 145.264 173.539 154.529 168.355C151.56 157.813 146.737 147.791 140.257 138.966L94.886 138.574H94.8745Z" fill="#FB9F00"/>
<path d="M96.5549 59.9123C95.4615 60.903 94.7824 62.2509 94.6443 63.6104C94.4371 65.6149 92.6877 67.0895 90.5814 67.4236C87.2551 67.9421 84.136 69.5088 82.1908 71.859C80.027 74.4627 79.417 77.8842 80.3493 80.9487C80.9708 82.9993 80.1881 85.1537 78.266 86.2942C74.2261 88.702 71.0264 92.112 69.2654 96.0175C68.4943 97.734 67.9994 99.681 68.8281 101.386C68.8281 101.398 68.8396 101.421 68.8511 101.432C69.8754 103.448 69.5301 105.775 67.7461 107.25C64.9378 109.566 62.6934 112.365 61.2316 115.441C60.1497 117.711 59.5052 120.28 60.3914 122.607C60.7713 123.598 61.5079 124.519 62.4517 125.21C64.3393 126.604 65.0989 129.001 63.9825 131.005C63.3725 132.111 62.8545 133.252 62.4977 134.427C61.623 137.307 61.7841 140.556 63.7638 143.021C64.7651 144.277 66.2959 145.244 67.9763 145.728C70.0481 146.339 71.3947 148.079 71.3947 150.129C71.3947 152.79 72.8449 155.475 75.4576 156.995C78.22 158.597 81.9491 158.7 84.9992 157.583C87.0594 156.823 89.4304 157.456 90.7195 159.15C92.2963 161.235 94.7824 162.859 97.6368 163.481C100.652 164.138 103.944 163.643 106.603 162.306C108.583 161.304 110.954 161.719 112.484 163.263C114.441 165.233 117.284 166.592 120.322 166.845C123.534 167.11 126.802 166.12 129.219 164.334C130.831 163.136 133.087 162.963 134.813 164.023C136.977 165.348 139.774 165.958 142.41 165.532C145.46 165.037 148.095 163.182 149.396 160.82C150.213 159.334 151.94 158.447 153.724 158.447C157.2 158.458 160.664 158.067 163.472 156.431C165.97 154.979 167.478 152.203 167.19 149.772C166.971 147.906 168.042 146.178 169.757 145.244C171.713 144.173 173.256 142.549 173.946 140.671C174.637 138.77 174.43 136.673 173.497 134.841C172.565 133.021 172.876 130.878 174.384 129.427C175.995 127.883 176.962 125.856 176.939 123.793C176.916 121.558 175.719 119.369 173.808 117.814C172.323 116.593 171.679 114.727 172.323 112.976C173.083 110.937 173.106 108.702 172.312 106.674C171.587 104.808 170.171 103.137 168.352 101.904C166.614 100.729 165.832 98.7017 166.511 96.7893C167.017 95.3493 167.075 93.794 166.603 92.3424C166.131 90.8793 165.141 89.5545 163.818 88.5292C162.206 87.2734 161.723 85.2458 162.39 83.3795C163.023 81.6054 162.897 79.6354 161.907 77.9879C160.917 76.3405 159.099 75.0963 157.027 74.4857C155.024 73.8982 153.609 72.2622 153.586 70.2922C153.562 68.6448 152.952 67.0089 151.778 65.6956C150.374 64.1173 148.199 63.0689 145.897 62.7233C144.09 62.4583 142.64 61.2487 142.018 59.6128C141.42 58.0114 140.108 56.5944 138.347 55.811C136.586 55.0276 134.479 54.9124 132.58 55.3847C130.785 55.834 128.805 55.6036 127.424 54.4285C123.775 51.318 117.756 54.0023 113.727 56.1105C108.318 58.9446 101.297 55.6036 96.5434 59.9238L96.5549 59.9123Z" fill="#BB6922"/>
<path d="M98.1893 87.02C97.5678 88.1375 97.0153 89.2319 96.4974 90.2457C92.9985 97.2732 90.0865 104.738 87.1861 112.031C84.4467 118.897 81.6269 126.662 84.2971 133.989C88.7744 146.304 108.203 148.263 119.206 148.816C124.547 149.081 130.048 149.035 135.066 147.191C143.917 143.943 147.9 135.36 147.106 126.316C146.277 116.927 142.594 108.678 139.129 100.084C135.458 90.9945 130.428 72.4466 118.608 71.0296C109.342 69.9121 102.471 79.2321 98.1893 87.02Z" fill="#FBB234"/>
<path d="M104.393 105.902C104.865 105.222 105.371 104.543 106.062 104.093C106.752 103.644 107.696 103.483 108.41 103.897C109.262 104.393 109.526 105.487 109.676 106.467C110.355 110.902 110.493 115.429 110.056 119.888C109.895 121.547 109.607 123.321 108.479 124.542C107.42 125.683 105.797 126.144 104.243 126.167C99.9272 126.213 95.7032 122.733 97.1304 118.321C98.5115 114.047 101.826 109.566 104.393 105.914V105.902Z" fill="#FFCB73"/>
<path d="M107.328 116.524C108.065 116.628 108.836 116.754 109.457 117.169C110.677 117.964 111.034 119.623 110.862 121.063C110.528 123.816 108.514 126.305 105.878 127.192C103.242 128.079 100.135 127.33 98.2009 125.349C96.509 123.609 94.9782 119.473 96.8773 117.353C98.903 115.072 104.704 116.178 107.317 116.524H107.328Z" fill="#050503"/>
<path d="M107.766 132.86C107.662 134.888 104.025 134.911 103.196 133.747C102.644 132.975 102.667 131.835 102.609 130.948C102.483 129.208 102.552 127.468 102.494 125.74C102.483 125.326 101.838 125.199 101.746 125.637C101.194 128.148 100.445 133.39 102.908 135.21C104.785 136.593 108.698 135.441 108.64 132.86C108.629 132.295 107.789 132.295 107.754 132.86H107.766Z" fill="#050503"/>
<path d="M101.412 133.689C101.412 134.542 100.56 135.164 99.7317 134.876C98.903 134.588 98.5001 133.655 98.4656 132.837C98.4311 132.077 97.2686 132.065 97.2801 132.837C97.2801 134.358 98.2009 136.005 99.8353 136.212C101.251 136.397 102.851 135.21 102.678 133.689C102.586 132.906 101.435 132.86 101.424 133.689H101.412Z" fill="#050503"/>
<path d="M142.295 126.985C134.618 122.837 124.915 122.895 116.455 123.678C116.029 123.713 116.018 124.335 116.455 124.346C125.306 124.657 133.524 124.68 141.949 127.802C142.421 127.975 142.732 127.226 142.295 126.985Z" fill="#320000"/>
<path d="M138.335 138.805C132.488 133.344 124.857 130.095 117.146 128.252C116.674 128.137 116.467 128.862 116.939 128.989C124.765 131.017 131.349 134.772 138.001 139.231C138.254 139.404 138.542 139.012 138.324 138.816L138.335 138.805Z" fill="#320000"/>
<path d="M126.975 142.215C124.201 138.851 120.15 136.247 116.363 134.162C115.96 133.943 115.603 134.553 116.006 134.772C119.92 136.984 123.073 139.853 126.48 142.71C126.825 142.998 127.251 142.56 126.975 142.215Z" fill="#320000"/>
<path d="M90.5583 120.257C87.9801 119.139 85.0567 119.911 82.4094 120.556C78.9795 121.374 75.6072 122.595 72.6377 124.531C72.2003 124.819 72.4766 125.66 73.0175 125.429C78.4846 123.206 84.297 120.475 90.3626 120.948C90.7194 120.971 90.8921 120.395 90.5468 120.245L90.5583 120.257Z" fill="#320000"/>
<path d="M89.6952 126.074C85.4366 126.201 80.8328 128.448 77.9899 131.593C77.6906 131.915 78.0819 132.503 78.4848 132.238C80.1537 131.132 81.7996 129.98 83.5951 129.081C85.5863 128.079 87.6925 127.503 89.7988 126.777C90.1556 126.65 90.1211 126.074 89.7067 126.086L89.6952 126.074Z" fill="#320000"/>
<path d="M89.6145 130.637C85.2178 131.858 81.5346 135.636 80.3837 140.049C80.2916 140.394 80.8095 140.636 80.9822 140.302C83.0539 136.27 85.8738 133.367 89.8216 131.143C90.0864 130.994 89.9137 130.556 89.6145 130.648V130.637Z" fill="#320000"/>
<path d="M105.889 90.9139C107.34 92.0429 109.319 92.6189 111.046 91.9853C112.772 91.3632 113.981 89.3126 113.325 87.596C114.476 89.3932 115.673 91.2365 117.376 92.5268C119.079 93.8171 121.427 94.4737 123.396 93.6212C125.352 92.7687 126.492 90.096 125.283 88.3333C126.204 89.8656 127.159 91.4439 128.609 92.4807C130.071 93.506 132.177 93.8401 133.605 92.7802C135.331 91.5015 135.343 88.9439 134.963 86.8357C134.054 81.8473 131.775 77.0317 128.092 73.5526C124.42 70.0618 119.298 67.9997 114.257 68.4605C102.897 69.5089 95.473 82.8381 105.878 90.9139H105.889Z" fill="#BB6922"/>
<path d="M158.627 92.93C157.948 96.029 155.059 98.5059 151.882 98.7248L150.835 96.4553L147.336 88.7365L146.139 86.0983C148.372 83.8403 152.158 83.2989 154.944 84.8196C157.74 86.3403 159.317 89.8079 158.638 92.93H158.627Z" fill="#FBB234"/>
<path d="M154.736 92.9646C154.345 94.7963 152.688 96.2709 150.846 96.4553L147.347 88.7365C148.717 87.4693 150.904 87.1928 152.527 88.0683C154.218 88.99 155.174 91.0982 154.748 92.9646H154.736Z" fill="#E69100"/>
<path d="M81.742 89.301C82.4096 92.3194 85.2179 94.7387 88.314 94.9461L89.3269 92.7342L92.7453 85.2113L93.9077 82.6422C91.7209 80.4418 88.0493 79.9119 85.333 81.3865C82.6052 82.8726 81.0744 86.2481 81.7305 89.2895L81.742 89.301Z" fill="#FBB234"/>
<path d="M85.5402 89.3356C85.92 91.1213 87.5429 92.5498 89.3384 92.7342L92.7567 85.2113C91.4216 83.9786 89.2923 83.7136 87.7155 84.5661C86.0696 85.4647 85.1373 87.5154 85.5517 89.3356H85.5402Z" fill="#E69100"/>
<path d="M155.22 201.914C156.325 210.301 152.285 218.446 148.303 226.026C144.884 232.535 141.351 239.424 141.005 246.567C140.89 248.917 139.268 250.979 136.885 251.648C134.422 252.35 131.775 252.765 129.473 252.754C127.769 252.754 125.824 252.431 124.892 251.083C123.948 249.735 125.26 247.362 126.86 247.927C126.561 238.399 125.421 227.42 121.427 218.665L155.22 201.914Z" fill="#FBB234"/>
<path d="M93.3438 106.674C93.1712 107.238 93.0791 107.826 92.9755 108.402C92.8604 109.024 92.7108 109.658 92.7338 110.291C92.8029 111.754 94.5984 112.181 95.3926 111.017C95.7494 110.499 95.945 109.877 96.1752 109.289C96.3939 108.736 96.6241 108.195 96.7737 107.63C97.3607 105.407 94.0114 104.485 93.3323 106.685L93.3438 106.674Z" fill="#320000"/>
<path d="M116.593 108.056C116.421 108.621 116.329 109.208 116.225 109.784C116.11 110.407 115.96 111.04 115.983 111.674C116.052 113.137 117.848 113.563 118.642 112.4C118.999 111.881 119.195 111.259 119.425 110.672C119.643 110.119 119.874 109.577 120.023 109.013C120.61 106.778 117.261 105.867 116.582 108.068L116.593 108.056Z" fill="#320000"/>
<path d="M154.955 156.2C133.616 164.415 118.539 190.094 132.247 211.234C133.892 213.768 137.978 211.418 136.321 208.849C130.52 199.84 130.75 188.757 135.619 179.357C140.257 170.405 148.038 164.829 156.486 159.852C158.362 158.746 157.119 155.383 154.955 156.212V156.2Z" fill="#424242"/>
<path d="M168.629 181.292H121.496C118.865 181.292 116.731 183.427 116.731 186.062V211.453C116.731 214.087 118.865 216.222 121.496 216.222H168.629C171.26 216.222 173.394 214.087 173.394 211.453V186.062C173.394 183.427 171.26 181.292 168.629 181.292Z" fill="#B0BEC5"/>
<path d="M141.42 175.532C138.335 175.659 136.114 178.596 136.931 181.569C138.427 187.098 138.865 192.916 138.174 198.607C137.932 200.566 137.587 202.651 138.473 204.414C139.337 206.107 141.236 207.098 143.135 207.236C146.898 207.49 150.328 204.69 151.997 201.315C153.666 197.939 153.942 194.057 154.196 190.301L155.208 175.002L141.431 175.543L141.42 175.532Z" fill="#FBB234"/>
</g>
<defs>
<filter id="filter0_d_4_977" x="0" y="0" width="258" height="322" filterUnits="userSpaceOnUse" color-interpolation-filters="sRGB">
<feFlood flood-opacity="0" result="BackgroundImageFix"/>
<feColorMatrix in="SourceAlpha" type="matrix" values="0 0 0 0 0 0 0 0 0 0 0 0 0 0 0 0 0 0 127 0" result="hardAlpha"/>
<feOffset dy="4"/>
<feGaussianBlur stdDeviation="2"/>
<feComposite in2="hardAlpha" operator="out"/>
<feColorMatrix type="matrix" values="0 0 0 0 0 0 0 0 0 0 0 0 0 0 0 0 0 0 0.25 0"/>
<feBlend mode="normal" in2="BackgroundImageFix" result="effect1_dropShadow_4_977"/>
<feBlend mode="normal" in="SourceGraphic" in2="effect1_dropShadow_4_977" result="shape"/>
</filter>
<linearGradient id="paint0_linear_4_977" x1="318.742" y1="230.67" x2="458.992" y2="-29.9214" gradientUnits="userSpaceOnUse">
<stop stop-color="#28A352"/>
<stop offset="1" stop-color="#B2DB34"/>
</linearGradient>
<clipPath id="clip0_4_977">
<rect width="137" height="207" fill="white" transform="translate(60 53)"/>
</clipPath>
</defs>
</svg>
