<svg width="390" height="342" viewBox="0 0 390 342" fill="none" xmlns="http://www.w3.org/2000/svg">
<ellipse cx="195" cy="313" rx="195" ry="29" fill="#34694F"/>
<g clip-path="url(#clip0_12_2967)">
<path fill-rule="evenodd" clip-rule="evenodd" d="M364.455 109.767V109.834C360.312 139.31 346.51 174.915 328.092 190.577C325.098 193.1 321.991 195.129 318.794 196.503C318.794 196.503 312.287 199.072 301.479 201.911C286.034 206.013 261.785 210.7 235.172 209.438C235.172 209.438 224.409 206.576 219.366 201.19C219.366 201.19 156.57 202.272 126.76 196.503C121.469 195.489 87.3582 160.921 83.8909 100.618C83.0578 85.9476 84.0485 69.7226 87.696 52.1004C87.696 52.1004 124.689 8.96883 195.364 2.14079C266.018 -4.66471 291.685 6.78296 299.34 9.46459C317.037 15.6617 349.64 45.6104 362.226 72.2014C366.143 80.4716 366.639 94.2854 364.455 109.767Z" fill="url(#paint0_linear_12_2967)"/>
<path fill-rule="evenodd" clip-rule="evenodd" d="M164.969 303.746C140.202 310.033 115.097 308.05 115.097 308.05C115.818 301.583 120.478 297.977 120.478 297.977C129.102 295.115 142.543 283.262 142.904 279.116C143.219 275.397 141.215 266.721 140.044 248.491C139.909 246.485 139.796 244.367 139.684 242.136C139.144 230.643 140.247 219.669 141.44 211.647C142.633 203.849 143.917 198.847 143.917 198.847L158.844 199.974C156.638 206.824 155.377 215.139 154.747 223.815C154.094 232.852 154.139 242.249 154.589 250.767C155.265 263.612 156.863 274.428 158.327 278.958C161.726 289.369 164.969 303.746 164.969 303.746Z" fill="url(#paint1_linear_12_2967)"/>
<path fill-rule="evenodd" clip-rule="evenodd" d="M164.969 303.746C140.202 310.033 115.097 308.05 115.097 308.05C115.818 301.583 120.478 297.977 120.478 297.977C129.102 295.115 142.543 283.262 142.904 279.116C143.219 275.397 141.215 266.721 140.044 248.491C140.044 248.491 149.411 251.127 154.612 250.744C155.287 263.589 156.886 274.406 158.349 278.935C161.749 289.346 164.991 303.724 164.991 303.724L164.969 303.746Z" fill="url(#paint2_linear_12_2967)"/>
<path style="mix-blend-mode:multiply" opacity="0.3" fill-rule="evenodd" clip-rule="evenodd" d="M151.414 57.1932C151.414 57.1932 164.406 79.728 174.132 83.6941C183.837 87.6377 212.431 86.9616 224.184 77.79C235.937 68.6183 234.293 46.4667 234.293 46.4667C234.293 46.4667 240.26 52.9341 242.241 57.1932C244.223 61.4748 223.486 96.4262 210.044 99.6262C187.439 105.012 152.968 88.4489 152.968 88.4489L147.857 77.79L151.414 57.1932Z" fill="url(#paint3_linear_12_2967)"/>
<path style="mix-blend-mode:multiply" opacity="0.3" fill-rule="evenodd" clip-rule="evenodd" d="M147.857 59.1312C147.857 59.1312 136.554 81.373 129.507 90.1616C122.46 98.9727 112.035 95.4798 105.596 91.2883C99.1563 87.0969 102.849 63.5931 102.849 63.5931C102.849 63.5931 96.3193 71.2099 96.2293 77.3844C96.1392 83.5364 103.164 106.116 109.221 107.446C115.277 108.798 134.1 99.3558 140.855 91.2883C147.609 83.2209 147.857 59.1312 147.857 59.1312Z" fill="url(#paint4_linear_12_2967)"/>
<path fill-rule="evenodd" clip-rule="evenodd" d="M98.3007 158.757C98.3007 158.757 96.0717 163.828 91.9063 167.546C87.4933 171.557 80.8963 174.013 72.5656 167.208C68.2427 163.67 64.4151 158.983 61.1954 153.98C52.4369 140.549 47.6411 125.09 47.6411 125.09C42.4401 125.631 40.2786 124.369 40.2786 124.369C28.9534 114.229 24 101.835 24 101.835C26.972 96.7192 30.7996 95.1868 30.7996 95.1868L30.2593 92.6855C33.2313 88.3813 38.68 86.6912 38.68 86.6912L41.2242 88.5842C35.5729 77.6773 32.6009 62.0382 32.6009 62.0382C36.406 58.365 40.9315 59.2214 40.9315 59.2214C44.2863 66.3649 50.7708 89.6884 50.7708 89.6884L55.7692 88.9898L54.2832 61.1143C58.9889 58.1397 63.0191 61.1143 63.0191 61.1143C63.5595 68.3705 63.6946 90.8827 63.6946 90.8827L70.2916 94.7812C72.0478 100.46 72.7232 109.203 72.7232 109.203C69.9088 113.778 62.186 119.862 62.186 119.862C62.186 119.862 65.9011 137.259 73.0385 147.535C74.9523 150.307 77.1588 152.583 79.5679 153.822C82.7876 155.49 85.8047 154.453 88.1913 152.763C91.2984 150.555 93.3023 147.242 93.3023 147.242L98.3007 158.735V158.757Z" fill="url(#paint5_linear_12_2967)"/>
<path style="mix-blend-mode:multiply" opacity="0.3" fill-rule="evenodd" clip-rule="evenodd" d="M114.197 69.4972C114.197 69.4972 114.917 76.7534 121.739 77.79C128.561 78.8266 129.687 71.1197 129.687 71.1197C129.687 71.1197 131.173 80.3364 129.147 83.3561C127.12 86.3758 115.795 87.5025 113.724 85.5645C111.675 83.6265 110.819 72.9 110.819 72.9L114.174 69.5198L114.197 69.4972Z" fill="url(#paint6_linear_12_2967)"/>
<path style="mix-blend-mode:multiply" opacity="0.3" fill-rule="evenodd" clip-rule="evenodd" d="M247.735 36.0105C247.735 36.0105 272.772 56.9228 291.077 54.7595C309.382 52.5961 314.426 41.8245 314.426 41.8245L309.112 31.4135C309.112 31.4135 322.576 44.1907 323.792 47.8864C325.008 51.5595 305.037 68.5733 296.053 68.686C287.069 68.7986 256.381 56.3144 247.735 36.0105Z" fill="url(#paint7_linear_12_2967)"/>
<path style="mix-blend-mode:multiply" opacity="0.3" fill-rule="evenodd" clip-rule="evenodd" d="M163.573 14.4222C163.573 14.4222 168.729 18.794 186.336 13.4082C203.943 8.02237 206.082 1.21687 206.082 1.21687L218.375 0.495758C218.375 0.495758 180.684 25.4192 156.188 28.2586C156.188 28.2586 141.237 29.3403 132.637 22.3319C132.637 22.3319 145.155 23.5488 150.401 20.8446C155.647 18.1405 156.863 14.3997 156.863 14.3997L163.573 14.4448V14.4222Z" fill="url(#paint8_linear_12_2967)"/>
<path fill-rule="evenodd" clip-rule="evenodd" d="M73.061 147.535C68.738 156.031 61.8033 154.138 61.1954 153.958C52.4369 140.527 47.6411 125.068 47.6411 125.068C42.4401 125.609 40.2786 124.347 40.2786 124.347C28.9534 114.229 24 101.835 24 101.835C26.972 96.7192 30.7996 95.1869 30.7996 95.1869L30.2593 92.6855C33.2313 88.3814 38.68 86.6912 38.68 86.6912L41.2242 88.5842C35.5729 77.6773 32.6009 62.0382 32.6009 62.0382C34.8974 56.9228 42.1699 57.2158 42.1699 57.2158C45.5247 64.3593 50.8383 88.0208 50.8383 88.0208H54.9586L53.3375 60.4382C58.0432 57.4637 64.7753 61.6777 64.7753 61.6777C65.3157 68.9339 63.7846 88.449 63.7846 88.449L70.4267 92.0771C73.0385 98.6797 72.7232 109.181 72.7232 109.181C69.9088 113.755 62.186 119.84 62.186 119.84C62.186 119.84 65.9011 137.237 73.0385 147.513L73.061 147.535Z" fill="url(#paint9_linear_12_2967)"/>
<path style="mix-blend-mode:multiply" opacity="0.3" fill-rule="evenodd" clip-rule="evenodd" d="M178.14 49.9145C178.14 49.9145 185.615 57.2834 193.338 57.1932C201.061 57.1031 203.02 50.275 203.02 50.275L206.082 59.1087C206.082 59.1087 195.5 68.6859 191.447 68.6859C187.394 68.6859 178.118 49.9145 178.118 49.9145H178.14Z" fill="url(#paint10_linear_12_2967)"/>
<path fill-rule="evenodd" clip-rule="evenodd" d="M164.969 303.746V308.343C164.969 308.343 143.174 314.653 115.097 310.191V308.028C115.097 308.028 141.463 309.65 164.969 303.724V303.746Z" fill="url(#paint11_linear_12_2967)"/>
<path fill-rule="evenodd" clip-rule="evenodd" d="M174.11 5.43088L158.597 18.6813C158.597 18.6813 148.668 57.4862 148.645 94.4883C148.6 131.49 155.895 171.49 155.895 171.49C155.895 171.49 145.155 130.499 145.155 90.094C145.155 49.6892 155.895 16.5405 155.895 16.5405V10.366L174.11 5.47595V5.43088Z" fill="#F47F81"/>
<path fill-rule="evenodd" clip-rule="evenodd" d="M147.857 88.449C147.857 88.449 157.989 93.9474 161.726 95.8629C168.594 99.3558 201.624 103.818 210.405 102.195C219.208 100.573 245.574 64.1339 245.574 57.2158C245.574 50.2976 224.679 20.7996 212.454 20.8221C207.207 20.8221 180.527 40.0443 178.14 45.9709C175.754 51.8976 188.857 70.3986 190.839 70.9394C192.82 71.4803 205.384 62.7593 205.384 62.7593L213.287 66.0719L203.065 50.2751L204.145 60.3256C204.145 60.3256 196.175 66.8381 192.302 67.6944C188.43 68.5508 178.163 51.9201 179.919 46.8047C181.675 41.6893 204.956 25.5094 213.444 26.3206C221.933 27.1319 239.427 50.8384 239.562 58.3876C239.697 65.9367 219.906 97.8685 210.089 99.6037C196.693 101.992 167.693 94.6235 162.582 90.2968C157.471 85.9701 149.388 72.2465 149.388 72.2465L147.902 88.4039L147.857 88.449Z" fill="#F47F81"/>
<path fill-rule="evenodd" clip-rule="evenodd" d="M147.857 87.2321C147.857 87.2321 145.155 90.0714 138.963 95.0066C133.132 99.6713 113.521 109.97 107.555 109.068C101.588 108.167 92.109 82.9279 93.9102 73.576C95.7114 64.2241 113.566 42.7259 121.109 43.8076C128.651 44.8892 133.402 80.0885 130.7 84.7532C127.998 89.4179 114.737 87.0969 113.116 86.1955C111.495 85.2941 109.221 74.7027 109.221 74.7027L104.695 73.6211L114.197 69.4972L111.495 74.7027C111.495 74.7027 113.161 83.1307 114.714 85.0687C116.268 87.0292 127.413 84.7983 129.484 81.035C131.556 77.2717 127.998 52.213 120.749 49.7793C113.499 47.3455 97.7828 68.2127 96.9498 75.1084C96.1167 82.004 104.718 105.733 111.089 106.634C117.461 107.536 131.691 99.1304 136.937 93.6995C142.183 88.2687 146.484 64.5621 146.484 64.5621L147.834 87.2321H147.857Z" fill="#F47F81"/>
<path fill-rule="evenodd" clip-rule="evenodd" d="M128.764 21.7235C128.764 21.7235 142.093 29.6332 151.977 31.4135L155.917 30.76C155.917 30.76 206.757 12.3265 224.679 0L213.782 0.698578C213.782 0.698578 201.579 12.2364 176.114 21.8137C159.835 27.9431 155.895 23.9319 155.895 23.9319L153.351 24.608C153.351 24.608 150.379 28.1008 142.723 26.6361C135.046 25.1488 132.952 19.6278 132.952 19.6278L128.741 21.7686L128.764 21.7235Z" fill="#F47F81"/>
<path fill-rule="evenodd" clip-rule="evenodd" d="M278.851 3.56049C278.851 3.56049 248.861 8.81109 243.953 15.7067C239.044 22.6024 250.595 60.3256 296.188 66.4325C296.188 66.4325 316.114 60.2354 319.334 46.4441C319.334 46.4441 311.521 29.4304 289.996 20.7996C289.996 20.7996 279.234 19.4475 271.691 26.1854C271.691 26.1854 278.063 40.202 287.745 44.8667L296.188 44.1456L283.444 50.9736L284.525 46.4441C284.525 46.4441 273.763 37.4978 268.382 26.7262C268.382 26.7262 277.365 18.9968 291.347 18.456C291.347 18.456 315.754 30.8501 326.877 48.4497C326.877 48.4497 316.114 69.2944 295.648 71.0746C295.648 71.0746 243.052 61.4072 239.112 15.6842C239.112 15.6842 246.317 8.40546 259.421 4.43934V0.92392C259.421 0.92392 272.885 2.25347 278.874 3.58302L278.851 3.56049Z" fill="#F47F81"/>
<path fill-rule="evenodd" clip-rule="evenodd" d="M83.9134 80.7646C83.9134 80.7646 89.4296 121.215 93.7526 130.026C98.053 138.837 107.352 142.735 107.352 142.735C107.352 142.735 110.977 124.009 127.21 124.279C143.579 124.55 151.414 139.445 151.414 139.445C151.414 139.445 152.878 138.656 168.323 130.026C184.354 121.079 195.837 109.339 216.641 110.398C237.468 111.479 241.071 123.919 242.241 123.198C243.435 122.476 253.747 91.5813 262.415 86.1955C271.084 80.8097 296.819 77.1365 306.388 80.7646C315.957 84.3927 309.742 130.972 306.388 136.966C303.033 142.961 272.525 141.023 270.363 136.966C268.202 132.91 270.363 108.347 275.744 104.809C281.125 101.294 289.929 100.032 289.929 100.032L292.09 91.9418V112.358L288.871 102.511C288.871 102.511 278.469 105.981 276.307 109.113C274.146 112.246 270.386 129.372 272.907 134.33C275.407 139.287 299.43 138.093 303.956 133.969C308.482 129.868 307.356 97.3277 305.397 90.1391C303.416 82.9505 271.016 82.6575 263.406 88.4264C255.796 94.1953 248.501 128.741 247.623 130.003C246.722 131.265 237.986 131.152 237.986 131.152C237.986 131.152 221.865 119.164 203.132 122.093C184.377 125.023 159.745 137.913 159.745 137.913L151.279 149.473C151.279 149.473 141.98 129.823 128.494 131.265C115.007 132.707 113.206 146.07 113.206 146.07L114.534 153.417C114.534 153.417 104.425 147.806 95.7114 135.93C86.998 124.054 84.0034 104.787 84.0034 104.787V80.7421L83.9134 80.7646Z" fill="#F47F81"/>
<path fill-rule="evenodd" clip-rule="evenodd" d="M225.985 200.447C225.985 200.447 244.493 169.011 255.796 166.307C267.098 163.602 278.131 173.585 280.563 178.43C282.994 183.275 278.851 191.433 278.851 191.433L270.476 193.664C270.476 193.664 279.234 184.83 278.851 180.143C278.469 175.456 267.301 168.966 256.336 171.399C245.371 173.833 238.234 195.602 238.234 195.602L242.219 198.509C242.219 198.509 228.642 201.348 225.963 200.447H225.985Z" fill="#F47F81"/>
<path fill-rule="evenodd" clip-rule="evenodd" d="M358.353 136.966C358.353 136.966 344.371 154.724 336.851 156.076C329.308 157.428 317.735 155.31 316.655 153.439C315.574 151.591 311.904 120.696 317.285 92.6629C322.666 64.6297 337.481 53.9708 341.422 52.0778C345.362 50.1849 358.916 73.8915 359.997 93.5643C361.077 113.237 341.782 132.549 338.022 134.33C334.262 136.133 326.539 116.865 328.16 102.511C329.781 88.156 337.144 75.9422 341.624 75.5816C346.105 75.221 348.626 92.8207 346.645 101.091C346.645 101.091 345.294 79.0294 340.904 79.2998C336.491 79.5702 329.849 96.4488 329.961 108.82C330.074 121.192 336.828 128.651 340.543 128.764C344.258 128.876 360.267 108.775 357.768 91.9418C355.268 75.1084 346.915 62.9396 341.984 61.6551C337.054 60.3932 322.193 74.1394 318.839 99.1079C315.484 124.076 321.721 150.893 324.58 153.417C327.462 155.941 335.635 154.724 344.686 146.904C353.715 139.085 364.5 109.722 364.5 109.722C364.5 109.722 362.271 125.586 358.376 136.944L358.353 136.966Z" fill="#F47F81"/>
<path style="mix-blend-mode:multiply" opacity="0.5" fill-rule="evenodd" clip-rule="evenodd" d="M364.455 109.767V109.834C360.312 139.31 346.51 174.915 328.092 190.577L301.479 201.911C286.034 206.013 261.785 210.7 235.172 209.438C235.172 209.438 224.409 206.576 219.366 201.19C219.366 201.19 156.57 202.272 126.76 196.503C121.469 195.489 87.3582 160.921 83.8909 100.618C83.8909 100.618 89.4071 121.012 99.9218 127.84C99.9218 127.84 109.603 119.682 124.418 118.758C139.211 117.812 148.285 126.105 148.285 126.105C148.285 126.105 153.914 122.567 169.562 116.37C185.165 110.172 198.359 105.508 215.786 105.711C233.19 105.958 243.322 121.034 243.322 121.034L253.657 105.711C253.657 105.711 254.22 112.381 262.37 115.288C270.543 118.195 273.29 113.553 273.29 113.553C273.29 114.003 273.403 122.905 281.306 126.105C289.456 129.395 310.778 117.654 311.116 109.113C311.116 109.113 311.364 115.446 314.606 116.347C317.848 117.248 330.051 105.598 330.051 105.598C330.051 105.598 343.853 114.905 354.323 111.074L364.455 109.744V109.767Z" fill="url(#paint12_linear_12_2967)"/>
<path fill-rule="evenodd" clip-rule="evenodd" d="M136.937 174.599C136.937 174.599 141.53 182.937 159.633 183.974C177.735 185.01 199.079 176.74 199.079 176.74V177.574C199.079 177.574 180.167 193.258 161.119 192.199C142.071 191.117 136.937 174.599 136.937 174.599Z" fill="url(#paint13_linear_12_2967)"/>
<path fill-rule="evenodd" clip-rule="evenodd" d="M116.043 158.464C116.043 158.464 120.298 173.135 131.804 172.166C143.286 171.174 145.178 151.321 145.178 151.321L116.065 158.464H116.043Z" fill="#CE5870"/>
<path fill-rule="evenodd" clip-rule="evenodd" d="M178.14 147.67C178.14 147.67 181.585 176.019 208.896 174.532C236.207 173.044 237.986 145.439 237.986 145.439L178.14 147.67Z" fill="#CE5870"/>
<path fill-rule="evenodd" clip-rule="evenodd" d="M148.285 182.013C148.285 182.013 151.73 187.557 160.916 187.557C169.021 187.557 175.281 182.982 175.281 182.982C175.281 182.982 160.105 185.912 148.307 182.013H148.285Z" fill="url(#paint14_linear_12_2967)"/>
<path fill-rule="evenodd" clip-rule="evenodd" d="M176.542 133.676C176.542 133.676 174.988 157.946 192.685 167.591C209.504 176.74 229.61 167.952 234.991 156.819C240.373 145.687 237.918 131.197 237.918 131.197C237.918 131.197 210.472 109.271 176.542 133.699V133.676Z" fill="url(#paint15_linear_12_2967)"/>
<path fill-rule="evenodd" clip-rule="evenodd" d="M230.916 146.927C230.916 155.287 224.139 162.093 215.763 162.093C207.388 162.093 200.61 155.31 200.61 146.927C200.61 138.544 207.388 131.761 215.763 131.761C224.139 131.761 230.916 138.544 230.916 146.927Z" fill="#37193E"/>
<g style="mix-blend-mode:multiply">
<path fill-rule="evenodd" clip-rule="evenodd" d="M177.757 146.115C177.757 146.115 194.959 139.378 214.075 139.918C233.19 140.459 237.896 146.949 237.896 146.949C237.896 146.949 238.684 136.741 237.896 131.197C237.896 131.197 230.646 121.079 208.896 121.079C187.146 121.079 176.519 133.699 176.519 133.699C176.519 133.699 176.519 141.879 177.735 146.138L177.757 146.115Z" fill="#D9CCDA"/>
</g>
<path fill-rule="evenodd" clip-rule="evenodd" d="M113.116 146.115C113.116 146.115 115.232 171.399 130.475 170.137C145.741 168.876 147.024 146.115 145.155 137.575C145.155 137.575 138.288 128.651 127.053 130.206C115.818 131.761 113.116 146.093 113.116 146.093V146.115Z" fill="url(#paint16_linear_12_2967)"/>
<path fill-rule="evenodd" clip-rule="evenodd" d="M143.286 153.755C143.039 160.853 138.738 166.487 133.672 166.307C128.606 166.126 124.689 160.245 124.936 153.124C125.184 146.025 129.484 140.392 134.55 140.572C139.616 140.752 143.534 146.634 143.286 153.755Z" fill="#37193E"/>
<g style="mix-blend-mode:multiply">
<path fill-rule="evenodd" clip-rule="evenodd" d="M113.116 146.115L114.444 153.462C114.444 153.462 120.839 144.561 132.096 143.434C142.904 142.352 145.673 148.459 145.673 148.459C145.673 148.459 146.371 142.285 145.155 137.597C145.155 137.597 139.774 129.733 129.462 130.048C119.172 130.364 113.116 146.115 113.116 146.115Z" fill="#D9CCDA"/>
</g>
<path fill-rule="evenodd" clip-rule="evenodd" d="M219.366 201.168C219.366 201.168 252.846 197.855 273.56 192.988C294.297 188.143 319.064 167.659 319.064 167.659C319.064 167.659 339.733 158.735 347.838 163.467C347.838 163.467 336.918 187.872 321.135 198.103C305.352 208.334 244.898 211.444 233.731 209.641C224.679 208.176 219.366 201.168 219.366 201.168Z" fill="url(#paint17_linear_12_2967)"/>
<path style="mix-blend-mode:multiply" opacity="0.5" fill-rule="evenodd" clip-rule="evenodd" d="M31.0923 112.786C31.0923 112.786 38.9952 115.13 50.5681 111.615C62.141 108.122 63.8072 100.843 63.8072 100.843L62.9516 97.7107C62.9516 97.7107 34.5147 107.13 31.0923 112.809V112.786Z" fill="url(#paint18_linear_12_2967)"/>
<path fill-rule="evenodd" clip-rule="evenodd" d="M63.8071 88.4489C63.8071 88.4489 54.4408 88.7194 45.1419 91.2883L41.2242 88.6067L44.6015 89.1475L50.8383 88.0208H54.9586L54.846 86.1955L63.7846 88.4715L63.8071 88.4489Z" fill="#F47F81"/>
<path fill-rule="evenodd" clip-rule="evenodd" d="M25.1708 104.381C25.1708 104.381 31.0023 109.023 35.8431 109.925C35.8431 109.925 39.5806 108.482 41.2243 105.733C41.2243 105.733 35.8881 98.6797 30.7996 95.1869L30.2593 92.6855C30.2593 92.6855 38.8151 98.6797 43.836 105.733C43.836 105.733 47.8663 105.125 49.9377 102.533C49.9377 102.533 48.4067 98.229 45.1419 91.2883C45.1419 91.2883 48.6768 96.8995 49.9377 97.891C49.9377 97.891 56.5797 98.8826 62.9516 97.7107C62.9516 97.7107 48.1365 104.268 42.2149 107.581C36.2934 110.894 34.4021 113.417 34.4021 113.417L34.7398 118.758C34.7398 118.758 29.6288 113.305 25.1483 104.381H25.1708Z" fill="#F47F81"/>
<path fill-rule="evenodd" clip-rule="evenodd" d="M313.412 293.493C313.412 293.493 315.934 288.558 316.632 285.177C317.353 281.82 317.623 275.082 317.623 275.082C317.623 275.082 318.073 281.369 317.623 285.763C317.173 290.158 315.619 292.501 315.619 292.501L316.902 293.493H313.412Z" fill="#F47F81"/>
<path fill-rule="evenodd" clip-rule="evenodd" d="M321.113 281.099C321.113 281.099 320.527 288.107 316.902 293.493H313.412C313.412 293.493 312.197 296.31 310.305 299.014H306.951L303.843 302.664C303.843 302.664 300.354 303.205 298.327 299.96L298.575 296.738L294.68 295.115C294.68 295.115 294.274 285.515 297.246 276.772C297.246 276.772 298.192 268.299 296.841 263.071C296.841 263.071 295.13 262.958 294.725 266.744C294.725 267.082 294.725 276.547 292.338 281.594C292.338 281.594 287.295 282.744 284.863 279.904C284.863 279.904 286.552 274.766 286.822 267.24C287.069 259.691 285.944 255.792 286.079 254.463C286.236 253.11 291.077 247.973 296.436 245.291C296.436 245.291 298.597 231.567 297.021 213.855C296.031 202.114 293.351 188.616 287.385 176.222L287.092 176.267C285.651 176.447 279.752 176.605 278.941 167.794C278.041 157.721 283.962 148.391 292.225 149.653C292.225 149.653 294.072 152.853 296.684 160.064C300.061 169.394 304.721 185.506 308.324 210.159C309.945 221.179 311.341 233.911 312.309 248.536C312.309 248.536 320.009 269.11 321.09 281.144L321.113 281.099Z" fill="url(#paint19_linear_12_2967)"/>
<path fill-rule="evenodd" clip-rule="evenodd" d="M321.113 281.099C321.113 281.099 320.527 288.107 316.902 293.493H313.412C313.412 293.493 312.197 296.31 310.305 299.014H306.951L303.843 302.664C303.843 302.664 300.354 303.205 298.327 299.96L298.575 296.738L294.68 295.115C294.68 295.115 294.274 285.515 297.246 276.772C297.246 276.772 298.192 268.299 296.841 263.071C296.841 263.071 295.13 262.958 294.725 266.744C294.725 267.082 294.725 276.547 292.338 281.594C292.338 281.594 287.295 282.744 284.863 279.904C284.863 279.904 286.552 274.766 286.822 267.24C287.069 259.691 285.944 255.792 286.079 254.463C286.236 253.11 291.077 247.973 296.436 245.291C296.436 245.291 298.597 231.567 297.021 213.855C297.021 213.855 300.376 209.416 308.324 210.137C309.945 221.156 311.341 233.888 312.309 248.513C312.309 248.513 320.009 269.088 321.09 281.121L321.113 281.099Z" fill="url(#paint20_linear_12_2967)"/>
<path fill-rule="evenodd" clip-rule="evenodd" d="M298.597 296.738C298.597 296.738 302.65 288.558 304.541 283.532L306.343 273.662C306.343 273.662 305.982 281.662 305.352 284.614L298.62 296.738H298.597Z" fill="#F47F81"/>
<path fill-rule="evenodd" clip-rule="evenodd" d="M306.32 299.757C306.32 299.757 311.341 290.18 312.782 285.2L314.223 273.662C314.223 273.662 314.583 282.563 313.773 286.372C312.962 290.18 307.671 299.081 307.671 299.081L306.32 299.78V299.757Z" fill="#F47F81"/>
<path fill-rule="evenodd" clip-rule="evenodd" d="M288.826 311.814C263.338 314.675 239.112 308.343 239.112 308.343C241.521 284.592 241.386 263.364 240.283 246.102C239.63 236.119 238.661 227.488 237.671 220.435C235.779 207.027 233.776 199.365 233.776 199.365L246.339 198.126C246.339 198.126 250.212 208.492 252.261 224.153C252.531 226.339 252.801 228.638 253.004 231.004C253.251 234.159 253.499 237.516 253.747 241.009C254.715 255.116 255.728 270.913 258.317 279.454C261.312 289.324 286.214 300.524 286.214 300.524C289.816 305.549 288.916 311.836 288.916 311.836L288.826 311.814Z" fill="url(#paint21_linear_12_2967)"/>
<path fill-rule="evenodd" clip-rule="evenodd" d="M288.826 311.814C263.338 314.675 239.112 308.343 239.112 308.343C241.521 284.592 241.386 263.364 240.283 246.102L253.679 240.987C254.647 255.094 255.661 270.89 258.25 279.431C261.244 289.301 286.146 300.501 286.146 300.501C289.749 305.526 288.848 311.814 288.848 311.814H288.826Z" fill="url(#paint22_linear_12_2967)"/>
<path fill-rule="evenodd" clip-rule="evenodd" d="M239.112 308.343V312.557C239.112 312.557 262.933 318.461 288.916 314.247L288.826 311.814C288.826 311.814 271.151 312.963 239.112 308.343Z" fill="url(#paint23_linear_12_2967)"/>
<g style="mix-blend-mode:multiply">
<path fill-rule="evenodd" clip-rule="evenodd" d="M252.193 224.131C245.348 218.024 238.121 220.255 237.626 220.413C235.734 207.004 233.731 199.343 233.731 199.343L246.294 198.103C246.294 198.103 250.167 208.469 252.216 224.131H252.193Z" fill="#5E364C"/>
</g>
<g style="mix-blend-mode:multiply">
<path fill-rule="evenodd" clip-rule="evenodd" d="M158.844 199.974C156.638 206.824 155.377 215.139 154.747 223.815C150.154 218.249 144.727 214.013 141.44 211.669C142.633 203.872 143.917 198.869 143.917 198.869L158.844 199.996V199.974Z" fill="#5E364C"/>
</g>
<g style="mix-blend-mode:multiply">
<path fill-rule="evenodd" clip-rule="evenodd" d="M296.706 160.019C287.542 161.822 287.407 176.177 287.407 176.177L287.114 176.222C285.673 176.402 279.774 176.56 278.964 167.749C278.063 157.676 283.985 148.346 292.248 149.608C292.248 149.608 294.094 152.808 296.706 160.019Z" fill="#5E364C"/>
</g>
<g style="mix-blend-mode:multiply">
<path fill-rule="evenodd" clip-rule="evenodd" d="M98.3007 158.757C98.3007 158.757 96.0717 163.828 91.9063 167.546C94.5631 158.014 88.1913 152.786 88.1913 152.786C91.2984 150.577 93.3023 147.265 93.3023 147.265L98.3007 158.757Z" fill="#5E364C"/>
</g>
<path fill-rule="evenodd" clip-rule="evenodd" d="M136.937 93.6996C136.937 93.6996 146.146 90.5898 147.834 88.449L158.867 94.3756C158.867 94.3756 154.341 80.2688 147.902 73.576C147.902 73.576 140.202 91.8517 136.937 93.6996Z" fill="#CE5870"/>
<path fill-rule="evenodd" clip-rule="evenodd" d="M109.221 74.7028L104.673 73.6436L114.197 69.4972L111.495 74.7028L112.058 77.2041L109.221 74.7028Z" fill="#CE5870"/>
<path fill-rule="evenodd" clip-rule="evenodd" d="M104.673 100.054C104.673 100.054 107.982 106.161 111.427 106.68C114.872 107.198 121.401 104.043 121.401 104.043C121.401 104.043 113.544 109.519 109.288 109.068C105.01 108.618 104.65 100.054 104.65 100.054H104.673Z" fill="#CE5870"/>
<path fill-rule="evenodd" clip-rule="evenodd" d="M195.117 99.5135C195.117 99.5135 206.307 101.609 211.688 99.0854C215.178 97.4403 224.184 88.8546 224.184 88.8546C224.184 88.8546 216.596 100.37 210.405 102.173C204.213 103.975 195.117 99.5135 195.117 99.5135Z" fill="#CE5870"/>
<path fill-rule="evenodd" clip-rule="evenodd" d="M140.99 128.876L151.144 136.989L165.194 131.806L159.655 137.958L152.338 147.287C152.338 147.287 142.746 135.231 141.012 128.899L140.99 128.876Z" fill="#CE5870"/>
<path fill-rule="evenodd" clip-rule="evenodd" d="M109.221 145.439C109.221 145.439 109.491 128.29 122.032 124.91C134.573 121.53 145.155 132.211 145.155 132.211V137.597C145.155 137.597 137.342 128.538 127.053 130.228C116.763 131.919 109.221 145.462 109.221 145.462V145.439Z" fill="#CE5870"/>
<path fill-rule="evenodd" clip-rule="evenodd" d="M176.497 130.228C176.497 130.228 183.116 116.392 204.641 111.232C216.146 108.482 234.519 112.313 242.219 123.22V130.724C242.219 130.724 231.704 117.699 207.455 120.313C183.229 122.95 176.474 130.228 176.474 130.228H176.497Z" fill="#CE5870"/>
<path fill-rule="evenodd" clip-rule="evenodd" d="M175.573 134.352C175.573 134.352 187.597 117.924 212.724 117.924C233.55 117.924 242.219 130.724 242.219 130.724L237.873 131.197C237.873 131.197 227.336 122.138 210.9 122.138C189.713 122.138 175.551 134.352 175.551 134.352H175.573Z" fill="#4B3052"/>
<path fill-rule="evenodd" clip-rule="evenodd" d="M145.155 137.575C145.155 137.575 138.423 126.127 127.481 128.065C115.03 130.251 111.022 144.38 109.221 145.439L113.116 146.115C113.116 146.115 119.037 132.144 128.404 131.31C137.748 130.454 145.155 137.597 145.155 137.597V137.575Z" fill="#4B3052"/>
<path fill-rule="evenodd" clip-rule="evenodd" d="M272.164 126.127C272.164 126.127 271.624 133.789 274.101 135.659C276.6 137.552 288.51 137.823 288.51 137.823C288.51 137.823 276.104 140.73 272.119 138.273C268.134 135.817 272.164 126.127 272.164 126.127Z" fill="#CE5870"/>
<path fill-rule="evenodd" clip-rule="evenodd" d="M277.681 61.6777C277.681 61.6777 292.293 66.5452 296.188 66.455C300.083 66.3649 311.476 58.1397 311.476 58.1397C311.476 58.1397 308.301 68.8888 295.648 71.1423C295.648 71.1423 286.777 69.8127 277.681 61.7002V61.6777Z" fill="#CE5870"/>
<path fill-rule="evenodd" clip-rule="evenodd" d="M283.444 50.9962L284.525 46.4667L285.786 43.785L287.745 44.8892L296.188 44.1681L283.444 50.9962Z" fill="#CE5870"/>
<path fill-rule="evenodd" clip-rule="evenodd" d="M236.928 50.9962C236.928 50.9962 240.147 55.1876 239.517 58.4101C238.887 61.6326 235.892 68.6859 235.892 68.6859C235.892 68.6859 243.953 62.3086 244.358 58.1171C244.763 53.9257 236.928 50.9962 236.928 50.9962Z" fill="#CE5870"/>
<path fill-rule="evenodd" clip-rule="evenodd" d="M142.723 26.6136C142.723 26.6136 151.234 30.5121 154.634 30.2417C158.034 29.9938 166.837 24.5629 166.837 24.5629C166.837 24.5629 159.272 25.7347 157.786 25.4643C156.3 25.1939 155.287 22.9629 155.287 22.9629C155.287 22.9629 153.126 25.7347 150.514 26.6136C147.88 27.4924 142.701 26.6136 142.701 26.6136H142.723Z" fill="#CE5870"/>
<path fill-rule="evenodd" clip-rule="evenodd" d="M319.266 134.352C319.266 134.352 320.978 151.096 324.535 153.462C328.07 155.828 334.149 153.462 334.149 153.462C334.149 153.462 330.862 157.112 318.253 154.521C318.253 154.521 316.835 155.084 315.889 148.752C314.943 142.42 319.266 134.352 319.266 134.352Z" fill="#CE5870"/>
<path fill-rule="evenodd" clip-rule="evenodd" d="M330.276 113.147C330.276 113.147 330.321 127.885 340.498 128.764C340.498 128.764 343.223 128.178 346.375 124.009C346.375 124.009 345.114 131.31 337.977 134.33C337.977 134.33 329.286 128.561 330.254 113.125L330.276 113.147Z" fill="#CE5870"/>
<path fill-rule="evenodd" clip-rule="evenodd" d="M247.735 171.467C247.735 171.467 252.126 168.83 262.393 170.904C272.66 172.977 276.51 176.289 276.51 176.289C276.51 176.289 271.579 167.298 263.158 165.878C254.715 164.436 247.735 171.49 247.735 171.49V171.467Z" fill="#CE5870"/>
<path fill-rule="evenodd" clip-rule="evenodd" d="M310.801 34.7711C310.801 34.7711 319.942 44.4836 319.334 46.4667C318.726 48.4498 318.704 51.0187 315.079 54.5792C315.079 54.5792 322.148 52.3483 323.769 47.9089C325.391 43.4696 310.801 34.7711 310.801 34.7711Z" fill="#CE5870"/>
<path fill-rule="evenodd" clip-rule="evenodd" d="M343.403 82.0491C343.403 82.0491 347.253 92.2348 346.623 101.113C346.623 101.113 347.771 93.3841 347.005 88.5165C346.24 83.649 343.403 82.0491 343.403 82.0491Z" fill="#CE5870"/>
<path fill-rule="evenodd" clip-rule="evenodd" d="M128.471 160.515C128.471 161.845 127.391 162.904 126.085 162.904C124.779 162.904 123.698 161.822 123.698 160.515C123.698 159.208 124.779 158.126 126.085 158.126C127.391 158.126 128.471 159.208 128.471 160.515Z" fill="white"/>
<path d="M202.659 157.879C204.649 157.879 206.262 156.264 206.262 154.273C206.262 152.282 204.649 150.667 202.659 150.667C200.67 150.667 199.057 152.282 199.057 154.273C199.057 156.264 200.67 157.879 202.659 157.879Z" fill="white"/>
<path fill-rule="evenodd" clip-rule="evenodd" d="M47.6186 125.09C47.6186 125.09 57.8856 123.603 62.2086 119.885L62.9516 122.972C62.9516 122.972 58.1558 132.392 50.9058 133.992L47.6186 125.09Z" fill="#F47F81"/>
<g style="mix-blend-mode:soft-light" opacity="0.7">
<path fill-rule="evenodd" clip-rule="evenodd" d="M286.124 300.501C286.124 300.501 263.338 300.501 250.595 289.91L261.402 284.299C261.402 284.299 269.08 294.214 286.124 300.501Z" fill="white"/>
</g>
<g style="mix-blend-mode:soft-light" opacity="0.7">
<path fill-rule="evenodd" clip-rule="evenodd" d="M120.478 297.977C120.478 297.977 138.288 297.662 150.131 288.783L142.904 279.116C142.904 279.116 137.748 290.653 120.478 297.977Z" fill="white"/>
</g>
<g style="mix-blend-mode:soft-light" opacity="0.7">
<path fill-rule="evenodd" clip-rule="evenodd" d="M182.035 31.436C182.035 31.436 176.519 43.8301 170.462 46.4667C170.462 46.4667 166.297 52.7539 165.757 54.5792C165.216 56.4045 171.948 67.4015 179.626 71.1197C187.304 74.838 195.117 74.2971 195.117 74.2971C195.117 74.2971 210.044 69.1367 219.861 68.686C219.861 68.686 215.29 75.3788 206.87 77.2717C198.449 79.1646 196.333 75.2436 195.094 75.0408C193.856 74.838 184.039 77.2492 173.142 73.3507C162.244 69.4521 160.623 59.4918 161.434 56.044C162.244 52.6187 168.098 49.937 169.719 46.4667C171.341 42.9963 169.449 42.0499 171.138 37.4528C172.827 32.8557 182.035 31.436 182.035 31.436Z" fill="white"/>
</g>
<g style="mix-blend-mode:soft-light" opacity="0.7">
<path fill-rule="evenodd" clip-rule="evenodd" d="M195.117 40.0443C195.117 40.0443 203.943 30.9177 212.026 31.436C220.109 31.9543 231.186 46.8272 230.939 51.9652C230.939 51.9652 226.841 48.4948 222.428 43.7625C218.037 39.0302 218.938 35.8754 216.416 33.8247C213.895 31.774 211.485 32.0219 210.405 32.5627C209.324 33.1036 206.735 39.0302 202.322 39.3908C197.931 39.7513 195.117 40.0217 195.117 40.0217V40.0443Z" fill="white"/>
</g>
<g style="mix-blend-mode:soft-light" opacity="0.7">
<path fill-rule="evenodd" clip-rule="evenodd" d="M283.602 9.50966C283.602 9.50966 257.237 13.4532 253.296 17.7799C249.356 22.0841 257.957 35.9204 263.518 38.0837C263.518 38.0837 264.959 33.6895 263.428 29.9036C261.897 26.1403 253.657 23.8868 253.477 20.8221C253.296 17.7799 257.237 14.4222 265.23 14.3772C273.222 14.3546 282.769 14.2194 283.602 9.48712V9.50966Z" fill="white"/>
</g>
<g style="mix-blend-mode:soft-light" opacity="0.7">
<path fill-rule="evenodd" clip-rule="evenodd" d="M226.998 97.7107C226.998 97.7107 239.585 95.1868 244.38 88.4489C249.176 81.7111 248.05 76.5055 252.283 71.1197C256.516 65.7339 272.795 67.717 277.681 71.1197C277.681 71.1197 278.018 74.2295 273.313 73.5985C268.607 72.9676 266.513 68.9338 261.74 68.7085C256.944 68.4831 253.161 69.8127 252.306 72.0211C251.45 74.252 254.872 80.3815 253.522 86.7138C252.171 93.046 245.844 91.063 239.112 95.7727C232.38 100.483 230.916 100.618 230.916 100.618C230.916 100.618 227.516 101.046 226.976 97.7333L226.998 97.7107Z" fill="white"/>
</g>
<g style="mix-blend-mode:soft-light" opacity="0.7">
<path fill-rule="evenodd" clip-rule="evenodd" d="M115.998 36.0106C115.998 36.0106 126.107 32.4951 130.205 33.9374C134.303 35.3796 139.144 48.6751 139.144 48.6751C139.144 48.6751 140.337 37.4528 135.744 30.2867C131.151 23.1207 115.998 36.0331 115.998 36.0331V36.0106Z" fill="white"/>
</g>
<g style="mix-blend-mode:soft-light" opacity="0.7">
<path fill-rule="evenodd" clip-rule="evenodd" d="M326.877 133.992C326.877 133.992 321.968 118.217 321.135 104.809C320.28 91.4235 326.426 84.5279 327.507 82.0265C328.588 79.5477 335.86 68.0099 341.422 67.762C346.983 67.5141 350.495 77.9252 350.495 77.9252C350.495 77.9252 346.285 68.0324 341.962 68.686C337.639 69.3395 336.491 74.0718 334.599 76.4154C332.708 78.759 327.957 80.4491 325.526 87.9983C323.094 95.5474 327.237 109.632 327.777 116.37C328.318 123.107 326.877 133.992 326.877 133.992Z" fill="white"/>
</g>
<g style="mix-blend-mode:soft-light" opacity="0.7">
<path fill-rule="evenodd" clip-rule="evenodd" d="M256.516 119.254C256.516 119.254 260.794 102.33 264.239 94.3756C267.684 86.4208 282.454 84.6631 293.081 87.3673C293.081 87.3673 291.595 90.5221 286.889 91.5813C282.184 92.6404 274.101 89.801 270.341 90.4771C266.58 91.1306 269.44 98.4318 267.931 106.77C266.423 115.108 256.516 119.254 256.516 119.254Z" fill="white"/>
</g>
<g style="mix-blend-mode:soft-light" opacity="0.7">
<path fill-rule="evenodd" clip-rule="evenodd" d="M113.048 116.392C113.048 116.392 116.696 108.302 135.541 109.113C135.541 109.113 122.482 116.753 113.048 116.392Z" fill="white"/>
</g>
<g style="mix-blend-mode:soft-light" opacity="0.7">
<path fill-rule="evenodd" clip-rule="evenodd" d="M225.985 178.723C225.985 178.723 232.943 159.366 247.735 158.126C247.735 158.126 244.358 174.149 225.985 178.723Z" fill="white"/>
</g>
<path fill-rule="evenodd" clip-rule="evenodd" d="M109.221 64.6297C109.221 64.6297 112.936 56.7651 117.799 57.2158C122.662 57.6665 124.328 60.9115 124.328 60.9115C124.328 60.9115 111.089 62.9847 109.243 64.6297H109.221Z" fill="white"/>
<path fill-rule="evenodd" clip-rule="evenodd" d="M176.722 9.50967C176.722 9.50967 185.818 13.4758 196.715 5.43088C196.715 5.43088 184.805 3.04219 176.722 9.50967Z" fill="white"/>
<path fill-rule="evenodd" clip-rule="evenodd" d="M195.117 40.0443C195.117 40.0443 201.331 42.3653 205.114 38.3767C208.896 34.388 209.639 31.4135 209.639 31.4135C209.639 31.4135 197.954 33.9373 195.117 40.0443Z" fill="white"/>
<path fill-rule="evenodd" clip-rule="evenodd" d="M195.117 74.2971C195.117 74.2971 212.071 67.2437 219.861 68.686C219.861 68.686 217.835 75.1084 206.87 77.2717C195.905 79.4351 195.094 74.2971 195.094 74.2971H195.117Z" fill="white"/>
<path fill-rule="evenodd" clip-rule="evenodd" d="M257.754 15.7067C257.754 15.7067 264.734 10.3885 283.602 9.48712C283.602 9.48712 283.715 14.3321 277.073 15.1433C270.431 15.9546 257.754 15.7067 257.754 15.7067Z" fill="white"/>
<path fill-rule="evenodd" clip-rule="evenodd" d="M270.678 88.5391C270.678 88.5391 278.559 92.0094 284.885 91.8066C291.212 91.6038 293.104 87.3673 293.104 87.3673C293.104 87.3673 281.508 84.1448 270.701 88.5391H270.678Z" fill="white"/>
<path fill-rule="evenodd" clip-rule="evenodd" d="M332.1 74.9056C332.1 74.9056 334.509 67.5592 339.44 66.8832C344.371 66.2071 346.397 70.4887 346.397 70.4887C346.397 70.4887 342.66 69.3845 337.369 72.1338L332.1 74.9056Z" fill="white"/>
<g style="mix-blend-mode:soft-light">
<path fill-rule="evenodd" clip-rule="evenodd" d="M170.868 194.362C170.868 194.362 178.433 189.923 185.435 189.517C185.435 189.517 181.225 197.179 170.868 194.362Z" fill="white"/>
</g>
</g>
<defs>
<linearGradient id="paint0_linear_12_2967" x1="237.693" y1="211.624" x2="214.192" y2="0.00442486" gradientUnits="userSpaceOnUse">
<stop offset="0.02" stop-color="#FF8E89"/>
<stop offset="1" stop-color="#FFB388"/>
</linearGradient>
<linearGradient id="paint1_linear_12_2967" x1="140.044" y1="308.343" x2="140.044" y2="198.847" gradientUnits="userSpaceOnUse">
<stop stop-color="#684A72"/>
<stop offset="0.99" stop-color="#46255E"/>
</linearGradient>
<linearGradient id="paint2_linear_12_2967" x1="140.044" y1="308.343" x2="140.044" y2="248.491" gradientUnits="userSpaceOnUse">
<stop offset="0.02" stop-color="#FFA993"/>
<stop offset="1" stop-color="#FFCFA9"/>
</linearGradient>
<linearGradient id="paint3_linear_12_2967" x1="195.117" y1="100.708" x2="195.117" y2="46.4667" gradientUnits="userSpaceOnUse">
<stop offset="0.02" stop-color="#E08893"/>
<stop offset="0.33" stop-color="#ECB9BF"/>
<stop offset="0.62" stop-color="#F6DFE2"/>
<stop offset="0.85" stop-color="#FCF6F7"/>
<stop offset="1" stop-color="white"/>
</linearGradient>
<linearGradient id="paint4_linear_12_2967" x1="122.032" y1="107.581" x2="122.032" y2="59.1312" gradientUnits="userSpaceOnUse">
<stop offset="0.02" stop-color="#E08893"/>
<stop offset="0.33" stop-color="#ECB9BF"/>
<stop offset="0.62" stop-color="#F6DFE2"/>
<stop offset="0.85" stop-color="#FCF6F7"/>
<stop offset="1" stop-color="white"/>
</linearGradient>
<linearGradient id="paint5_linear_12_2967" x1="61.1503" y1="171.467" x2="61.1503" y2="59.1312" gradientUnits="userSpaceOnUse">
<stop stop-color="#46255E"/>
<stop offset="1" stop-color="#684A72"/>
</linearGradient>
<linearGradient id="paint6_linear_12_2967" x1="120.523" y1="86.511" x2="120.523" y2="69.4972" gradientUnits="userSpaceOnUse">
<stop offset="0.02" stop-color="#E08893"/>
<stop offset="0.33" stop-color="#ECB9BF"/>
<stop offset="0.62" stop-color="#F6DFE2"/>
<stop offset="0.85" stop-color="#FCF6F7"/>
<stop offset="1" stop-color="white"/>
</linearGradient>
<linearGradient id="paint7_linear_12_2967" x1="285.786" y1="68.686" x2="285.786" y2="31.436" gradientUnits="userSpaceOnUse">
<stop offset="0.02" stop-color="#E08893"/>
<stop offset="0.33" stop-color="#ECB9BF"/>
<stop offset="0.62" stop-color="#F6DFE2"/>
<stop offset="0.85" stop-color="#FCF6F7"/>
<stop offset="1" stop-color="white"/>
</linearGradient>
<linearGradient id="paint8_linear_12_2967" x1="175.506" y1="28.2811" x2="175.506" y2="0.473223" gradientUnits="userSpaceOnUse">
<stop offset="0.02" stop-color="#E08893"/>
<stop offset="0.33" stop-color="#ECB9BF"/>
<stop offset="0.62" stop-color="#F6DFE2"/>
<stop offset="0.85" stop-color="#FCF6F7"/>
<stop offset="1" stop-color="white"/>
</linearGradient>
<linearGradient id="paint9_linear_12_2967" x1="48.5192" y1="154.273" x2="48.5192" y2="57.1932" gradientUnits="userSpaceOnUse">
<stop offset="0.02" stop-color="#FFA993"/>
<stop offset="1" stop-color="#FFCFA9"/>
</linearGradient>
<linearGradient id="paint10_linear_12_2967" x1="192.122" y1="68.6859" x2="192.122" y2="49.9145" gradientUnits="userSpaceOnUse">
<stop offset="0.02" stop-color="#E08893"/>
<stop offset="0.33" stop-color="#ECB9BF"/>
<stop offset="0.62" stop-color="#F6DFE2"/>
<stop offset="0.85" stop-color="#FCF6F7"/>
<stop offset="1" stop-color="white"/>
</linearGradient>
<linearGradient id="paint11_linear_12_2967" x1="115.097" y1="307.757" x2="164.969" y2="307.757" gradientUnits="userSpaceOnUse">
<stop stop-color="#9B1A43"/>
<stop offset="1" stop-color="#731653"/>
</linearGradient>
<linearGradient id="paint12_linear_12_2967" x1="224.184" y1="209.641" x2="224.184" y2="100.595" gradientUnits="userSpaceOnUse">
<stop offset="0.02" stop-color="#E08893"/>
<stop offset="1" stop-color="#FFD1C7"/>
</linearGradient>
<linearGradient id="paint13_linear_12_2967" x1="168.008" y1="192.244" x2="168.008" y2="174.599" gradientUnits="userSpaceOnUse">
<stop stop-color="#9B1A43"/>
<stop offset="1" stop-color="#731653"/>
</linearGradient>
<linearGradient id="paint14_linear_12_2967" x1="161.771" y1="187.557" x2="161.771" y2="182.013" gradientUnits="userSpaceOnUse">
<stop offset="0.02" stop-color="#FBC9CE"/>
<stop offset="1" stop-color="white"/>
</linearGradient>
<linearGradient id="paint15_linear_12_2967" x1="207.478" y1="171.399" x2="207.478" y2="122.138" gradientUnits="userSpaceOnUse">
<stop stop-color="white"/>
<stop offset="0.98" stop-color="#FBC9CE"/>
</linearGradient>
<linearGradient id="paint16_linear_12_2967" x1="129.462" y1="170.183" x2="129.462" y2="130.026" gradientUnits="userSpaceOnUse">
<stop stop-color="white"/>
<stop offset="0.98" stop-color="#FBC9CE"/>
</linearGradient>
<linearGradient id="paint17_linear_12_2967" x1="219.366" y1="186.115" x2="347.838" y2="186.115" gradientUnits="userSpaceOnUse">
<stop stop-color="#B54263"/>
<stop offset="0.98" stop-color="#D8474D"/>
</linearGradient>
<linearGradient id="paint18_linear_12_2967" x1="31.0923" y1="105.62" x2="63.8072" y2="105.62" gradientUnits="userSpaceOnUse">
<stop offset="0.02" stop-color="#E08893"/>
<stop offset="1" stop-color="#FFD1C7"/>
</linearGradient>
<linearGradient id="paint19_linear_12_2967" x1="299.993" y1="302.687" x2="299.993" y2="149.496" gradientUnits="userSpaceOnUse">
<stop stop-color="#684A72"/>
<stop offset="0.99" stop-color="#46255E"/>
</linearGradient>
<linearGradient id="paint20_linear_12_2967" x1="302.988" y1="302.687" x2="302.988" y2="210.047" gradientUnits="userSpaceOnUse">
<stop offset="0.02" stop-color="#FFA993"/>
<stop offset="1" stop-color="#FFCFA9"/>
</linearGradient>
<linearGradient id="paint21_linear_12_2967" x1="261.312" y1="312.557" x2="261.312" y2="198.103" gradientUnits="userSpaceOnUse">
<stop stop-color="#684A72"/>
<stop offset="0.99" stop-color="#46255E"/>
</linearGradient>
<linearGradient id="paint22_linear_12_2967" x1="264.014" y1="312.557" x2="264.014" y2="240.987" gradientUnits="userSpaceOnUse">
<stop offset="0.02" stop-color="#FFA993"/>
<stop offset="1" stop-color="#FFCFA9"/>
</linearGradient>
<linearGradient id="paint23_linear_12_2967" x1="239.112" y1="312.061" x2="288.916" y2="312.061" gradientUnits="userSpaceOnUse">
<stop stop-color="#9B1A43"/>
<stop offset="1" stop-color="#731653"/>
</linearGradient>
<clipPath id="clip0_12_2967">
<rect width="341.761" height="315.757" fill="white" transform="translate(24)"/>
</clipPath>
</defs>
</svg>
