<svg width="256" height="147" viewBox="0 0 256 147" fill="none" xmlns="http://www.w3.org/2000/svg">
<g clip-path="url(#clip0_9_2892)">
<path fill-rule="evenodd" clip-rule="evenodd" d="M255.027 91.277H253.937L254.664 88.3105C254.664 84.5006 252.906 83.0465 252.906 83.0465L251.148 83.2937C250.901 81.7668 248.736 79.7165 248.736 79.7165C246.063 80.7489 244.494 82.5666 244.494 82.5666C245.105 79.2802 244.799 74.1326 243.942 73.929C243.1 73.7254 241.647 73.9581 239.047 74.1326C236.446 74.3216 233.541 73.5945 233.105 74.1326C232.8 74.5397 233.236 76.1829 233.962 77.4916C232.335 75.5867 228.979 75.3831 228.805 76.1102C228.616 76.8373 229.473 80.7199 229.299 83.2937C229.125 85.853 225.754 89.2848 225.754 92.0186C225.754 94.7524 229.851 101.369 229.851 101.369C229.851 101.369 222.413 106.895 216.558 108.349C215.091 108.727 213.726 108.829 212.592 108.538C209.672 107.782 206.898 103.652 204.893 99.8565C203.033 96.2938 201.842 93.022 201.842 93.022L196.453 97.748C196.453 97.748 197.499 104.582 200.535 110.385C202.772 114.66 206.099 118.368 210.893 118.368C213.261 118.368 215.6 118.019 217.837 117.423C228.79 114.558 237.536 106.153 237.536 106.153C252.659 103.041 255.695 97.1663 255.695 97.1663C256.654 93.4727 255.027 91.277 255.027 91.277ZM234.761 88.3105C234.761 88.3105 233.236 86.9872 233.236 86.551C233.236 86.1148 234.325 84.9223 234.5 84.3698C234.659 83.8899 235.4 80.3999 234.442 78.2623C234.587 78.4368 234.718 78.6113 234.863 78.7422C236.083 79.9201 239.468 80.4581 239.468 80.4581C238.916 85.8966 234.761 88.3105 234.761 88.3105Z" fill="url(#paint0_linear_9_2892)"/>
<path fill-rule="evenodd" clip-rule="evenodd" d="M255.027 91.277H253.937L254.664 88.3105C254.664 84.5006 252.906 83.0465 252.906 83.0465L251.148 83.2937C250.901 81.7668 248.736 79.7165 248.736 79.7165C246.063 80.7489 244.494 82.5666 244.494 82.5666C245.105 79.2802 244.799 74.1326 243.942 73.929C243.1 73.7254 241.313 73.1001 238.713 73.2746C236.112 73.4636 233.541 73.5945 233.105 74.1326C232.8 74.5397 233.236 76.1829 233.962 77.4916C232.335 75.5867 228.979 75.3831 228.805 76.1102C228.616 76.8373 229.473 80.7199 229.299 83.2937C229.125 85.853 225.754 89.2848 225.754 92.0186C225.754 94.7524 229.851 101.369 229.851 101.369C229.851 101.369 222.413 106.895 216.558 108.349C216.326 110.181 216.268 113.176 217.43 116.666C217.517 116.928 217.648 117.175 217.837 117.423C228.79 114.558 236.359 107.214 236.359 107.214C251.482 104.103 255.695 97.1663 255.695 97.1663C256.654 93.4727 255.027 91.277 255.027 91.277ZM234.761 88.3105C234.761 88.3105 233.236 86.9872 233.236 86.551C233.236 86.1147 234.325 84.9223 234.5 84.3698C234.659 83.8899 235.4 80.3999 234.442 78.2623C234.587 78.4368 234.718 78.6113 234.863 78.7422C236.083 79.9201 239.468 80.4581 239.468 80.4581C238.916 85.8966 234.761 88.3105 234.761 88.3105Z" fill="url(#paint1_linear_9_2892)"/>
<path fill-rule="evenodd" clip-rule="evenodd" d="M233.236 86.551C233.236 86.551 237.826 93.1965 238.437 95.6394C238.437 95.6394 242.49 97.8352 246.601 98.0679C250.712 98.3151 254.286 96.1048 254.286 96.1048C254.286 96.1048 250.712 96.6282 248.533 96.1048C248.533 96.1048 247.502 95.2468 247.807 93.1383L253.923 91.277L254.286 89.8083C254.286 89.8083 249.565 92.6584 245.933 93.0365C245.933 93.0365 243.507 92.7457 243.085 90.8698L248.766 85.7076L242.751 90.1718C242.751 90.1718 239.642 90.4336 239.468 88.3251L244.494 82.5812C244.494 82.5812 240.194 82.7993 239.468 80.4726C239.468 80.4726 239.221 84.3843 235.299 87.7289L233.25 86.5655L233.236 86.551Z" fill="#F47F81"/>
<path fill-rule="evenodd" clip-rule="evenodd" d="M229.851 101.369C229.851 101.369 233.715 106.473 236.345 107.214C236.345 107.214 228.95 108.276 226.219 103.812L229.851 101.369Z" fill="#F47F81"/>
<g style="mix-blend-mode:multiply">
<path fill-rule="evenodd" clip-rule="evenodd" d="M200.564 110.414L200.535 110.385C197.499 104.582 196.453 97.748 196.453 97.748L201.842 93.022C201.842 93.022 203.033 96.2938 204.893 99.8565C204.602 100.162 200.157 105.004 200.564 110.414Z" fill="#5E364C"/>
</g>
<path fill-rule="evenodd" clip-rule="evenodd" d="M0.97367 91.277H2.06322L1.33685 88.3105C1.33685 84.5006 3.09465 83.0465 3.09465 83.0465L4.85246 83.2937C5.09942 81.7668 7.26399 79.7165 7.26399 79.7165C9.93701 80.7489 11.506 82.5666 11.506 82.5666C10.8958 79.2802 11.2009 74.1326 12.058 73.929C12.9006 73.7254 14.3533 73.9581 16.9537 74.1326C19.5541 74.3216 22.4595 73.5945 22.8954 74.1326C23.2004 74.5397 22.7646 76.1829 22.0382 77.4916C23.6653 75.5867 27.0211 75.3831 27.1954 76.1102C27.3843 76.8373 26.5272 80.7199 26.7015 83.2937C26.8758 85.853 30.2462 89.2848 30.2462 92.0186C30.2462 94.7524 26.1495 101.369 26.1495 101.369C26.1495 101.369 33.5874 106.895 39.4419 108.349C40.9092 108.727 42.2748 108.829 43.4079 108.538C46.3279 107.782 49.1026 103.652 51.1074 99.8565C52.9669 96.2938 54.1581 93.022 54.1581 93.022L59.5477 97.748C59.5477 97.748 58.5018 104.582 55.4656 110.385C53.2284 114.66 49.9016 118.368 45.1076 118.368C42.7396 118.368 40.4008 118.019 38.1635 117.423C27.21 114.558 18.4645 106.153 18.4645 106.153C3.34162 103.041 0.305414 97.1663 0.305414 97.1663C-0.653388 93.4727 0.97367 91.277 0.97367 91.277ZM21.2392 88.3105C21.2392 88.3105 22.7646 86.9872 22.7646 86.551C22.7646 86.1148 21.6751 84.9223 21.5007 84.3698C21.3409 83.8899 20.6 80.3999 21.5588 78.2623C21.4136 78.4368 21.2828 78.6113 21.1376 78.7422C19.9173 79.9201 16.5324 80.4581 16.5324 80.4581C17.0844 85.8966 21.2392 88.3105 21.2392 88.3105Z" fill="url(#paint2_linear_9_2892)"/>
<path fill-rule="evenodd" clip-rule="evenodd" d="M0.973669 91.277H2.06322L1.33685 88.3105C1.33685 84.5006 3.09465 83.0465 3.09465 83.0465L4.85246 83.2937C5.09942 81.7668 7.26399 79.7165 7.26399 79.7165C9.93701 80.7489 11.506 82.5666 11.506 82.5666C10.8958 79.2802 11.2009 74.1326 12.058 73.929C12.9006 73.7254 14.5131 73.4927 17.1135 73.4636C20.7163 73.4346 22.4595 73.5945 22.8954 74.1326C23.2004 74.5397 22.7646 76.1829 22.0382 77.4916C23.6653 75.5867 27.0211 75.3831 27.1954 76.1102C27.3843 76.8373 26.5272 80.7199 26.7015 83.2937C26.8758 85.853 30.2462 89.2848 30.2462 92.0186C30.2462 94.7524 26.1495 101.369 26.1495 101.369C26.1495 101.369 33.5874 106.895 39.4419 108.349C39.6744 110.181 39.7325 113.176 38.5703 116.666C38.4831 116.928 38.3524 117.175 38.1635 117.423C27.21 114.558 19.6412 107.214 19.6412 107.214C4.51833 104.103 0.305414 97.1663 0.305414 97.1663C-0.653388 93.4727 0.973669 91.277 0.973669 91.277ZM21.2392 88.3105C21.2392 88.3105 22.7646 86.9872 22.7646 86.551C22.7646 86.1148 21.6751 84.9223 21.5007 84.3698C21.3409 83.8899 20.6 80.3999 21.5588 78.2623C21.4136 78.4368 21.2828 78.6113 21.1376 78.7422C19.9173 79.9201 16.5324 80.4581 16.5324 80.4581C17.0844 85.8966 21.2392 88.3105 21.2392 88.3105Z" fill="url(#paint3_linear_9_2892)"/>
<path fill-rule="evenodd" clip-rule="evenodd" d="M22.7644 86.551C22.7644 86.551 18.1738 93.1965 17.5636 95.6394C17.5636 95.6394 13.5105 97.8352 9.39929 98.0679C5.28807 98.3151 1.71436 96.1048 1.71436 96.1048C1.71436 96.1048 5.28807 96.6282 7.46716 96.1048C7.46716 96.1048 8.4986 95.2468 8.19353 93.1383L2.07754 91.277L1.71436 89.8083C1.71436 89.8083 6.43573 92.6584 10.0676 93.0365C10.0676 93.0365 12.4936 92.7457 12.9149 90.8698L7.23473 85.7076L13.249 90.1718C13.249 90.1718 16.3579 90.4336 16.5322 88.3251L11.5058 82.5812C11.5058 82.5812 15.8058 82.7993 16.5322 80.4726C16.5322 80.4726 16.7792 84.3843 20.7015 87.7289L22.7499 86.5655L22.7644 86.551Z" fill="#F47F81"/>
<path fill-rule="evenodd" clip-rule="evenodd" d="M26.1495 101.369C26.1495 101.369 22.2852 106.473 19.6558 107.214C19.6558 107.214 27.0502 108.276 29.7813 103.812L26.1495 101.369Z" fill="#F47F81"/>
<g style="mix-blend-mode:multiply">
<path fill-rule="evenodd" clip-rule="evenodd" d="M55.4361 110.414L55.4651 110.385C58.5013 104.582 59.5473 97.748 59.5473 97.748L54.1577 93.022C54.1577 93.022 52.9664 96.2938 51.1069 99.8565C51.3975 100.162 55.8428 105.004 55.4361 110.414Z" fill="#5E364C"/>
</g>
<path fill-rule="evenodd" clip-rule="evenodd" d="M89.2412 136.167C89.2412 136.167 101.444 147 129.017 147C156.59 147 171.872 133.811 171.872 133.811L89.2412 136.167Z" fill="url(#paint4_linear_9_2892)"/>
<path fill-rule="evenodd" clip-rule="evenodd" d="M206.549 73.2601C202.06 99.2167 190.933 126.278 175.781 132.4C150.314 142.681 97.5075 142.681 82.3556 133.2C67.2762 123.763 54.4196 100.453 49.0445 76.6773C45.0495 59.0385 45.1802 41.1524 51.5577 28.5013C58.9376 13.8435 79.4501 0.0145416 126.998 0.0145416C168.386 0.0145416 202.307 10.5571 207.407 34.4779C209.528 44.4388 209.106 58.6604 206.564 73.2601H206.549Z" fill="url(#paint5_linear_9_2892)"/>
<path style="mix-blend-mode:multiply" opacity="0.3" fill-rule="evenodd" clip-rule="evenodd" d="M83.7647 20.5471C83.7647 20.5471 75.6875 27.3816 75.2662 38.6513C75.2662 38.6513 82.5589 50.27 96.9264 53.7454C96.9264 53.7454 121.71 50.5608 129.206 36.0047C129.206 36.0047 116.96 58.5441 97.0426 63.2991C97.0426 63.2991 75.7311 56.8136 70.1816 38.375C70.1816 38.375 75.5422 26.8872 83.7647 20.5326V20.5471Z" fill="url(#paint6_linear_9_2892)"/>
<path style="mix-blend-mode:multiply" opacity="0.3" fill-rule="evenodd" clip-rule="evenodd" d="M92.0596 31.1479V38.3896C92.0596 38.3896 96.5049 41.6468 101.909 41.9231C107.299 42.214 110.945 36.6591 110.945 36.6591C110.945 36.6591 111.09 46.1402 98.7421 46.9545C98.7421 46.9545 91.3768 43.4209 88.0791 38.6368C88.0791 38.6368 89.8805 34.0271 92.0741 31.1333L92.0596 31.1479Z" fill="url(#paint7_linear_9_2892)"/>
<path style="mix-blend-mode:multiply" opacity="0.3" fill-rule="evenodd" clip-rule="evenodd" d="M59.5474 52.7856C59.5474 52.7856 71.1111 76.2992 75.048 79.0912C78.9849 81.8832 95.7784 76.8373 95.7784 76.8373C95.7784 76.8373 76.0213 90.8262 74.0311 89.881C72.0408 88.9358 60.4771 58.1224 59.5619 52.7856H59.5474Z" fill="url(#paint8_linear_9_2892)"/>
<path style="mix-blend-mode:multiply" opacity="0.3" fill-rule="evenodd" clip-rule="evenodd" d="M51.5718 31.1479C51.5718 31.1479 63.2082 27.6434 70.8786 20.5471C78.549 13.4509 83.59 5.51123 83.59 5.51123C83.59 5.51123 76.3409 33.0383 49.0586 35.1323L51.5718 31.1333V31.1479Z" fill="url(#paint9_linear_9_2892)"/>
<path style="mix-blend-mode:multiply" opacity="0.3" fill-rule="evenodd" clip-rule="evenodd" d="M134.377 40.5853C134.377 40.5853 153.568 54.5888 163.621 55.4904C173.688 56.3919 189.015 37.6625 189.015 37.6625C189.015 37.6625 185.223 57.9188 163.476 61.656C163.476 61.656 147.888 60.8271 134.377 40.5853Z" fill="url(#paint10_linear_9_2892)"/>
<path style="mix-blend-mode:multiply" opacity="0.3" fill-rule="evenodd" clip-rule="evenodd" d="M168.183 30.8861L166.991 36.6737C166.991 36.6737 162.473 42.0249 149.152 36.6737L149.849 40.5853C149.849 40.5853 159.045 46.2856 161.703 46.62C164.362 46.9545 172.308 37.6625 172.308 37.6625L168.168 30.8861H168.183Z" fill="url(#paint11_linear_9_2892)"/>
<path style="mix-blend-mode:multiply" opacity="0.3" fill-rule="evenodd" clip-rule="evenodd" d="M96.9697 76.3719C96.9697 76.3719 104.219 73.3037 109.434 73.6381C114.649 73.9871 129.206 71.9077 129.206 71.9077L143.297 74.1326C143.297 74.1326 157.534 74.5543 165.19 75.9212C172.831 77.2881 181.039 79.4693 183.102 79.0767C185.165 78.684 198.196 55.4758 198.196 55.4758C198.196 55.4758 187.838 88.3396 182.855 89.9246C182.855 89.9246 165.335 77.3753 158.072 75.9357C150.808 74.4961 129.99 79.0912 129.99 79.0912L122 78.5241C122 78.5241 108.49 75.0487 96.9843 76.3865L96.9697 76.3719Z" fill="url(#paint12_linear_9_2892)"/>
<path style="mix-blend-mode:multiply" opacity="0.3" fill-rule="evenodd" clip-rule="evenodd" d="M106.5 7.43071C106.5 7.43071 114.766 15.0941 122 15.0941C129.235 15.0941 129.99 8.84124 129.99 8.84124L132.111 8.02691C132.111 8.02691 131.545 15.5594 137.573 15.0941C143.588 14.6288 155.195 5.7439 155.195 5.7439C155.195 5.7439 142.832 21.1288 130.426 21.6959C118.005 22.2776 106.5 7.43071 106.5 7.43071Z" fill="url(#paint13_linear_9_2892)"/>
<path fill-rule="evenodd" clip-rule="evenodd" d="M122 0L129.235 7.44525L129.191 55.3159L129.453 96.003L130.426 62.2667L132.111 8.01237L138.852 0.159956L122 0Z" fill="#F47F81"/>
<path fill-rule="evenodd" clip-rule="evenodd" d="M129.206 36.0048C129.206 36.0048 116.727 57.0463 96.7519 61.9177C96.7519 61.9177 74.8593 53.7454 71.213 37.9242C71.213 37.9242 77.0384 18.1914 97.3476 14.8905C97.3476 14.8905 109.856 22.3648 109.245 40.5853C109.245 40.5853 105.425 44.8896 97.7834 45.4131C97.7834 45.4131 90.8393 42.4612 89.0961 36.7173L92.0451 31.1479L81.106 41.7486L87.7014 40.5853C87.7014 40.5853 95.1685 47.318 98.8148 49.063C98.8148 49.063 111.323 44.0171 113.226 38.9858C113.226 38.9858 106.456 18.2932 97.0715 12.3894C97.0715 12.3894 80.2199 15.6903 68.2349 38.3023C68.2349 38.3023 72.9272 56.4356 97.2459 64.9569C97.2459 64.9569 112.325 58.006 120.751 49.0776C120.751 49.0776 126.257 45.7185 129.177 45.9511V36.0338L129.206 36.0048Z" fill="#F47F81"/>
<path fill-rule="evenodd" clip-rule="evenodd" d="M130.252 74.0017L123.439 77.6516C123.439 77.6516 103.914 75.325 98.7421 75.9357C93.5704 76.5465 78.0552 87.1763 74.8157 88.3541C71.5761 89.532 60.5208 50.8662 57.9059 50.3427C55.291 49.8192 48.928 63.9244 49.6834 75.9357C50.4389 87.9615 61.6685 93.6327 62.7144 93.1238C63.7604 92.6003 63.0631 81.0107 61.6685 75.9357C60.2738 70.8753 55.6832 68.0833 55.6832 68.0833C55.6832 68.0833 53.9254 75.1505 55.6832 79.2075C55.6832 79.2075 55.5525 73.58 56.7437 71.7332C56.7437 71.7332 59.7509 73.5218 60.913 79.0912C62.0752 84.6606 61.0293 90.6808 61.0293 90.6808C61.0293 90.6808 52.2112 86.013 50.9618 76.8809C49.698 67.7488 53.5913 56.1447 55.6977 55.185C57.8042 54.2253 70.196 89.4593 75.0481 93.1383C75.0481 93.1383 88.05 79.4257 98.7421 77.2299C109.434 75.0341 127.564 79.891 129.322 82.334L130.252 73.9871V74.0017Z" fill="#F47F81"/>
<path fill-rule="evenodd" clip-rule="evenodd" d="M51.5719 28.4868V34.4488C51.5719 34.4488 60.7967 32.5875 70.0651 24.9387C79.3335 17.2898 79.9146 8.12869 79.9146 8.12869H75.7017L86.8877 4.42061C86.8877 4.42061 76.5733 31.5841 48.4775 36.6737L51.5719 28.4868Z" fill="#F47F81"/>
<path fill-rule="evenodd" clip-rule="evenodd" d="M100.718 1.70135C100.718 1.70135 111.831 18.8022 129.22 23.8481L130.252 18.1042L125.763 20.5471C125.763 20.5471 108.301 13.3782 102.316 1.48323L100.732 1.70135H100.718Z" fill="#F47F81"/>
<path fill-rule="evenodd" clip-rule="evenodd" d="M60.7822 108C60.7822 108 64.7191 95.7703 67.6827 93.4437C70.6463 91.1316 84.5344 115.925 86.8878 127.064C89.2412 138.188 79.8275 131.47 79.8275 131.47L76.9221 129.129C76.9221 129.129 81.5998 132.415 84.4327 131.484C87.2655 130.554 74.1038 96.4538 69.3243 96.0175C64.5448 95.5813 61.6103 109.497 61.6103 109.497L60.7822 108.014V108Z" fill="#F47F81"/>
<path fill-rule="evenodd" clip-rule="evenodd" d="M70.7626 122.817C70.7626 122.817 74.2637 123.21 74.7721 121.901C75.2951 120.593 71.5616 113.38 71.5616 113.38L68.874 112.857L72.6075 106.415L72.5204 112.769C72.5204 112.769 76.0796 119.895 75.8181 122.25C75.5566 124.592 72.346 124.621 72.346 124.621L70.7626 122.817Z" fill="#F47F81"/>
<path fill-rule="evenodd" clip-rule="evenodd" d="M131.036 35.7575C131.036 35.7575 143.515 56.7991 163.49 61.6705C163.49 61.6705 185.383 53.4982 189.029 37.677C189.029 37.677 183.204 17.9442 162.894 14.6433C162.894 14.6433 150.386 22.1176 150.997 40.3381C150.997 40.3381 154.817 44.6424 162.459 45.1659C162.459 45.1659 169.403 42.214 171.146 36.4701L168.197 30.9007L179.136 41.5014L172.541 40.3381C172.541 40.3381 165.074 47.0708 161.427 48.8158C161.427 48.8158 148.919 43.7699 147.016 38.7385C147.016 38.7385 153.786 18.046 163.171 12.1422C163.171 12.1422 180.022 15.4431 192.007 38.0551C192.007 38.0551 187.315 56.1883 162.996 64.7097C162.996 64.7097 147.917 57.7588 139.491 48.8304C139.491 48.8304 133.985 45.4713 131.065 45.7039V35.7866L131.036 35.7575Z" fill="#F47F81"/>
<path fill-rule="evenodd" clip-rule="evenodd" d="M129.206 74.0017L135.729 77.6516C135.729 77.6516 154.425 75.325 159.379 75.9357C164.333 76.5464 179.194 87.1763 182.289 88.3541C185.398 89.532 197.775 49.1357 200.273 48.6122C202.772 48.0887 207.072 63.9099 206.36 75.9357C205.649 87.9615 194.884 93.6327 193.881 93.1238C192.879 92.6003 193.547 81.0107 194.884 75.9357C196.22 70.8753 200.608 68.0833 200.608 68.0833C200.608 68.0833 202.293 75.1505 200.608 79.2075C200.608 79.2075 200.738 73.58 199.591 71.7332C199.591 71.7332 196.714 73.5218 195.596 79.0912C194.477 84.6606 195.479 90.6808 195.479 90.6808C195.479 90.6808 203.92 86.013 205.126 76.8809C206.331 67.7488 203.499 54.3561 201.479 53.4109C199.46 52.4512 186.719 89.4593 182.056 93.1383C182.056 93.1383 169.606 79.4257 159.365 77.2299C149.123 75.0341 131.312 79.9346 129.627 82.3776L129.191 73.9871L129.206 74.0017Z" fill="#F47F81"/>
<path fill-rule="evenodd" clip-rule="evenodd" d="M204.675 27.0472V33.0092C204.675 33.0092 199.445 32.3403 190.177 24.6769C180.908 17.0281 179.441 9.58285 179.441 9.58285L181.954 8.73945L173.369 5.72935C173.369 5.72935 179.688 30.1445 207.769 35.2195L204.675 27.0326V27.0472Z" fill="#F47F81"/>
<path fill-rule="evenodd" clip-rule="evenodd" d="M159.146 2.50114C159.146 2.50114 148.396 18.5404 131.007 23.5863L129.976 17.8424L134.465 20.2854C134.465 20.2854 151.389 14.1053 157.389 2.21031L159.146 2.50114Z" fill="#F47F81"/>
<path fill-rule="evenodd" clip-rule="evenodd" d="M196.453 107.738C196.453 107.738 192.952 95.5086 190.337 93.1819C187.707 90.8698 175.403 115.663 173.311 126.802C171.219 137.926 179.572 131.208 179.572 131.208L182.143 128.867C182.143 128.867 177.989 132.153 175.49 131.222C172.991 130.292 184.657 96.192 188.884 95.7558C193.112 95.3195 195.726 109.236 195.726 109.236L196.453 107.752V107.738Z" fill="#F47F81"/>
<path fill-rule="evenodd" clip-rule="evenodd" d="M187.606 122.556C187.606 122.556 184.511 122.948 184.046 121.64C183.582 120.331 186.894 113.118 186.894 113.118L189.276 112.595L185.964 106.153L186.037 112.508C186.037 112.508 182.884 119.633 183.117 121.989C183.349 124.33 186.197 124.359 186.197 124.359L187.606 122.556Z" fill="#F47F81"/>
<path style="mix-blend-mode:multiply" opacity="0.5" fill-rule="evenodd" clip-rule="evenodd" d="M198.661 82.5375C195.625 83.2792 195.087 78.9603 195.087 78.9603L193.475 81.1561C190.86 90.9425 179.47 110.544 179.47 110.544C179.47 110.544 170.289 95.3632 160.628 93.9672C150.982 92.5712 140.116 99.8856 138.968 105.629C138.968 105.629 155.079 104.99 170.928 111.359C170.928 111.359 171.073 111.417 171.306 111.504C167.834 113.366 161.5 114.5 161.5 114.5C161.5 114.5 158.362 109.003 153.132 108.538C147.902 108.058 138.954 117.074 128.16 117.132C117.366 117.19 111.875 113.336 105.381 112.188C98.9019 111.039 94.3984 115.954 94.3984 115.954C91.7544 115.445 89.7351 113.991 88.4567 112.798C104.291 106.429 120.025 106.066 120.025 106.066C118.862 100.322 108.403 94.0108 98.7421 95.4068C89.0959 96.8028 79.9147 95.9739 79.9002 95.9884C77.5758 95.8139 74.9318 95.1014 72.3605 93.2837C65.3874 88.3687 63.2083 82.8575 63.2083 82.8575C63.2083 82.8575 63.1066 86.0566 61.4941 85.9839C59.8816 85.9257 52.3564 78.7568 52.3564 78.7568C50.6858 78.9749 49.6398 76.401 49.6398 76.401L49.0732 76.6628C54.4483 100.453 67.305 123.763 82.3843 133.186C97.5363 142.652 150.328 142.652 175.809 132.386C190.961 126.264 202.089 99.2021 206.578 73.2601C204.094 79.1348 198.69 82.523 198.69 82.523L198.661 82.5375Z" fill="url(#paint14_linear_9_2892)"/>
<path fill-rule="evenodd" clip-rule="evenodd" d="M121.317 48.7286L129.99 36.6591C129.99 36.6591 136.818 43.9735 138.852 47.9869C138.852 47.9869 132.402 44.3807 129.99 44.497C127.593 44.6133 121.317 48.7286 121.317 48.7286Z" fill="#CE5870"/>
<path fill-rule="evenodd" clip-rule="evenodd" d="M122 78.5096L129.99 80.7635L134.378 78.5096C134.378 78.5096 131.821 76.7937 129.351 76.7791C126.882 76.7791 121.986 78.5096 121.986 78.5096H122Z" fill="#CE5870"/>
<path fill-rule="evenodd" clip-rule="evenodd" d="M87.2656 57.0899C87.2656 57.0899 95.4881 62.3539 97.7543 61.656C100.021 60.958 108.781 56.77 108.781 56.77C108.781 56.77 99.5121 64.9423 97.2749 64.9423C95.2556 64.9423 87.2656 57.1045 87.2656 57.1045V57.0899Z" fill="#CE5870"/>
<path fill-rule="evenodd" clip-rule="evenodd" d="M89.1106 36.7027L89.9387 40.8471L87.716 40.5853L81.1206 41.7486L92.0597 31.1479L89.1106 36.7027Z" fill="#CE5870"/>
<path fill-rule="evenodd" clip-rule="evenodd" d="M187.548 33.998L189.029 37.6625C189.029 37.6625 187.78 42.8392 185.049 46.1256C185.049 46.1256 191.412 40.5271 191.993 38.0115L187.562 33.998H187.548Z" fill="#CE5870"/>
<path fill-rule="evenodd" clip-rule="evenodd" d="M168.182 30.8861L171.132 36.4555L169.65 41.7632L172.512 40.3381L179.107 41.5014C179.107 41.5014 170.972 33.6781 168.168 30.9007L168.182 30.8861Z" fill="#CE5870"/>
<path fill-rule="evenodd" clip-rule="evenodd" d="M172.977 82.8138C172.977 82.8138 182.419 88.8631 183.102 87.9761C183.785 87.089 186.908 80.7635 186.908 80.7635C186.908 80.7635 185.819 88.5286 182.071 93.1383C182.071 93.1383 175.548 84.3843 172.977 82.7993V82.8138Z" fill="#CE5870"/>
<path fill-rule="evenodd" clip-rule="evenodd" d="M70.2251 80.778C70.2251 80.778 73.639 88.8922 74.8012 88.3541C75.9634 87.8161 82.4571 84.0644 82.4571 84.0644C82.4571 84.0644 75.9489 94.098 75.0336 93.1674C74.1329 92.2367 70.5011 85.3731 70.2251 80.7926V80.778Z" fill="#CE5870"/>
<path fill-rule="evenodd" clip-rule="evenodd" d="M185.964 106.167L186.051 112.508L185.034 115.518L186.894 113.118L189.276 112.595L185.964 106.167Z" fill="#CE5870"/>
<path fill-rule="evenodd" clip-rule="evenodd" d="M68.874 112.857L72.6075 106.429L72.5204 112.769L73.3048 114.427L71.5616 113.38L68.874 112.857Z" fill="#CE5870"/>
<path fill-rule="evenodd" clip-rule="evenodd" d="M76.9076 129.114C76.9076 129.114 82.7911 133.084 84.4182 131.47C86.0453 129.841 82.8493 121.843 82.8493 121.843C82.8493 121.843 87.5997 129.797 86.6118 132.328C85.624 134.858 80.8154 132.328 80.8154 132.328L76.8931 129.114H76.9076Z" fill="#CE5870"/>
<path fill-rule="evenodd" clip-rule="evenodd" d="M195.087 84.7769C195.087 84.7769 194.884 90.6517 195.494 90.6953C196.104 90.7389 199.591 87.4962 199.591 87.4962C199.591 87.4962 195.872 93.6473 193.882 93.1383C193.882 93.1383 193.707 88.5286 195.087 84.7915V84.7769Z" fill="#CE5870"/>
<path fill-rule="evenodd" clip-rule="evenodd" d="M124.397 21.4778L130.848 19.5874L137.007 21.3178L131.022 23.5863L130.426 25.2295L129.221 23.8335L124.397 21.4778Z" fill="#CE5870"/>
<path fill-rule="evenodd" clip-rule="evenodd" d="M155.5 59.402C155.5 59.402 161.805 61.5687 164.057 61.656C166.309 61.7432 174.386 56.77 174.386 56.77C174.386 56.77 165.684 65.0877 162.953 64.6806C160.222 64.2734 155.486 59.4166 155.486 59.4166L155.5 59.402Z" fill="#CE5870"/>
<path fill-rule="evenodd" clip-rule="evenodd" d="M157.984 29.432C157.984 29.432 164.957 26.7127 163.214 21.027C163.214 21.027 158.435 23.0047 157.984 29.432Z" fill="white"/>
<path fill-rule="evenodd" clip-rule="evenodd" d="M100.718 25.2295C100.718 25.2295 99.5845 33.7944 105.265 35.234C105.265 35.234 108.17 29.4029 100.718 25.2295Z" fill="white"/>
<path fill-rule="evenodd" clip-rule="evenodd" d="M108.78 3.69355C108.78 3.69355 118.601 6.87814 124.397 3.69355C124.397 3.69355 116.901 -1.29419 108.78 3.69355Z" fill="white"/>
<path fill-rule="evenodd" clip-rule="evenodd" d="M137.007 5.11861C137.007 5.11861 145.796 7.27076 152.972 3.30093C152.972 3.30093 142.803 -0.218116 137.007 5.11861Z" fill="white"/>
<path fill-rule="evenodd" clip-rule="evenodd" d="M186.327 13.7272C186.327 13.7272 187.155 18.744 190.569 19.5874C193.983 20.4308 195.247 18.9185 195.247 18.9185C195.247 18.9185 193.271 13.5236 186.327 13.7272Z" fill="white"/>
<path fill-rule="evenodd" clip-rule="evenodd" d="M65.0825 16.0393C65.0825 16.0393 69.8475 17.8133 72.259 15.2686C74.6851 12.7238 74.0023 10.877 74.0023 10.877C74.0023 10.877 68.3512 9.9173 65.0825 16.0538V16.0393Z" fill="white"/>
<g style="mix-blend-mode:soft-light">
<path fill-rule="evenodd" clip-rule="evenodd" d="M177.814 75.5285C177.814 75.5285 182.449 77.2444 184.802 74.7724C187.156 72.3003 186.502 70.4972 186.502 70.4972C186.502 70.4972 181.01 69.552 177.829 75.5285H177.814Z" fill="white"/>
</g>
<g style="mix-blend-mode:soft-light">
<path fill-rule="evenodd" clip-rule="evenodd" d="M150.372 82.4939C150.372 82.4939 152.784 84.0208 154.411 82.9156C156.038 81.7959 155.892 80.7053 155.892 80.7053C155.892 80.7053 152.9 79.5129 150.372 82.5085V82.4939Z" fill="white"/>
</g>
<g style="mix-blend-mode:soft-light">
<path fill-rule="evenodd" clip-rule="evenodd" d="M136.092 123.879C136.092 123.879 138.503 125.406 140.13 124.301C141.757 123.181 141.612 122.09 141.612 122.09C141.612 122.09 138.62 120.898 136.092 123.894V123.879Z" fill="white"/>
</g>
<g style="mix-blend-mode:soft-light">
<path fill-rule="evenodd" clip-rule="evenodd" d="M100.877 78.844C100.877 78.844 102.635 83.1483 105.831 83.2064C109.042 83.2646 109.87 81.665 109.87 81.665C109.87 81.665 107.022 77.259 100.877 78.844Z" fill="white"/>
</g>
<g style="mix-blend-mode:soft-light" opacity="0.7">
<path fill-rule="evenodd" clip-rule="evenodd" d="M164.957 19.8346V21.7105C164.957 21.7105 173.194 22.3939 175.94 25.2295C178.686 28.0651 180.4 35.6412 182.201 37.4153C182.201 37.4153 182.913 33.1982 180.821 29.432C178.729 25.6657 178.105 26.4801 175.926 24.7351C173.761 22.9901 169.359 19.5583 164.943 19.8346H164.957Z" fill="white"/>
</g>
<g style="mix-blend-mode:soft-light" opacity="0.7">
<path fill-rule="evenodd" clip-rule="evenodd" d="M177.989 42.7811C175.911 43.0865 171.335 45.1804 171.684 48.7431C171.684 48.7431 176.028 47.4489 177.074 45.7621C178.119 44.0753 178.003 42.7811 178.003 42.7811H177.989Z" fill="white"/>
</g>
<g style="mix-blend-mode:soft-light" opacity="0.7">
<path fill-rule="evenodd" clip-rule="evenodd" d="M137.007 32.3694C137.007 32.3694 136.789 26.8 139.738 23.5863C142.687 20.3726 149.559 17.5952 151.2 16.112C152.842 14.6287 153.713 10.7171 155.805 9.77189C157.883 8.81215 159.147 9.77189 159.147 9.77189C159.147 9.77189 156.575 12.4911 155.195 13.7417C153.815 14.9923 152.362 15.6321 151.157 16.6355C149.951 17.6388 147.612 21.9431 144.997 25.5349C142.382 29.1266 137.007 32.3839 137.007 32.3839V32.3694Z" fill="white"/>
</g>
<g style="mix-blend-mode:soft-light" opacity="0.7">
<path fill-rule="evenodd" clip-rule="evenodd" d="M101.313 71.7332C101.313 71.7332 103.957 68.8976 108.781 69.1303C113.604 69.3629 118.005 59.0676 124.397 57.7734C124.397 57.7734 122 66.76 117.889 68.4905C113.778 70.2354 111.047 69.043 108.781 69.3629C106.514 69.6829 106.601 71.2533 105.032 71.7332C103.464 72.2276 101.313 71.7332 101.313 71.7332Z" fill="white"/>
</g>
<g style="mix-blend-mode:soft-light" opacity="0.7">
<path fill-rule="evenodd" clip-rule="evenodd" d="M109.87 20.8525C109.87 20.8525 113.429 31.4533 121.318 32.3694C121.318 32.3694 118.412 23.4554 109.87 20.8525Z" fill="white"/>
</g>
<g style="mix-blend-mode:soft-light" opacity="0.7">
<path fill-rule="evenodd" clip-rule="evenodd" d="M63.8042 50.3136C63.8042 50.3136 67.3634 52.1894 69.5861 58.5732C71.7942 64.9423 70.4286 68.9703 77.6632 72.693C84.8978 76.4156 92.8878 73.5218 92.8878 73.5218C92.8878 73.5218 87.905 72.1404 85.3627 72.693C82.8204 73.231 82.6897 73.929 81.3822 73.58C80.0893 73.231 81.3677 68.1851 78.346 65.7567C75.3389 63.3282 72.4625 63.2264 70.9371 60.6526C69.4117 58.0787 69.2955 54.5161 67.683 52.4221C66.0705 50.3427 63.8187 50.3136 63.8187 50.3136H63.8042Z" fill="white"/>
</g>
<g style="mix-blend-mode:soft-light" opacity="0.7">
<path fill-rule="evenodd" clip-rule="evenodd" d="M156.895 93.909C160.047 93.4873 165.975 95.0432 166.585 97.4717C166.585 97.4717 163.926 98.3442 160.73 97.0354C157.549 95.7267 156.895 93.909 156.895 93.909Z" fill="white"/>
</g>
<g style="mix-blend-mode:soft-light" opacity="0.7">
<path fill-rule="evenodd" clip-rule="evenodd" d="M78.3457 34.6233C78.3457 34.6233 80.5103 27.4107 85.7256 25.2295C90.9409 23.0628 93.1054 21.8413 94.8487 19.5729C96.592 17.3189 99.7008 23.0483 99.7008 23.0483C99.7008 23.0483 98.5386 21.7832 95.6622 21.6959C92.7858 21.6232 88.0645 24.5024 87.1928 26.1311C86.3212 27.7597 83.3286 34.1434 78.3457 34.6088V34.6233Z" fill="white"/>
</g>
<g style="mix-blend-mode:soft-light" opacity="0.7">
<path fill-rule="evenodd" clip-rule="evenodd" d="M88.0643 10.8189C88.0643 10.8189 92.6985 6.57276 95.5895 6.1656C98.4804 5.75844 103.536 8.84124 105.817 12.6657C105.817 12.6657 103.289 11.735 99.4973 10.0482C95.7057 8.36137 95.0665 7.85242 93.9624 7.91058C92.8583 7.96875 88.0498 10.8189 88.0498 10.8189H88.0643Z" fill="white"/>
</g>
<g style="mix-blend-mode:soft-light" opacity="0.7">
<path fill-rule="evenodd" clip-rule="evenodd" d="M63.8041 109.817C63.8041 109.817 63.1358 103.376 65.6636 102.038C65.6636 102.038 67.6828 107.389 63.8041 109.817Z" fill="white"/>
</g>
<path fill-rule="evenodd" clip-rule="evenodd" d="M141.045 104.146C141.045 104.146 144.459 100.642 148.512 99.9437C152.566 99.2457 167.151 102.634 172.744 108.552C172.744 108.552 159.974 103.041 151.113 103.056C144.343 103.056 141.045 104.146 141.045 104.146Z" fill="#37193E"/>
<path fill-rule="evenodd" clip-rule="evenodd" d="M117.018 104.146C117.018 104.146 113.604 100.642 109.551 99.9437C105.498 99.2457 90.0115 102.634 84.4185 108.552C84.4185 108.552 98.0886 103.041 106.95 103.056C113.72 103.056 117.018 104.146 117.018 104.146Z" fill="#37193E"/>
<path fill-rule="evenodd" clip-rule="evenodd" d="M153.132 119.953C153.132 119.953 146.799 113.685 130.31 113.685C113.822 113.685 105.367 122.498 105.367 122.498C105.367 122.498 111.41 110.85 129.279 110.85C147.147 110.85 153.118 119.953 153.118 119.953H153.132Z" fill="url(#paint15_linear_9_2892)"/>
</g>
<defs>
<linearGradient id="paint0_linear_9_2892" x1="196.453" y1="96.1193" x2="256" y2="96.1193" gradientUnits="userSpaceOnUse">
<stop stop-color="#684A72"/>
<stop offset="0.99" stop-color="#46255E"/>
</linearGradient>
<linearGradient id="paint1_linear_9_2892" x1="236.214" y1="117.423" x2="236.214" y2="73.2455" gradientUnits="userSpaceOnUse">
<stop offset="0.02" stop-color="#FFA993"/>
<stop offset="1" stop-color="#FFCFA9"/>
</linearGradient>
<linearGradient id="paint2_linear_9_2892" x1="59.5477" y1="-1.98508e-06" x2="0.000342247" y2="-1.98508e-06" gradientUnits="userSpaceOnUse">
<stop stop-color="#684A72"/>
<stop offset="0.99" stop-color="#46255E"/>
</linearGradient>
<linearGradient id="paint3_linear_9_2892" x1="19.7865" y1="117.423" x2="19.7865" y2="73.4636" gradientUnits="userSpaceOnUse">
<stop offset="0.02" stop-color="#FFA993"/>
<stop offset="1" stop-color="#FFCFA9"/>
</linearGradient>
<linearGradient id="paint4_linear_9_2892" x1="89.2412" y1="140.413" x2="171.858" y2="140.413" gradientUnits="userSpaceOnUse">
<stop offset="0.02" stop-color="#FF4748"/>
<stop offset="1" stop-color="#B54263"/>
</linearGradient>
<linearGradient id="paint5_linear_9_2892" x1="137.356" y1="139.991" x2="121.723" y2="-0.694641" gradientUnits="userSpaceOnUse">
<stop offset="0.02" stop-color="#FF8E89"/>
<stop offset="1" stop-color="#FFB388"/>
</linearGradient>
<linearGradient id="paint6_linear_9_2892" x1="99.7011" y1="63.3137" x2="99.7011" y2="20.5471" gradientUnits="userSpaceOnUse">
<stop offset="0.02" stop-color="#E08893"/>
<stop offset="0.33" stop-color="#ECB9BF"/>
<stop offset="0.62" stop-color="#F6DFE2"/>
<stop offset="0.85" stop-color="#FCF6F7"/>
<stop offset="1" stop-color="white"/>
</linearGradient>
<linearGradient id="paint7_linear_9_2892" x1="99.4976" y1="46.969" x2="99.4976" y2="31.1479" gradientUnits="userSpaceOnUse">
<stop offset="0.02" stop-color="#E08893"/>
<stop offset="1" stop-color="#FFD1C7"/>
</linearGradient>
<linearGradient id="paint8_linear_9_2892" x1="77.6629" y1="89.9246" x2="77.6629" y2="52.7856" gradientUnits="userSpaceOnUse">
<stop offset="0.02" stop-color="#E08893"/>
<stop offset="1" stop-color="white"/>
</linearGradient>
<linearGradient id="paint9_linear_9_2892" x1="66.317" y1="35.1323" x2="66.317" y2="5.51123" gradientUnits="userSpaceOnUse">
<stop offset="0.02" stop-color="#E08893"/>
<stop offset="1" stop-color="#FFD1C7"/>
</linearGradient>
<linearGradient id="paint10_linear_9_2892" x1="161.703" y1="61.656" x2="161.703" y2="37.6625" gradientUnits="userSpaceOnUse">
<stop offset="0.02" stop-color="#E08893"/>
<stop offset="0.33" stop-color="#ECB9BF"/>
<stop offset="0.62" stop-color="#F6DFE2"/>
<stop offset="0.85" stop-color="#FCF6F7"/>
<stop offset="1" stop-color="white"/>
</linearGradient>
<linearGradient id="paint11_linear_9_2892" x1="160.73" y1="46.62" x2="160.73" y2="30.8861" gradientUnits="userSpaceOnUse">
<stop offset="0.02" stop-color="#E08893"/>
<stop offset="0.33" stop-color="#ECB9BF"/>
<stop offset="0.62" stop-color="#F6DFE2"/>
<stop offset="0.85" stop-color="#FCF6F7"/>
<stop offset="1" stop-color="white"/>
</linearGradient>
<linearGradient id="paint12_linear_9_2892" x1="147.583" y1="89.9246" x2="147.583" y2="55.4758" gradientUnits="userSpaceOnUse">
<stop offset="0.02" stop-color="#E08893"/>
<stop offset="1" stop-color="white"/>
</linearGradient>
<linearGradient id="paint13_linear_9_2892" x1="130.847" y1="21.7105" x2="130.847" y2="5.7439" gradientUnits="userSpaceOnUse">
<stop offset="0.02" stop-color="#E08893"/>
<stop offset="0.33" stop-color="#ECB9BF"/>
<stop offset="0.62" stop-color="#F6DFE2"/>
<stop offset="0.85" stop-color="#FCF6F7"/>
<stop offset="1" stop-color="white"/>
</linearGradient>
<linearGradient id="paint14_linear_9_2892" x1="127.811" y1="140.209" x2="127.811" y2="73.2746" gradientUnits="userSpaceOnUse">
<stop offset="0.02" stop-color="#E08893"/>
<stop offset="1" stop-color="#FFD1C7"/>
</linearGradient>
<linearGradient id="paint15_linear_9_2892" x1="129.25" y1="110.835" x2="129.25" y2="122.483" gradientUnits="userSpaceOnUse">
<stop stop-color="#9B1A43"/>
<stop offset="1" stop-color="#731653"/>
</linearGradient>
<clipPath id="clip0_9_2892">
<rect width="256" height="147" fill="white"/>
</clipPath>
</defs>
</svg>
