<svg width="541" height="101" viewBox="0 0 541 101" fill="none" xmlns="http://www.w3.org/2000/svg">
<g filter="url(#filter0_di_12_2968)">
<path d="M6.2116 5.18873L37.713 4.23774L47.4606 31.4597L59.2291 5.06986L87.5209 5.66423L89.8984 88.1623H64.6972L64.1029 54.8778L55.6629 86.3792L42.2302 87.3302L34.1468 57.3741L32.6015 88.2812L4.90399 87.5679L6.2116 5.18873Z" fill="url(#paint0_linear_12_2968)"/>
<path d="M94.7582 5.66423L150.034 4.23774L149.678 28.7256L121.861 29.0823V40.8507H137.909V55.7099L122.099 56.1854V64.982H147.3L148.251 88.2812L95.8281 88.1623L94.7582 5.66423Z" fill="url(#paint1_linear_12_2968)"/>
<path d="M154.919 5.18873L186.421 4.23774L196.168 31.4597L207.937 5.06986L236.229 5.66423L238.606 88.1623H213.405L212.811 54.8778L204.371 86.3792L190.938 87.3302L182.854 57.3741L181.309 88.2812L153.612 87.5679L154.919 5.18873Z" fill="url(#paint2_linear_12_2968)"/>
<path d="M242.396 13.9854L254.878 4H294.938L307.776 12.7966L309.559 73.422L302.189 84.8338L256.661 85.9037L245.249 77.7014L242.396 13.9854ZM266.408 24.3273L269.856 64.8631L285.309 63.6744L284.596 23.6141L266.408 24.3273Z" fill="url(#paint3_linear_12_2968)"/>
<path d="M314.163 5.18873H360.286L371.817 15.1741L372.886 72.8276L362.188 85.5471L314.876 86.1414L314.163 5.18873ZM337.7 29.32V60.9403L349.825 60.3459L349.112 29.7955L337.7 29.32Z" fill="url(#paint4_linear_12_2968)"/>
<path d="M393 5.7831L429.613 4.59437L449.346 86.9735L422.718 88.5189L420.816 77.3448L402.034 77.9392L399.895 87.9245L374.099 88.2812L393 5.7831ZM407.622 52.8569H416.062L412.139 32.7673L407.622 52.8569Z" fill="url(#paint5_linear_12_2968)"/>
<path d="M445.537 6.97183L472.284 5.18873L474.424 53.9268L482.983 18.5025L498.436 19.0969L507.114 43.9414L509.848 6.02084L536 6.61521L529.937 68.5482L515.435 86.1414L496.296 85.7848L490.234 63.9121L483.458 86.3792H465.389L448.985 67.7161L445.537 6.97183Z" fill="url(#paint6_linear_12_2968)"/>
<path d="M6.15125 3.18964L4.24216 3.24728L4.21185 5.15699L2.90424 87.5362L2.87281 89.5163L4.85251 89.5672L32.55 90.2805L34.5015 90.3307L34.599 88.381L35.5124 70.1118L40.2993 87.8512L40.7284 89.4415L42.3714 89.3252L55.8041 88.3742L57.2259 88.2735L57.5947 86.8968L62.3569 69.1224L62.6976 88.198L62.7326 90.1623H64.6973H89.8984H91.9568L91.8976 88.1047L89.5201 5.60661L89.4653 3.70463L87.5629 3.66467L59.2711 3.0703L57.9434 3.04241L57.4025 4.25529L47.6636 26.094L39.5959 3.56351L39.1058 2.19478L37.6527 2.23865L6.15125 3.18964ZM94.7066 3.66489L92.7328 3.71583L92.7584 5.69016L93.8283 88.1882L93.8538 90.1578L95.8236 90.1623L148.247 90.2812L150.335 90.2859L150.25 88.1996L149.299 64.9004L149.22 62.982H147.3H124.099V58.1261L137.969 57.709L139.909 57.6506V55.7099V40.8507V38.8507H137.909H123.861V31.0568L149.703 30.7255L151.649 30.7005L151.677 28.7548L152.034 4.26687L152.064 2.18469L149.983 2.23841L94.7066 3.66489ZM154.859 3.18964L152.95 3.24728L152.92 5.15699L151.612 87.5362L151.58 89.5163L153.56 89.5672L181.258 90.2805L183.209 90.3307L183.307 88.381L184.22 70.1118L189.007 87.8512L189.436 89.4415L191.079 89.3252L204.512 88.3742L205.934 88.2735L206.302 86.8968L211.065 69.1224L211.405 88.198L211.44 90.1623H213.405H238.606H240.665L240.605 88.1047L238.228 5.60661L238.173 3.70463L236.271 3.66467L207.979 3.0703L206.651 3.04241L206.11 4.25529L196.371 26.0939L188.304 3.56351L187.813 2.19478L186.36 2.23865L154.859 3.18964ZM241.147 12.4236L240.353 13.0589L240.398 14.0748L243.251 77.7909L243.294 78.7596L244.082 79.3255L255.494 87.5277L256.038 87.9189L256.708 87.9031L302.236 86.8333L303.295 86.8084L303.869 85.9189L311.24 74.507L311.577 73.9847L311.559 73.3632L309.775 12.7378L309.746 11.7215L308.907 11.1468L296.068 2.35014L295.557 2H294.938H254.878H254.176L253.628 2.43826L241.147 12.4236ZM314.163 3.18873H312.145L312.163 5.20635L312.876 86.159L312.894 88.1665L314.901 88.1413L362.213 87.5469L363.129 87.5354L363.718 86.8345L374.417 74.115L374.9 73.5408L374.886 72.7905L373.816 15.137L373.8 14.2457L373.126 13.6622L361.595 3.67684L361.031 3.18873H360.286H314.163ZM392.935 3.78415L391.395 3.83416L391.051 5.33646L372.15 87.8345L371.581 90.3162L374.127 90.281L399.922 89.9243L401.516 89.9023L401.85 88.3436L403.662 79.8887L419.137 79.3989L420.747 88.8545L421.047 90.6193L422.834 90.5155L449.462 88.9702L451.848 88.8317L451.291 86.5077L431.558 4.12847L431.178 2.5425L429.548 2.59542L392.935 3.78415ZM445.404 4.97626L443.428 5.10799L443.541 7.08515L446.988 67.8294L447.027 68.5182L447.483 69.0365L463.887 87.6996L464.484 88.3792H465.389H483.458H484.944L485.373 86.9567L490.153 71.1075L494.369 86.319L494.767 87.7567L496.259 87.7845L515.398 88.1411L516.364 88.1591L516.978 87.4136L531.481 69.8203L531.869 69.3499L531.928 68.743L537.99 6.81005L538.201 4.6647L536.045 4.61572L509.893 4.02136L507.99 3.9781L507.853 5.87701L505.814 34.1553L500.324 18.4374L499.875 17.1508L498.513 17.0984L483.059 16.504L481.423 16.4411L481.038 18.0328L475.801 39.7086L474.282 5.10101L474.192 3.05707L472.151 3.19316L445.404 4.97626ZM271.68 62.7168L268.579 26.2438L282.633 25.6926L283.276 61.8249L271.68 62.7168ZM339.7 58.8399V31.4051L347.156 31.7157L347.78 58.4438L339.7 58.8399ZM413.633 50.8569H410.121L412.001 42.4972L413.633 50.8569Z" stroke="#245479" stroke-width="4"/>
</g>
<defs>
<filter id="filter0_di_12_2968" x="0.841644" y="0" width="539.559" height="100.72" filterUnits="userSpaceOnUse" color-interpolation-filters="sRGB">
<feFlood flood-opacity="0" result="BackgroundImageFix"/>
<feColorMatrix in="SourceAlpha" type="matrix" values="0 0 0 0 0 0 0 0 0 0 0 0 0 0 0 0 0 0 127 0" result="hardAlpha"/>
<feOffset dy="8"/>
<feComposite in2="hardAlpha" operator="out"/>
<feColorMatrix type="matrix" values="0 0 0 0 0.125626 0 0 0 0 0.197811 0 0 0 0 0.253955 0 0 0 1 0"/>
<feBlend mode="normal" in2="BackgroundImageFix" result="effect1_dropShadow_12_2968"/>
<feBlend mode="normal" in="SourceGraphic" in2="effect1_dropShadow_12_2968" result="shape"/>
<feColorMatrix in="SourceAlpha" type="matrix" values="0 0 0 0 0 0 0 0 0 0 0 0 0 0 0 0 0 0 127 0" result="hardAlpha"/>
<feOffset dx="3" dy="3"/>
<feComposite in2="hardAlpha" operator="arithmetic" k2="-1" k3="1"/>
<feColorMatrix type="matrix" values="0 0 0 0 1 0 0 0 0 1 0 0 0 0 1 0 0 0 1 0"/>
<feBlend mode="normal" in2="shape" result="effect2_innerShadow_12_2968"/>
</filter>
<linearGradient id="paint0_linear_12_2968" x1="269.872" y1="-4.82633" x2="269.872" y2="111.57" gradientUnits="userSpaceOnUse">
<stop stop-color="#DEF6E6"/>
<stop offset="1" stop-color="#B5D2E9"/>
</linearGradient>
<linearGradient id="paint1_linear_12_2968" x1="269.872" y1="-4.82633" x2="269.872" y2="111.57" gradientUnits="userSpaceOnUse">
<stop stop-color="#DEF6E6"/>
<stop offset="1" stop-color="#B5D2E9"/>
</linearGradient>
<linearGradient id="paint2_linear_12_2968" x1="269.872" y1="-4.82633" x2="269.872" y2="111.57" gradientUnits="userSpaceOnUse">
<stop stop-color="#DEF6E6"/>
<stop offset="1" stop-color="#B5D2E9"/>
</linearGradient>
<linearGradient id="paint3_linear_12_2968" x1="269.872" y1="-4.82633" x2="269.872" y2="111.57" gradientUnits="userSpaceOnUse">
<stop stop-color="#DEF6E6"/>
<stop offset="1" stop-color="#B5D2E9"/>
</linearGradient>
<linearGradient id="paint4_linear_12_2968" x1="269.872" y1="-4.82633" x2="269.872" y2="111.57" gradientUnits="userSpaceOnUse">
<stop stop-color="#DEF6E6"/>
<stop offset="1" stop-color="#B5D2E9"/>
</linearGradient>
<linearGradient id="paint5_linear_12_2968" x1="269.872" y1="-4.82633" x2="269.872" y2="111.57" gradientUnits="userSpaceOnUse">
<stop stop-color="#DEF6E6"/>
<stop offset="1" stop-color="#B5D2E9"/>
</linearGradient>
<linearGradient id="paint6_linear_12_2968" x1="269.872" y1="-4.82633" x2="269.872" y2="111.57" gradientUnits="userSpaceOnUse">
<stop stop-color="#DEF6E6"/>
<stop offset="1" stop-color="#B5D2E9"/>
</linearGradient>
</defs>
</svg>
