<svg width="214" height="198" viewBox="0 0 214 198" fill="none" xmlns="http://www.w3.org/2000/svg">
<g clip-path="url(#clip0_9_1882)">
<path fill-rule="evenodd" clip-rule="evenodd" d="M213.183 68.8308V68.8732C210.588 87.3563 201.946 109.683 190.414 119.504C188.538 121.086 186.593 122.358 184.591 123.22C184.591 123.22 180.516 124.831 173.749 126.611C164.078 129.183 148.894 132.122 132.229 131.331C132.229 131.331 125.49 129.537 122.332 126.159C122.332 126.159 83.0118 126.838 64.3454 123.22C61.0323 122.584 39.6732 100.908 37.502 63.0938C36.9804 53.8947 37.6007 43.7205 39.8847 32.6703C39.8847 32.6703 63.0484 5.62403 107.303 1.34241C151.544 -2.92507 167.616 4.25335 172.41 5.93491C183.491 9.82086 203.906 28.6006 211.787 45.2749C214.24 50.4609 214.55 59.123 213.183 68.8308Z" fill="url(#paint0_linear_9_1882)"/>
<path fill-rule="evenodd" clip-rule="evenodd" d="M88.27 190.468C72.7617 194.411 57.042 193.167 57.042 193.167C57.4931 189.112 60.4115 186.851 60.4115 186.851C65.8112 185.056 74.228 177.623 74.4536 175.023C74.6509 172.692 73.3962 167.252 72.6631 155.82C72.5785 154.562 72.508 153.234 72.4375 151.835C72.0991 144.628 72.7899 137.747 73.5372 132.716C74.2844 127.827 75.088 124.69 75.088 124.69L84.4352 125.396C83.0536 129.692 82.2641 134.906 81.8693 140.347C81.4605 146.013 81.4887 151.906 81.7706 157.247C82.1936 165.301 83.1946 172.084 84.111 174.925C86.2398 181.453 88.27 190.468 88.27 190.468Z" fill="url(#paint1_linear_9_1882)"/>
<path fill-rule="evenodd" clip-rule="evenodd" d="M88.27 190.468C72.7617 194.411 57.042 193.167 57.042 193.167C57.4931 189.112 60.4115 186.851 60.4115 186.851C65.8112 185.056 74.228 177.623 74.4536 175.023C74.6509 172.692 73.3962 167.252 72.6631 155.82C72.6631 155.82 78.528 157.473 81.7847 157.233C82.2077 165.287 83.2087 172.07 84.1251 174.91C86.2539 181.439 88.2841 190.454 88.2841 190.454L88.27 190.468Z" fill="url(#paint2_linear_9_1882)"/>
<path style="mix-blend-mode:multiply" opacity="0.3" fill-rule="evenodd" clip-rule="evenodd" d="M79.7832 35.8638C79.7832 35.8638 87.918 49.9946 94.0085 52.4816C100.085 54.9545 117.99 54.5306 125.349 48.7793C132.709 43.0281 131.68 29.1376 131.68 29.1376C131.68 29.1376 135.416 33.1931 136.656 35.8638C137.897 38.5487 124.912 60.4655 116.496 62.472C102.341 65.8493 80.756 55.4632 80.756 55.4632L77.5557 48.7793L79.7832 35.8638Z" fill="url(#paint3_linear_9_1882)"/>
<path style="mix-blend-mode:multiply" opacity="0.3" fill-rule="evenodd" clip-rule="evenodd" d="M77.5553 37.0791C77.5553 37.0791 70.4779 51.0261 66.0651 56.5371C61.6523 62.0622 55.1247 59.872 51.0925 57.2436C47.0604 54.6153 49.3725 39.877 49.3725 39.877C49.3725 39.877 45.284 44.6532 45.2276 48.525C45.1712 52.3827 49.5699 66.5417 53.3624 67.3754C57.1549 68.2232 68.9411 62.3025 73.1707 57.2436C77.4002 52.1848 77.5553 37.0791 77.5553 37.0791Z" fill="url(#paint4_linear_9_1882)"/>
<path fill-rule="evenodd" clip-rule="evenodd" d="M46.5248 99.5511C46.5248 99.5511 45.1291 102.731 42.5209 105.062C39.7576 107.577 35.6267 109.118 30.4103 104.85C27.7034 102.632 25.3067 99.6924 23.2906 96.5554C17.8063 88.1335 14.8033 78.4398 14.8033 78.4398C11.5466 78.7789 10.1932 77.9876 10.1932 77.9876C3.10165 71.6287 0 63.8568 0 63.8568C1.86099 60.6492 4.25772 59.6883 4.25772 59.6883L3.91936 58.1198C5.78035 55.4208 9.19217 54.361 9.19217 54.361L10.7853 55.548C7.24659 48.7087 5.3856 38.9019 5.3856 38.9019C7.76823 36.5986 10.602 37.1356 10.602 37.1356C12.7027 41.615 16.763 56.2404 16.763 56.2404L19.8929 55.8023L18.9624 38.3226C21.909 36.4573 24.4326 38.3226 24.4326 38.3226C24.7709 42.8727 24.8555 56.9893 24.8555 56.9893L28.9864 59.4339C30.086 62.9949 30.509 68.4776 30.509 68.4776C28.7467 71.3461 23.9109 75.1614 23.9109 75.1614C23.9109 75.1614 26.2372 86.0704 30.7064 92.514C31.9047 94.2521 33.2864 95.6793 34.7949 96.4565C36.811 97.5021 38.7002 96.8521 40.1946 95.7923C42.1402 94.4075 43.395 92.3303 43.395 92.3303L46.5248 99.537V99.5511Z" fill="url(#paint5_linear_9_1882)"/>
<path style="mix-blend-mode:multiply" opacity="0.3" fill-rule="evenodd" clip-rule="evenodd" d="M56.4785 43.5792C56.4785 43.5792 56.9297 48.1293 61.2015 48.7793C65.4733 49.4294 66.1782 44.5966 66.1782 44.5966C66.1782 44.5966 67.1087 50.3761 65.8399 52.2696C64.571 54.1632 57.4795 54.8697 56.1825 53.6544C54.8995 52.4392 54.3638 45.713 54.3638 45.713L56.4644 43.5934L56.4785 43.5792Z" fill="url(#paint6_linear_9_1882)"/>
<path style="mix-blend-mode:multiply" opacity="0.3" fill-rule="evenodd" clip-rule="evenodd" d="M140.096 22.5809C140.096 22.5809 155.774 35.6943 167.236 34.3377C178.698 32.9812 181.856 26.2267 181.856 26.2267L178.528 19.6983C178.528 19.6983 186.959 27.7104 187.721 30.0278C188.482 32.3311 175.977 42.9999 170.351 43.0705C164.726 43.1412 145.51 35.3127 140.096 22.5809Z" fill="url(#paint7_linear_9_1882)"/>
<path style="mix-blend-mode:multiply" opacity="0.3" fill-rule="evenodd" clip-rule="evenodd" d="M87.3961 9.04368C87.3961 9.04368 90.6247 11.785 101.65 8.4078C112.675 5.03055 114.014 0.763066 114.014 0.763066L121.712 0.310883C121.712 0.310883 98.1109 15.9395 82.7719 17.72C82.7719 17.72 73.4105 18.3982 68.0249 14.0036C68.0249 14.0036 75.8636 14.7666 79.1486 13.0709C82.4335 11.3753 83.1948 9.02955 83.1948 9.02955L87.3961 9.05781V9.04368Z" fill="url(#paint8_linear_9_1882)"/>
<path fill-rule="evenodd" clip-rule="evenodd" d="M30.7205 92.514C28.0136 97.8413 23.6713 96.6543 23.2906 96.5413C17.8063 88.1193 14.8033 78.4256 14.8033 78.4256C11.5466 78.7648 10.1932 77.9735 10.1932 77.9735C3.10165 71.6288 0 63.8568 0 63.8568C1.86099 60.6492 4.25772 59.6883 4.25772 59.6883L3.91936 58.1198C5.78035 55.4208 9.19217 54.361 9.19217 54.361L10.7853 55.548C7.24659 48.7087 5.3856 38.9019 5.3856 38.9019C6.82364 35.6943 11.3774 35.878 11.3774 35.878C13.4781 40.3574 16.8053 55.1947 16.8053 55.1947H19.3853L18.3702 37.8987C21.3168 36.0334 25.5323 38.6759 25.5323 38.6759C25.8706 43.226 24.9119 55.4632 24.9119 55.4632L29.071 57.7382C30.7064 61.8785 30.509 68.4635 30.509 68.4635C28.7467 71.332 23.9109 75.1473 23.9109 75.1473C23.9109 75.1473 26.2372 86.0562 30.7064 92.4999L30.7205 92.514Z" fill="url(#paint9_linear_9_1882)"/>
<path style="mix-blend-mode:multiply" opacity="0.3" fill-rule="evenodd" clip-rule="evenodd" d="M96.518 31.2996C96.518 31.2996 101.199 35.9204 106.034 35.8638C110.87 35.8073 112.097 31.5257 112.097 31.5257L114.014 37.065C114.014 37.065 107.388 43.0705 104.85 43.0705C102.312 43.0705 96.5039 31.2996 96.5039 31.2996H96.518Z" fill="url(#paint10_linear_9_1882)"/>
<path fill-rule="evenodd" clip-rule="evenodd" d="M88.27 190.468V193.351C88.27 193.351 74.6227 197.308 57.042 194.51V193.153C57.042 193.153 73.5513 194.171 88.27 190.454V190.468Z" fill="url(#paint11_linear_9_1882)"/>
<path fill-rule="evenodd" clip-rule="evenodd" d="M93.9943 3.4055L84.2805 11.7144C84.2805 11.7144 78.0631 36.0475 78.049 59.2502C78.0208 82.4529 82.5887 107.535 82.5887 107.535C82.5887 107.535 75.8638 81.8311 75.8638 56.4947C75.8638 31.1583 82.5887 10.372 82.5887 10.372V6.50014L93.9943 3.43376V3.4055Z" fill="#F47F81"/>
<path fill-rule="evenodd" clip-rule="evenodd" d="M77.5557 55.4632C77.5557 55.4632 83.9 58.9111 86.2403 60.1122C90.5403 62.3025 111.223 65.1003 116.721 64.0829C122.234 63.0655 138.743 40.2161 138.743 35.878C138.743 31.5398 125.659 13.0427 118.004 13.0568C114.719 13.0568 98.0125 25.1103 96.518 28.8267C95.0236 32.5431 103.229 44.1444 104.47 44.4836C105.71 44.8227 113.577 39.3541 113.577 39.3541L118.526 41.4313L112.125 31.5257L112.802 37.828C112.802 37.828 107.811 41.9118 105.386 42.4488C102.961 42.9857 96.5321 32.5572 97.6318 29.3496C98.7315 26.1419 113.309 15.996 118.624 16.5047C123.939 17.0134 134.894 31.879 134.979 36.6128C135.063 41.3466 122.671 61.3698 116.524 62.4579C108.135 63.9558 89.9764 59.335 86.776 56.6219C83.5757 53.9088 78.5144 45.3032 78.5144 45.3032L77.5839 55.4349L77.5557 55.4632Z" fill="#F47F81"/>
<path fill-rule="evenodd" clip-rule="evenodd" d="M77.5558 54.7001C77.5558 54.7001 75.864 56.4806 71.9869 59.5752C68.3354 62.5003 56.0557 68.958 52.3196 68.3928C48.5835 67.8276 42.6481 52.0011 43.7759 46.1369C44.9038 40.2726 56.0839 26.7919 60.8068 27.4702C65.5298 28.1484 68.5046 50.2207 66.8128 53.1457C65.121 56.0708 56.817 54.6153 55.8019 54.0501C54.7868 53.4849 53.3629 46.8434 53.3629 46.8434L50.5291 46.1651L56.4786 43.5792L54.7868 46.8434C54.7868 46.8434 55.8301 52.1283 56.8029 53.3436C57.7757 54.5729 64.7544 53.174 66.0515 50.8142C67.3485 48.4543 65.121 32.7409 60.5813 31.2148C56.0416 29.6887 46.2009 42.7738 45.6792 47.0978C45.1576 51.4218 50.5432 66.3015 54.533 66.8667C58.5229 67.4319 67.4331 62.1612 70.718 58.7556C74.003 55.3501 76.6958 40.4846 76.6958 40.4846L77.5417 54.7001H77.5558Z" fill="#F47F81"/>
<path fill-rule="evenodd" clip-rule="evenodd" d="M65.6 13.622C65.6 13.622 73.9463 18.5819 80.1355 19.6983L82.6027 19.2885C82.6027 19.2885 114.437 7.72952 125.659 0L118.836 0.438053C118.836 0.438053 111.194 7.673 95.249 13.6786C85.0559 17.5221 82.5886 15.0069 82.5886 15.0069L80.9955 15.4308C80.9955 15.4308 79.1345 17.621 74.3411 16.7025C69.5335 15.7699 68.2223 12.3079 68.2223 12.3079L65.5859 13.6503L65.6 13.622Z" fill="#F47F81"/>
<path fill-rule="evenodd" clip-rule="evenodd" d="M159.581 2.23266C159.581 2.23266 140.801 5.52512 137.728 9.84913C134.654 14.1731 141.887 37.828 170.436 41.6574C170.436 41.6574 182.913 37.7715 184.929 29.1235C184.929 29.1235 180.037 18.4548 166.559 13.0427C166.559 13.0427 159.82 12.1948 155.097 16.4199C155.097 16.4199 159.087 25.2093 165.149 28.1343L170.436 27.6821L162.457 31.9637L163.133 29.1235C163.133 29.1235 156.394 23.5136 153.025 16.7591C153.025 16.7591 158.65 11.9122 167.405 11.5731C167.405 11.5731 182.688 19.345 189.652 30.3811C189.652 30.3811 182.913 43.452 170.098 44.5684C170.098 44.5684 137.164 38.5063 134.697 9.835C134.697 9.835 139.208 5.27077 147.414 2.78376V0.579361C147.414 0.579361 155.844 1.41308 159.595 2.24679L159.581 2.23266Z" fill="#F47F81"/>
<path fill-rule="evenodd" clip-rule="evenodd" d="M37.5161 50.6446C37.5161 50.6446 40.9702 76.0093 43.6771 81.5344C46.3699 87.0595 52.1926 89.5041 52.1926 89.5041C52.1926 89.5041 54.4624 77.7615 64.6274 77.9311C74.8769 78.1006 79.7832 87.4411 79.7832 87.4411C79.7832 87.4411 80.6996 86.9465 90.3711 81.5344C100.409 75.9245 107.599 68.5624 120.626 69.2265C133.667 69.9048 135.923 77.705 136.656 77.2528C137.403 76.8006 143.861 57.4274 149.288 54.0501C154.716 50.6729 170.831 48.3695 176.823 50.6446C182.814 52.9196 178.923 82.1279 176.823 85.8867C174.722 89.6455 155.619 88.4302 154.265 85.8867C152.912 83.3431 154.265 67.9406 157.635 65.7221C161.004 63.5177 166.517 62.7264 166.517 62.7264L167.87 57.6534V70.4559L165.854 64.2808C165.854 64.2808 159.341 66.4569 157.987 68.4211C156.634 70.3852 154.279 81.1246 155.858 84.2334C157.423 87.3421 172.466 86.5932 175.3 84.0073C178.134 81.4355 177.429 61.0307 176.202 56.523C174.962 52.0153 154.674 51.8316 149.909 55.4491C145.143 59.0665 140.576 80.729 140.026 81.5203C139.462 82.3116 133.992 82.2409 133.992 82.2409C133.992 82.2409 123.897 74.7234 112.167 76.5604C100.423 78.3974 84.9996 86.4802 84.9996 86.4802L79.6986 93.7292C79.6986 93.7292 73.876 81.4072 65.431 82.3116C56.986 83.216 55.8582 91.5955 55.8582 91.5955L56.69 96.2021C56.69 96.2021 50.3598 92.6836 44.9037 85.2367C39.4476 77.7898 37.5725 65.708 37.5725 65.708V50.6305L37.5161 50.6446Z" fill="#F47F81"/>
<path fill-rule="evenodd" clip-rule="evenodd" d="M126.477 125.693C126.477 125.693 138.066 105.981 145.143 104.285C152.221 102.589 159.129 108.849 160.652 111.887C162.174 114.925 159.58 120.041 159.58 120.041L154.335 121.44C154.335 121.44 159.82 115.9 159.58 112.961C159.34 110.022 152.348 105.952 145.482 107.478C138.616 109.005 134.147 122.655 134.147 122.655L136.642 124.478C136.642 124.478 128.141 126.258 126.463 125.693H126.477Z" fill="#F47F81"/>
<path fill-rule="evenodd" clip-rule="evenodd" d="M209.362 85.8867C209.362 85.8867 200.607 97.0217 195.898 97.8695C191.175 98.7174 183.928 97.3891 183.252 96.2162C182.575 95.0575 180.277 75.6843 183.646 58.1056C187.016 40.527 196.293 33.8431 198.76 32.6562C201.227 31.4692 209.714 46.3347 210.391 58.6709C211.068 71.007 198.986 83.117 196.631 84.2334C194.277 85.3638 189.441 73.282 190.456 64.2808C191.471 55.2795 196.081 47.6206 198.887 47.3945C201.692 47.1684 203.271 58.2045 202.031 63.3905C202.031 63.3905 201.185 49.5565 198.436 49.7261C195.672 49.8957 191.513 60.4796 191.584 68.2374C191.654 75.9951 195.884 80.6724 198.21 80.7431C200.536 80.8137 210.56 68.2091 208.995 57.6534C207.43 47.0978 202.2 39.4672 199.112 38.6617C196.025 37.8704 186.72 46.4902 184.619 62.147C182.519 77.8039 186.424 94.6195 188.214 96.2021C190.019 97.7848 195.137 97.0217 200.804 92.1183C206.458 87.215 213.211 68.8026 213.211 68.8026C213.211 68.8026 211.815 78.7506 209.376 85.8725L209.362 85.8867Z" fill="#F47F81"/>
<path style="mix-blend-mode:multiply" opacity="0.5" fill-rule="evenodd" clip-rule="evenodd" d="M213.182 68.8309V68.8733C210.588 87.3563 201.946 109.683 190.413 119.504L173.749 126.611C164.078 129.183 148.894 132.122 132.229 131.331C132.229 131.331 125.49 129.537 122.332 126.159C122.332 126.159 83.0117 126.838 64.3454 123.22C61.0322 122.584 39.6731 100.908 37.502 63.0938C37.502 63.0938 40.9561 75.8821 47.54 80.1637C47.54 80.1637 53.6024 75.0484 62.8791 74.469C72.1418 73.8755 77.8235 79.0756 77.8235 79.0756C77.8235 79.0756 81.3481 76.8571 91.1465 72.9712C100.917 69.0852 109.178 66.1601 120.091 66.2873C130.989 66.4428 137.333 75.8962 137.333 75.8962L143.804 66.2873C143.804 66.2873 144.157 70.47 149.26 72.2929C154.378 74.1158 156.098 71.2048 156.098 71.2048C156.098 71.4874 156.168 77.0691 161.117 79.0756C166.221 81.1387 179.572 73.7766 179.783 68.4211C179.783 68.4211 179.938 72.3918 181.969 72.957C183.999 73.5223 191.64 66.2167 191.64 66.2167C191.64 66.2167 200.282 72.0527 206.838 69.6504L213.182 68.8167V68.8309Z" fill="url(#paint12_linear_9_1882)"/>
<path fill-rule="evenodd" clip-rule="evenodd" d="M70.7178 109.485C70.7178 109.485 73.5939 114.713 84.929 115.363C96.2641 116.013 109.629 110.827 109.629 110.827V111.35C109.629 111.35 97.7868 121.185 85.8595 120.521C73.9322 119.843 70.7178 109.485 70.7178 109.485Z" fill="url(#paint13_linear_9_1882)"/>
<path fill-rule="evenodd" clip-rule="evenodd" d="M57.6343 99.3674C57.6343 99.3674 60.2989 108.567 67.5032 107.959C74.6934 107.337 75.8776 94.888 75.8776 94.888L57.6484 99.3674H57.6343Z" fill="#CE5870"/>
<path fill-rule="evenodd" clip-rule="evenodd" d="M96.5176 92.5988C96.5176 92.5988 98.6746 110.375 115.776 109.443C132.877 108.51 133.991 91.1998 133.991 91.1998L96.5176 92.5988Z" fill="#CE5870"/>
<path fill-rule="evenodd" clip-rule="evenodd" d="M77.8232 114.134C77.8232 114.134 79.9803 117.61 85.7325 117.61C90.8079 117.61 94.7273 114.742 94.7273 114.742C94.7273 114.742 85.2249 116.579 77.8373 114.134H77.8232Z" fill="url(#paint14_linear_9_1882)"/>
<path fill-rule="evenodd" clip-rule="evenodd" d="M95.5168 83.8236C95.5168 83.8236 94.544 99.0424 105.625 105.09C116.157 110.827 128.747 105.316 132.116 98.3359C135.486 91.3553 133.949 82.2692 133.949 82.2692C133.949 82.2692 116.763 68.52 95.5168 83.8377V83.8236Z" fill="url(#paint15_linear_9_1882)"/>
<path fill-rule="evenodd" clip-rule="evenodd" d="M129.564 92.1325C129.564 97.375 125.321 101.642 120.076 101.642C114.832 101.642 110.588 97.3891 110.588 92.1325C110.588 86.8758 114.832 82.6225 120.076 82.6225C125.321 82.6225 129.564 86.8758 129.564 92.1325Z" fill="#37193E"/>
<g style="mix-blend-mode:multiply">
<path fill-rule="evenodd" clip-rule="evenodd" d="M96.2783 91.6238C96.2783 91.6238 107.05 87.3987 119.019 87.7378C130.989 88.0769 133.935 92.1466 133.935 92.1466C133.935 92.1466 134.429 85.7454 133.935 82.2692C133.935 82.2692 129.396 75.9245 115.776 75.9245C102.157 75.9245 95.5029 83.8377 95.5029 83.8377C95.5029 83.8377 95.5029 88.9672 96.2642 91.6379L96.2783 91.6238Z" fill="#D9CCDA"/>
</g>
<path fill-rule="evenodd" clip-rule="evenodd" d="M55.8018 91.6237C55.8018 91.6237 57.127 107.478 66.6716 106.687C76.2304 105.896 77.034 91.6238 75.8638 86.2682C75.8638 86.2682 71.5638 80.6724 64.5287 81.6474C57.4936 82.6225 55.8018 91.6096 55.8018 91.6096V91.6237Z" fill="url(#paint16_linear_9_1882)"/>
<path fill-rule="evenodd" clip-rule="evenodd" d="M74.6935 96.4141C74.5384 100.865 71.8456 104.398 68.6734 104.285C65.5013 104.172 63.0482 100.484 63.2033 96.0184C63.3583 91.5672 66.0511 88.0345 69.2233 88.1476C72.3954 88.2606 74.8486 91.9488 74.6935 96.4141Z" fill="#37193E"/>
<g style="mix-blend-mode:multiply">
<path fill-rule="evenodd" clip-rule="evenodd" d="M55.8018 91.6238L56.6336 96.2304C56.6336 96.2304 60.6375 90.6487 67.6867 89.9422C74.454 89.2639 76.1881 93.0934 76.1881 93.0934C76.1881 93.0934 76.6251 89.2215 75.8638 86.2823C75.8638 86.2823 72.4943 81.3507 66.0372 81.5485C59.5942 81.7464 55.8018 91.6238 55.8018 91.6238Z" fill="#D9CCDA"/>
</g>
<path fill-rule="evenodd" clip-rule="evenodd" d="M122.332 126.145C122.332 126.145 143.296 124.068 156.267 121.016C169.252 117.978 184.76 105.133 184.76 105.133C184.76 105.133 197.702 99.537 202.778 102.504C202.778 102.504 195.94 117.808 186.057 124.223C176.174 130.639 138.32 132.589 131.327 131.458C125.659 130.54 122.332 126.145 122.332 126.145Z" fill="url(#paint17_linear_9_1882)"/>
<path style="mix-blend-mode:multiply" opacity="0.5" fill-rule="evenodd" clip-rule="evenodd" d="M4.44092 70.7244C4.44092 70.7244 9.38947 72.194 16.6361 69.9896C23.8826 67.7993 24.9259 63.2351 24.9259 63.2351L24.3902 61.2709C24.3902 61.2709 6.58388 67.1776 4.44092 70.7385V70.7244Z" fill="url(#paint18_linear_9_1882)"/>
<path fill-rule="evenodd" clip-rule="evenodd" d="M24.9259 55.4632C24.9259 55.4632 19.0609 55.6328 13.2383 57.2437L10.7852 55.5621L12.8999 55.9012L16.8052 55.1947H19.3852L19.3147 54.0501L24.9118 55.4773L24.9259 55.4632Z" fill="#F47F81"/>
<path fill-rule="evenodd" clip-rule="evenodd" d="M0.733337 65.4536C0.733337 65.4536 4.38483 68.3645 7.41599 68.9298C7.41599 68.9298 9.75633 68.0254 10.7855 66.3015C10.7855 66.3015 7.44419 61.8785 4.25794 59.6883L3.91958 58.1198C3.91958 58.1198 9.27698 61.8785 12.4209 66.3015C12.4209 66.3015 14.9446 65.9199 16.2416 64.2949C16.2416 64.2949 15.2829 61.5959 13.2386 57.2437C13.2386 57.2437 15.4521 60.7622 16.2416 61.384C16.2416 61.384 20.4006 62.0057 24.3905 61.2709C24.3905 61.2709 15.1137 65.383 11.4058 67.4602C7.69796 69.5374 6.51369 71.12 6.51369 71.12L6.72517 74.469C6.72517 74.469 3.52483 71.0494 0.719238 65.4536H0.733337Z" fill="#F47F81"/>
<path fill-rule="evenodd" clip-rule="evenodd" d="M181.221 184.039C181.221 184.039 182.8 180.944 183.237 178.825C183.688 176.719 183.858 172.494 183.858 172.494C183.858 172.494 184.14 176.436 183.858 179.192C183.576 181.947 182.603 183.417 182.603 183.417L183.406 184.039H181.221Z" fill="#F47F81"/>
<path fill-rule="evenodd" clip-rule="evenodd" d="M186.043 176.267C186.043 176.267 185.676 180.662 183.406 184.039H181.221C181.221 184.039 180.46 185.805 179.275 187.501H177.175L175.229 189.79C175.229 189.79 173.044 190.129 171.775 188.094L171.93 186.074L169.491 185.056C169.491 185.056 169.237 179.037 171.098 173.554C171.098 173.554 171.69 168.241 170.845 164.962C170.845 164.962 169.773 164.892 169.519 167.266C169.519 167.478 169.519 173.413 168.025 176.578C168.025 176.578 164.867 177.298 163.344 175.518C163.344 175.518 164.402 172.296 164.571 167.577C164.726 162.843 164.021 160.398 164.105 159.564C164.204 158.717 167.235 155.495 170.591 153.813C170.591 153.813 171.944 145.208 170.957 134.101C170.337 126.739 168.659 118.274 164.923 110.502L164.74 110.531C163.838 110.644 160.144 110.743 159.636 105.218C159.072 98.9011 162.78 93.051 167.954 93.8423C167.954 93.8423 169.11 95.8488 170.746 100.371C172.861 106.221 175.779 116.324 178.035 131.783C179.05 138.693 179.924 146.677 180.53 155.848C180.53 155.848 185.352 168.749 186.029 176.295L186.043 176.267Z" fill="url(#paint19_linear_9_1882)"/>
<path fill-rule="evenodd" clip-rule="evenodd" d="M186.043 176.267C186.043 176.267 185.676 180.662 183.406 184.039H181.221C181.221 184.039 180.46 185.805 179.275 187.501H177.175L175.229 189.79C175.229 189.79 173.044 190.129 171.775 188.094L171.93 186.074L169.491 185.056C169.491 185.056 169.237 179.037 171.098 173.554C171.098 173.554 171.691 168.241 170.845 164.962C170.845 164.962 169.773 164.892 169.519 167.266C169.519 167.478 169.519 173.413 168.025 176.578C168.025 176.578 164.867 177.298 163.344 175.518C163.344 175.518 164.402 172.296 164.571 167.577C164.726 162.843 164.021 160.398 164.106 159.564C164.204 158.717 167.235 155.495 170.591 153.813C170.591 153.813 171.944 145.208 170.957 134.101C170.957 134.101 173.058 131.317 178.035 131.769C179.05 138.679 179.924 146.663 180.53 155.834C180.53 155.834 185.352 168.735 186.029 176.281L186.043 176.267Z" fill="url(#paint20_linear_9_1882)"/>
<path fill-rule="evenodd" clip-rule="evenodd" d="M171.944 186.074C171.944 186.074 174.482 180.944 175.666 177.793L176.794 171.604C176.794 171.604 176.569 176.62 176.174 178.471L171.958 186.074H171.944Z" fill="#F47F81"/>
<path fill-rule="evenodd" clip-rule="evenodd" d="M176.78 187.967C176.78 187.967 179.924 181.962 180.827 178.839L181.729 171.604C181.729 171.604 181.954 177.185 181.447 179.574C180.939 181.962 177.626 187.543 177.626 187.543L176.78 187.981V187.967Z" fill="#F47F81"/>
<path fill-rule="evenodd" clip-rule="evenodd" d="M165.826 195.527C149.866 197.322 134.696 193.351 134.696 193.351C136.205 178.457 136.12 165.146 135.429 154.322C135.021 148.062 134.414 142.65 133.794 138.227C132.61 129.819 131.355 125.015 131.355 125.015L139.222 124.238C139.222 124.238 141.647 130.738 142.93 140.559C143.099 141.929 143.268 143.371 143.395 144.854C143.55 146.833 143.705 148.938 143.86 151.128C144.467 159.974 145.101 169.88 146.722 175.235C148.597 181.425 164.19 188.448 164.19 188.448C166.446 191.599 165.882 195.541 165.882 195.541L165.826 195.527Z" fill="url(#paint21_linear_9_1882)"/>
<path fill-rule="evenodd" clip-rule="evenodd" d="M165.826 195.527C149.866 197.322 134.696 193.351 134.696 193.351C136.205 178.457 136.12 165.146 135.429 154.322L143.818 151.114C144.424 159.96 145.059 169.866 146.68 175.221C148.555 181.411 164.148 188.434 164.148 188.434C166.404 191.585 165.84 195.527 165.84 195.527H165.826Z" fill="url(#paint22_linear_9_1882)"/>
<path fill-rule="evenodd" clip-rule="evenodd" d="M134.696 193.351V195.993C134.696 195.993 149.612 199.696 165.882 197.053L165.826 195.527C165.826 195.527 154.758 196.248 134.696 193.351Z" fill="url(#paint23_linear_9_1882)"/>
<g style="mix-blend-mode:multiply">
<path fill-rule="evenodd" clip-rule="evenodd" d="M142.887 140.544C138.601 136.715 134.076 138.114 133.766 138.213C132.581 129.805 131.327 125.001 131.327 125.001L139.194 124.223C139.194 124.223 141.619 130.724 142.901 140.544H142.887Z" fill="#5E364C"/>
</g>
<g style="mix-blend-mode:multiply">
<path fill-rule="evenodd" clip-rule="evenodd" d="M84.4357 125.396C83.054 129.692 82.2645 134.906 81.8698 140.347C78.9937 136.856 75.596 134.2 73.5376 132.73C74.2848 127.841 75.0884 124.704 75.0884 124.704L84.4357 125.41V125.396Z" fill="#5E364C"/>
</g>
<g style="mix-blend-mode:multiply">
<path fill-rule="evenodd" clip-rule="evenodd" d="M170.76 100.342C165.022 101.473 164.937 110.474 164.937 110.474L164.754 110.502C163.852 110.615 160.158 110.714 159.65 105.189C159.086 98.8728 162.794 93.0227 167.968 93.814C167.968 93.814 169.125 95.8206 170.76 100.342Z" fill="#5E364C"/>
</g>
<g style="mix-blend-mode:multiply">
<path fill-rule="evenodd" clip-rule="evenodd" d="M46.525 99.5511C46.525 99.5511 45.1293 102.731 42.5211 105.062C44.1847 99.0848 40.1948 95.8065 40.1948 95.8065C42.1404 94.4216 43.3952 92.3444 43.3952 92.3444L46.525 99.5511Z" fill="#5E364C"/>
</g>
<path fill-rule="evenodd" clip-rule="evenodd" d="M70.7178 58.7556C70.7178 58.7556 76.484 56.8056 77.5414 55.4632L84.4496 59.1796C84.4496 59.1796 81.6159 50.3337 77.5837 46.1369C77.5837 46.1369 72.762 57.5969 70.7178 58.7556Z" fill="#CE5870"/>
<path fill-rule="evenodd" clip-rule="evenodd" d="M53.3625 46.8434L50.5146 46.1793L56.4783 43.5792L54.7865 46.8434L55.1389 48.4119L53.3625 46.8434Z" fill="#CE5870"/>
<path fill-rule="evenodd" clip-rule="evenodd" d="M50.5146 62.7405C50.5146 62.7405 52.5871 66.5699 54.7441 66.8949C56.9012 67.22 60.9897 65.2416 60.9897 65.2416C60.9897 65.2416 56.0694 68.6754 53.4048 68.3928C50.7261 68.1102 50.5005 62.7405 50.5005 62.7405H50.5146Z" fill="#CE5870"/>
<path fill-rule="evenodd" clip-rule="evenodd" d="M107.148 62.4014C107.148 62.4014 114.155 63.7155 117.524 62.1329C119.71 61.1013 125.349 55.7175 125.349 55.7175C125.349 55.7175 120.598 62.9383 116.721 64.0688C112.844 65.1993 107.148 62.4014 107.148 62.4014Z" fill="#CE5870"/>
<path fill-rule="evenodd" clip-rule="evenodd" d="M73.2554 80.8137L79.6138 85.9008L88.4112 82.6507L84.943 86.5084L80.361 92.3585C80.361 92.3585 74.3551 84.7986 73.2695 80.8279L73.2554 80.8137Z" fill="#CE5870"/>
<path fill-rule="evenodd" clip-rule="evenodd" d="M53.3623 91.1998C53.3623 91.1998 53.5315 80.4463 61.3843 78.3267C69.2371 76.2071 75.8634 82.9051 75.8634 82.9051V86.2823C75.8634 86.2823 70.9712 80.6018 64.5283 81.6616C58.0853 82.7214 53.3623 91.214 53.3623 91.214V91.1998Z" fill="#CE5870"/>
<path fill-rule="evenodd" clip-rule="evenodd" d="M95.4887 81.6616C95.4887 81.6616 99.6336 72.9853 113.112 69.7494C120.316 68.0254 131.82 70.4276 136.642 77.2669V81.9724C136.642 81.9724 130.058 73.8049 114.874 75.444C99.7041 77.0973 95.4746 81.6616 95.4746 81.6616H95.4887Z" fill="#CE5870"/>
<path fill-rule="evenodd" clip-rule="evenodd" d="M94.9106 84.2475C94.9106 84.2475 102.439 73.9462 118.173 73.9462C131.214 73.9462 136.642 81.9725 136.642 81.9725L133.921 82.2692C133.921 82.2692 127.323 76.5886 117.031 76.5886C103.764 76.5886 94.8965 84.2475 94.8965 84.2475H94.9106Z" fill="#4B3052"/>
<path fill-rule="evenodd" clip-rule="evenodd" d="M75.8634 86.2682C75.8634 86.2682 71.648 79.0898 64.7961 80.305C56.9997 81.6757 54.4902 90.5357 53.3623 91.1998L55.8013 91.6237C55.8013 91.6237 59.5092 82.8627 65.3742 82.3399C71.225 81.8029 75.8634 86.2823 75.8634 86.2823V86.2682Z" fill="#4B3052"/>
<path fill-rule="evenodd" clip-rule="evenodd" d="M155.393 79.0898C155.393 79.0898 155.054 83.8942 156.605 85.0671C158.17 86.2541 165.628 86.4236 165.628 86.4236C165.628 86.4236 157.86 88.2465 155.365 86.7063C152.869 85.166 155.393 79.0898 155.393 79.0898Z" fill="#CE5870"/>
<path fill-rule="evenodd" clip-rule="evenodd" d="M158.847 38.6759C158.847 38.6759 167.997 41.7281 170.436 41.6716C172.875 41.615 180.009 36.4573 180.009 36.4573C180.009 36.4573 178.021 43.1977 170.098 44.6108C170.098 44.6108 164.543 43.777 158.847 38.69V38.6759Z" fill="#CE5870"/>
<path fill-rule="evenodd" clip-rule="evenodd" d="M162.456 31.9779L163.133 29.1376L163.922 27.456L165.149 28.1484L170.436 27.6963L162.456 31.9779Z" fill="#CE5870"/>
<path fill-rule="evenodd" clip-rule="evenodd" d="M133.329 31.9779C133.329 31.9779 135.345 34.6062 134.95 36.6269C134.555 38.6476 132.68 43.0705 132.68 43.0705C132.68 43.0705 137.727 39.0715 137.981 36.4432C138.235 33.8149 133.329 31.9779 133.329 31.9779Z" fill="#CE5870"/>
<path fill-rule="evenodd" clip-rule="evenodd" d="M74.3412 16.6884C74.3412 16.6884 79.6705 19.133 81.7993 18.9635C83.9282 18.808 89.4407 15.4025 89.4407 15.4025C89.4407 15.4025 84.7036 16.1373 83.7731 15.9677C82.8426 15.7982 82.2082 14.3992 82.2082 14.3992C82.2082 14.3992 80.8547 16.1373 79.2193 16.6884C77.5698 17.2395 74.3271 16.6884 74.3271 16.6884H74.3412Z" fill="#CE5870"/>
<path fill-rule="evenodd" clip-rule="evenodd" d="M184.887 84.2475C184.887 84.2475 185.958 94.7466 188.186 96.2304C190.399 97.7141 194.206 96.2304 194.206 96.2304C194.206 96.2304 192.148 98.5196 184.253 96.8945C184.253 96.8945 183.364 97.2478 182.772 93.2771C182.18 89.3063 184.887 84.2475 184.887 84.2475Z" fill="#CE5870"/>
<path fill-rule="evenodd" clip-rule="evenodd" d="M191.781 70.9505C191.781 70.9505 191.809 80.192 198.182 80.7431C198.182 80.7431 199.888 80.3757 201.861 77.7615C201.861 77.7615 201.072 82.3399 196.603 84.2334C196.603 84.2334 191.161 80.6159 191.767 70.9363L191.781 70.9505Z" fill="#CE5870"/>
<path fill-rule="evenodd" clip-rule="evenodd" d="M140.096 107.521C140.096 107.521 142.845 105.868 149.274 107.168C155.703 108.468 158.114 110.545 158.114 110.545C158.114 110.545 155.026 104.907 149.754 104.016C144.467 103.112 140.096 107.535 140.096 107.535V107.521Z" fill="#CE5870"/>
<path fill-rule="evenodd" clip-rule="evenodd" d="M179.586 21.8037C179.586 21.8037 185.31 27.8941 184.929 29.1376C184.549 30.3811 184.534 31.992 182.265 34.2247C182.265 34.2247 186.692 32.8257 187.707 30.042C188.722 27.2582 179.586 21.8037 179.586 21.8037Z" fill="#CE5870"/>
<path fill-rule="evenodd" clip-rule="evenodd" d="M200 51.45C200 51.45 202.411 57.8371 202.017 63.4047C202.017 63.4047 202.736 58.5578 202.256 55.5056C201.777 52.4533 200 51.45 200 51.45Z" fill="#CE5870"/>
<path fill-rule="evenodd" clip-rule="evenodd" d="M65.4166 100.653C65.4166 101.487 64.7399 102.151 63.9222 102.151C63.1045 102.151 62.4277 101.473 62.4277 100.653C62.4277 99.8337 63.1045 99.1554 63.9222 99.1554C64.7399 99.1554 65.4166 99.8337 65.4166 100.653Z" fill="white"/>
<path d="M111.871 99C113.117 99 114.127 97.9878 114.127 96.7391C114.127 95.4904 113.117 94.4782 111.871 94.4782C110.625 94.4782 109.615 95.4904 109.615 96.7391C109.615 97.9878 110.625 99 111.871 99Z" fill="white"/>
<path fill-rule="evenodd" clip-rule="evenodd" d="M14.7891 78.4398C14.7891 78.4398 21.2179 77.5071 23.9248 75.1756L24.3901 77.1115C24.3901 77.1115 21.3871 83.0181 16.8474 84.0214L14.7891 78.4398Z" fill="#F47F81"/>
<g style="mix-blend-mode:soft-light" opacity="0.7">
<path fill-rule="evenodd" clip-rule="evenodd" d="M164.134 188.434C164.134 188.434 149.866 188.433 141.887 181.792L148.654 178.273C148.654 178.273 153.462 184.491 164.134 188.434Z" fill="white"/>
</g>
<g style="mix-blend-mode:soft-light" opacity="0.7">
<path fill-rule="evenodd" clip-rule="evenodd" d="M60.4116 186.851C60.4116 186.851 71.5635 186.653 78.9793 181.086L74.4537 175.023C74.4537 175.023 71.2251 182.258 60.4116 186.851Z" fill="white"/>
</g>
<g style="mix-blend-mode:soft-light" opacity="0.7">
<path fill-rule="evenodd" clip-rule="evenodd" d="M98.9568 19.7124C98.9568 19.7124 95.5027 27.4843 91.7102 29.1376C91.7102 29.1376 89.102 33.0801 88.7636 34.2247C88.4252 35.3693 92.6407 42.2651 97.4482 44.5966C102.256 46.9282 107.148 46.5891 107.148 46.5891C107.148 46.5891 116.495 43.3531 122.642 43.0705C122.642 43.0705 119.78 47.2673 114.507 48.4543C109.235 49.6413 107.909 47.1826 107.134 47.0554C106.358 46.9282 100.212 48.4402 93.3879 45.9956C86.5642 43.551 85.5492 37.3052 86.0567 35.1432C86.5642 32.9953 90.2298 31.3137 91.2449 29.1376C92.26 26.9615 91.0757 26.368 92.1331 23.4853C93.1905 20.6026 98.9568 19.7124 98.9568 19.7124Z" fill="white"/>
</g>
<g style="mix-blend-mode:soft-light" opacity="0.7">
<path fill-rule="evenodd" clip-rule="evenodd" d="M107.148 25.1103C107.148 25.1103 112.675 19.3874 117.736 19.7124C122.797 20.0374 129.734 29.3637 129.579 32.5855C129.579 32.5855 127.013 30.4094 124.249 27.4419C121.5 24.4744 122.064 22.4961 120.485 21.2102C118.906 19.9243 117.398 20.0798 116.721 20.4189C116.044 20.7581 114.423 24.4744 111.659 24.7005C108.91 24.9266 107.148 25.0962 107.148 25.0962V25.1103Z" fill="white"/>
</g>
<g style="mix-blend-mode:soft-light" opacity="0.7">
<path fill-rule="evenodd" clip-rule="evenodd" d="M162.555 5.96318C162.555 5.96318 146.046 8.43606 143.578 11.1492C141.111 13.8481 146.497 22.5244 149.979 23.881C149.979 23.881 150.881 21.1255 149.923 18.7515C148.964 16.3917 143.804 14.9786 143.691 13.0568C143.578 11.1492 146.046 9.04368 151.05 9.01542C156.055 9.00129 162.033 8.91651 162.555 5.94905V5.96318Z" fill="white"/>
</g>
<g style="mix-blend-mode:soft-light" opacity="0.7">
<path fill-rule="evenodd" clip-rule="evenodd" d="M127.111 61.2709C127.111 61.2709 134.992 59.6883 137.995 55.4632C140.998 51.2381 140.293 47.9739 142.944 44.5966C145.594 41.2194 155.787 42.4629 158.847 44.5966C158.847 44.5966 159.058 46.5467 156.112 46.151C153.165 45.7553 151.854 43.2259 148.865 43.0846C145.862 42.9433 143.494 43.777 142.958 45.1619C142.422 46.5608 144.565 50.4044 143.719 54.3751C142.873 58.3458 138.912 57.1023 134.696 60.0557C130.481 63.009 129.564 63.0938 129.564 63.0938C129.564 63.0938 127.436 63.3623 127.097 61.285L127.111 61.2709Z" fill="white"/>
</g>
<g style="mix-blend-mode:soft-light" opacity="0.7">
<path fill-rule="evenodd" clip-rule="evenodd" d="M57.606 22.5809C57.606 22.5809 63.9361 20.3765 66.5021 21.2809C69.068 22.1853 72.0991 30.5224 72.0991 30.5224C72.0991 30.5224 72.8464 23.4853 69.9703 18.9917C67.0942 14.4981 57.606 22.5951 57.606 22.5951V22.5809Z" fill="white"/>
</g>
<g style="mix-blend-mode:soft-light" opacity="0.7">
<path fill-rule="evenodd" clip-rule="evenodd" d="M189.652 84.0214C189.652 84.0214 186.578 74.1299 186.057 65.7221C185.521 57.3284 189.37 53.0044 190.047 51.4359C190.723 49.8815 195.277 42.6466 198.76 42.4912C202.242 42.3357 204.441 48.8641 204.441 48.8641C204.441 48.8641 201.805 42.6607 199.098 43.0705C196.391 43.4803 195.672 46.4478 194.488 47.9174C193.303 49.387 190.329 50.4468 188.806 55.1806C187.283 59.9144 189.877 68.7461 190.216 72.9712C190.554 77.1963 189.652 84.0214 189.652 84.0214Z" fill="white"/>
</g>
<g style="mix-blend-mode:soft-light" opacity="0.7">
<path fill-rule="evenodd" clip-rule="evenodd" d="M145.594 74.7799C145.594 74.7799 148.273 64.1677 150.43 59.1796C152.587 54.1914 161.836 53.0892 168.49 54.7849C168.49 54.7849 167.56 56.7632 164.613 57.4273C161.666 58.0915 156.605 56.311 154.251 56.7349C151.896 57.1447 153.687 61.7231 152.742 66.9515C151.798 72.1798 145.594 74.7799 145.594 74.7799Z" fill="white"/>
</g>
<g style="mix-blend-mode:soft-light" opacity="0.7">
<path fill-rule="evenodd" clip-rule="evenodd" d="M55.7593 72.9853C55.7593 72.9853 58.0432 67.9124 69.8436 68.4211C69.8436 68.4211 61.6665 73.2114 55.7593 72.9853Z" fill="white"/>
</g>
<g style="mix-blend-mode:soft-light" opacity="0.7">
<path fill-rule="evenodd" clip-rule="evenodd" d="M126.477 112.071C126.477 112.071 130.833 99.9326 140.096 99.1554C140.096 99.1554 137.981 109.202 126.477 112.071Z" fill="white"/>
</g>
<path fill-rule="evenodd" clip-rule="evenodd" d="M53.3623 40.527C53.3623 40.527 55.6885 35.5953 58.7338 35.878C61.7791 36.1606 62.8224 38.1954 62.8224 38.1954C62.8224 38.1954 54.5325 39.4954 53.3764 40.527H53.3623Z" fill="white"/>
<path fill-rule="evenodd" clip-rule="evenodd" d="M95.6294 5.96317C95.6294 5.96317 101.325 8.45018 108.149 3.40551C108.149 3.40551 100.691 1.90765 95.6294 5.96317Z" fill="white"/>
<path fill-rule="evenodd" clip-rule="evenodd" d="M107.148 25.1103C107.148 25.1103 111.039 26.5658 113.408 24.0647C115.776 21.5635 116.241 19.6983 116.241 19.6983C116.241 19.6983 108.924 21.2809 107.148 25.1103Z" fill="white"/>
<path fill-rule="evenodd" clip-rule="evenodd" d="M107.148 46.5891C107.148 46.5891 117.764 42.1661 122.642 43.0705C122.642 43.0705 121.373 47.0978 114.507 48.4543C107.641 49.8109 107.134 46.5891 107.134 46.5891H107.148Z" fill="white"/>
<path fill-rule="evenodd" clip-rule="evenodd" d="M146.37 9.84914C146.37 9.84914 150.74 6.51428 162.555 5.94905C162.555 5.94905 162.625 8.98716 158.466 9.49587C154.307 10.0046 146.37 9.84914 146.37 9.84914Z" fill="white"/>
<path fill-rule="evenodd" clip-rule="evenodd" d="M154.462 55.5197C154.462 55.5197 159.397 57.6958 163.359 57.5687C167.32 57.4415 168.504 54.7849 168.504 54.7849C168.504 54.7849 161.244 52.7642 154.477 55.5197H154.462Z" fill="white"/>
<path fill-rule="evenodd" clip-rule="evenodd" d="M192.923 46.9706C192.923 46.9706 194.431 42.364 197.519 41.94C200.607 41.5161 201.875 44.201 201.875 44.201C201.875 44.201 199.535 43.5086 196.222 45.2325L192.923 46.9706Z" fill="white"/>
<g style="mix-blend-mode:soft-light">
<path fill-rule="evenodd" clip-rule="evenodd" d="M91.9639 121.878C91.9639 121.878 96.7009 119.094 101.086 118.84C101.086 118.84 98.4491 123.644 91.9639 121.878Z" fill="white"/>
</g>
</g>
<defs>
<linearGradient id="paint0_linear_9_1882" x1="133.808" y1="132.702" x2="119.051" y2="0.00739803" gradientUnits="userSpaceOnUse">
<stop offset="0.02" stop-color="#FF8E89"/>
<stop offset="1" stop-color="#FFB388"/>
</linearGradient>
<linearGradient id="paint1_linear_9_1882" x1="72.6631" y1="193.351" x2="72.6631" y2="124.69" gradientUnits="userSpaceOnUse">
<stop stop-color="#684A72"/>
<stop offset="0.99" stop-color="#46255E"/>
</linearGradient>
<linearGradient id="paint2_linear_9_1882" x1="72.663" y1="193.351" x2="72.663" y2="155.82" gradientUnits="userSpaceOnUse">
<stop offset="0.02" stop-color="#FFA993"/>
<stop offset="1" stop-color="#FFCFA9"/>
</linearGradient>
<linearGradient id="paint3_linear_9_1882" x1="107.148" y1="63.1503" x2="107.148" y2="29.1376" gradientUnits="userSpaceOnUse">
<stop offset="0.02" stop-color="#E08893"/>
<stop offset="0.33" stop-color="#ECB9BF"/>
<stop offset="0.62" stop-color="#F6DFE2"/>
<stop offset="0.85" stop-color="#FCF6F7"/>
<stop offset="1" stop-color="white"/>
</linearGradient>
<linearGradient id="paint4_linear_9_1882" x1="61.3844" y1="67.4602" x2="61.3844" y2="37.0791" gradientUnits="userSpaceOnUse">
<stop offset="0.02" stop-color="#E08893"/>
<stop offset="0.33" stop-color="#ECB9BF"/>
<stop offset="0.62" stop-color="#F6DFE2"/>
<stop offset="0.85" stop-color="#FCF6F7"/>
<stop offset="1" stop-color="white"/>
</linearGradient>
<linearGradient id="paint5_linear_9_1882" x1="23.2624" y1="107.521" x2="23.2624" y2="37.0791" gradientUnits="userSpaceOnUse">
<stop stop-color="#46255E"/>
<stop offset="1" stop-color="#684A72"/>
</linearGradient>
<linearGradient id="paint6_linear_9_1882" x1="60.4402" y1="54.2479" x2="60.4402" y2="43.5792" gradientUnits="userSpaceOnUse">
<stop offset="0.02" stop-color="#E08893"/>
<stop offset="0.33" stop-color="#ECB9BF"/>
<stop offset="0.62" stop-color="#F6DFE2"/>
<stop offset="0.85" stop-color="#FCF6F7"/>
<stop offset="1" stop-color="white"/>
</linearGradient>
<linearGradient id="paint7_linear_9_1882" x1="163.923" y1="43.0705" x2="163.923" y2="19.7124" gradientUnits="userSpaceOnUse">
<stop offset="0.02" stop-color="#E08893"/>
<stop offset="0.33" stop-color="#ECB9BF"/>
<stop offset="0.62" stop-color="#F6DFE2"/>
<stop offset="0.85" stop-color="#FCF6F7"/>
<stop offset="1" stop-color="white"/>
</linearGradient>
<linearGradient id="paint8_linear_9_1882" x1="94.8683" y1="17.7341" x2="94.8683" y2="0.296752" gradientUnits="userSpaceOnUse">
<stop offset="0.02" stop-color="#E08893"/>
<stop offset="0.33" stop-color="#ECB9BF"/>
<stop offset="0.62" stop-color="#F6DFE2"/>
<stop offset="0.85" stop-color="#FCF6F7"/>
<stop offset="1" stop-color="white"/>
</linearGradient>
<linearGradient id="paint9_linear_9_1882" x1="15.3532" y1="96.7391" x2="15.3532" y2="35.8638" gradientUnits="userSpaceOnUse">
<stop offset="0.02" stop-color="#FFA993"/>
<stop offset="1" stop-color="#FFCFA9"/>
</linearGradient>
<linearGradient id="paint10_linear_9_1882" x1="105.273" y1="43.0705" x2="105.273" y2="31.2996" gradientUnits="userSpaceOnUse">
<stop offset="0.02" stop-color="#E08893"/>
<stop offset="0.33" stop-color="#ECB9BF"/>
<stop offset="0.62" stop-color="#F6DFE2"/>
<stop offset="0.85" stop-color="#FCF6F7"/>
<stop offset="1" stop-color="white"/>
</linearGradient>
<linearGradient id="paint11_linear_9_1882" x1="57.042" y1="192.984" x2="88.27" y2="192.984" gradientUnits="userSpaceOnUse">
<stop stop-color="#9B1A43"/>
<stop offset="1" stop-color="#731653"/>
</linearGradient>
<linearGradient id="paint12_linear_9_1882" x1="125.349" y1="131.458" x2="125.349" y2="63.0797" gradientUnits="userSpaceOnUse">
<stop offset="0.02" stop-color="#E08893"/>
<stop offset="1" stop-color="#FFD1C7"/>
</linearGradient>
<linearGradient id="paint13_linear_9_1882" x1="90.1736" y1="120.549" x2="90.1736" y2="109.485" gradientUnits="userSpaceOnUse">
<stop stop-color="#9B1A43"/>
<stop offset="1" stop-color="#731653"/>
</linearGradient>
<linearGradient id="paint14_linear_9_1882" x1="86.2682" y1="117.61" x2="86.2682" y2="114.134" gradientUnits="userSpaceOnUse">
<stop offset="0.02" stop-color="#FBC9CE"/>
<stop offset="1" stop-color="white"/>
</linearGradient>
<linearGradient id="paint15_linear_9_1882" x1="114.888" y1="107.478" x2="114.888" y2="76.5886" gradientUnits="userSpaceOnUse">
<stop stop-color="white"/>
<stop offset="0.98" stop-color="#FBC9CE"/>
</linearGradient>
<linearGradient id="paint16_linear_9_1882" x1="66.0372" y1="106.715" x2="66.0372" y2="81.5344" gradientUnits="userSpaceOnUse">
<stop stop-color="white"/>
<stop offset="0.98" stop-color="#FBC9CE"/>
</linearGradient>
<linearGradient id="paint17_linear_9_1882" x1="122.332" y1="116.706" x2="202.778" y2="116.706" gradientUnits="userSpaceOnUse">
<stop stop-color="#B54263"/>
<stop offset="0.98" stop-color="#D8474D"/>
</linearGradient>
<linearGradient id="paint18_linear_9_1882" x1="4.44092" y1="66.2308" x2="24.9259" y2="66.2308" gradientUnits="userSpaceOnUse">
<stop offset="0.02" stop-color="#E08893"/>
<stop offset="1" stop-color="#FFD1C7"/>
</linearGradient>
<linearGradient id="paint19_linear_9_1882" x1="172.818" y1="189.804" x2="172.818" y2="93.7434" gradientUnits="userSpaceOnUse">
<stop stop-color="#684A72"/>
<stop offset="0.99" stop-color="#46255E"/>
</linearGradient>
<linearGradient id="paint20_linear_9_1882" x1="174.693" y1="189.804" x2="174.693" y2="131.713" gradientUnits="userSpaceOnUse">
<stop offset="0.02" stop-color="#FFA993"/>
<stop offset="1" stop-color="#FFCFA9"/>
</linearGradient>
<linearGradient id="paint21_linear_9_1882" x1="148.597" y1="195.993" x2="148.597" y2="124.223" gradientUnits="userSpaceOnUse">
<stop stop-color="#684A72"/>
<stop offset="0.99" stop-color="#46255E"/>
</linearGradient>
<linearGradient id="paint22_linear_9_1882" x1="150.289" y1="195.993" x2="150.289" y2="151.114" gradientUnits="userSpaceOnUse">
<stop offset="0.02" stop-color="#FFA993"/>
<stop offset="1" stop-color="#FFCFA9"/>
</linearGradient>
<linearGradient id="paint23_linear_9_1882" x1="134.696" y1="195.683" x2="165.882" y2="195.683" gradientUnits="userSpaceOnUse">
<stop stop-color="#9B1A43"/>
<stop offset="1" stop-color="#731653"/>
</linearGradient>
<clipPath id="clip0_9_1882">
<rect width="214" height="198" fill="white"/>
</clipPath>
</defs>
</svg>
